<?xml version="1.0" encoding="UTF-8" standalone="no"?>
<!DOCTYPE svg PUBLIC "-//W3C//DTD SVG 1.1//EN"
 "http://www.w3.org/Graphics/SVG/1.1/DTD/svg11.dtd">
<!-- Generated by graphviz version 2.38.0 (20140413.2041)
 -->
<!-- Title: model_graph Pages: 1 -->
<svg width="250pt" height="299pt"
 viewBox="0.00 0.00 250.00 299.00" xmlns="http://www.w3.org/2000/svg" xmlns:xlink="http://www.w3.org/1999/xlink">
<g id="graph0" class="graph" transform="scale(1 1) rotate(0) translate(-4 295)">
<title>model_graph</title>
<polygon fill="white" stroke="none" points="4,4 4,-295 254,-295 254,4 4,4"/>
<g id="clust1" class="cluster"><title>cluster_django_contrib_auth_models</title>
<path fill="none" stroke="#698b22" d="M20,-73C20,-73 238,-73 238,-73 244,-73 250,-79 250,-85 250,-85 250,-279 250,-279 250,-285 244,-291 238,-291 238,-291 20,-291 20,-291 14,-291 8,-285 8,-279 8,-279 8,-85 8,-85 8,-79 14,-73 20,-73"/>
<text text-anchor="start" x="20" y="-273.9" font-family="Helvetica,sans-Serif" font-size="8.00"> &#160;&#160;&#160;&#160;&#160;&#160;&#160;&#160;&#160;</text>
<text text-anchor="start" x="43" y="-273.9" font-family="Helvetica Bold" font-size="12.00"> &#160;&#160;&#160;&#160;&#160;&#160;&#160;&#160;&#160;django.contrib.auth &#160;&#160;&#160;&#160;&#160;&#160;&#160;&#160;&#160;</text>
<text text-anchor="start" x="215" y="-273.9" font-family="Helvetica,sans-Serif" font-size="8.00"> &#160;&#160;&#160;&#160;&#160;&#160;&#160;&#160;&#160;</text>
</g>
<!-- django_contrib_auth_models_Permission -->
<g id="node1" class="node"><title>django_contrib_auth_models_Permission</title>
<polygon fill="palegoldenrod" stroke="none" points="39.5,-85 39.5,-154 218.5,-154 218.5,-85 39.5,-85"/>
<polygon fill="#698b22" stroke="none" points="40,-136.5 40,-153.5 219,-153.5 219,-136.5 40,-136.5"/>
<text text-anchor="start" x="87" y="-144.1" font-family="Helvetica,sans-Serif" font-size="8.00"> &#160;&#160;&#160;&#160;&#160;</text>
<text text-anchor="start" x="101" y="-144.1" font-family="Helvetica Bold" font-size="8.00" fill="white"> &#160;&#160;&#160;&#160;&#160;Permission &#160;&#160;&#160;&#160;&#160;</text>
<text text-anchor="start" x="42" y="-129.1" font-family="Helvetica,sans-Serif" font-size="8.00"> &#160;&#160;&#160;&#160;&#160;</text>
<text text-anchor="start" x="56" y="-129.1" font-family="Helvetica Bold" font-size="8.00">id</text>
<text text-anchor="start" x="64" y="-129.1" font-family="Helvetica,sans-Serif" font-size="8.00"> &#160;&#160;&#160;&#160;&#160;</text>
<text text-anchor="start" x="127" y="-129.1" font-family="Helvetica,sans-Serif" font-size="8.00"> &#160;&#160;&#160;&#160;&#160;</text>
<text text-anchor="start" x="141" y="-129.1" font-family="Helvetica Bold" font-size="8.00">AutoField</text>
<text text-anchor="start" x="181" y="-129.1" font-family="Helvetica,sans-Serif" font-size="8.00"> &#160;&#160;&#160;&#160;&#160;</text>
<text text-anchor="start" x="42" y="-116.1" font-family="Helvetica,sans-Serif" font-size="8.00"> &#160;&#160;&#160;&#160;&#160;</text>
<text text-anchor="start" x="56" y="-116.1" font-family="Helvetica Bold" font-size="8.00">content_type</text>
<text text-anchor="start" x="109" y="-116.1" font-family="Helvetica,sans-Serif" font-size="8.00"> &#160;&#160;&#160;&#160;&#160;</text>
<text text-anchor="start" x="127" y="-116.1" font-family="Helvetica,sans-Serif" font-size="8.00"> &#160;&#160;&#160;&#160;&#160;</text>
<text text-anchor="start" x="141" y="-116.1" font-family="Helvetica Bold" font-size="8.00">ForeignKey (id)</text>
<text text-anchor="start" x="203" y="-116.1" font-family="Helvetica,sans-Serif" font-size="8.00"> &#160;&#160;&#160;&#160;&#160;</text>
<text text-anchor="start" x="42" y="-103.1" font-family="Helvetica,sans-Serif" font-size="8.00"> &#160;&#160;&#160;&#160;&#160;</text>
<text text-anchor="start" x="56" y="-103.1" font-family="Helvetica " font-size="8.00">codename</text>
<text text-anchor="start" x="94" y="-103.1" font-family="Helvetica,sans-Serif" font-size="8.00"> &#160;&#160;&#160;&#160;&#160;</text>
<text text-anchor="start" x="127" y="-103.1" font-family="Helvetica,sans-Serif" font-size="8.00"> &#160;&#160;&#160;&#160;&#160;</text>
<text text-anchor="start" x="141" y="-103.1" font-family="Helvetica " font-size="8.00">CharField</text>
<text text-anchor="start" x="177" y="-103.1" font-family="Helvetica,sans-Serif" font-size="8.00"> &#160;&#160;&#160;&#160;&#160;</text>
<text text-anchor="start" x="42" y="-90.1" font-family="Helvetica,sans-Serif" font-size="8.00"> &#160;&#160;&#160;&#160;&#160;</text>
<text text-anchor="start" x="56" y="-90.1" font-family="Helvetica " font-size="8.00">name</text>
<text text-anchor="start" x="77" y="-90.1" font-family="Helvetica,sans-Serif" font-size="8.00"> &#160;&#160;&#160;&#160;&#160;</text>
<text text-anchor="start" x="127" y="-90.1" font-family="Helvetica,sans-Serif" font-size="8.00"> &#160;&#160;&#160;&#160;&#160;</text>
<text text-anchor="start" x="141" y="-90.1" font-family="Helvetica " font-size="8.00">CharField</text>
<text text-anchor="start" x="177" y="-90.1" font-family="Helvetica,sans-Serif" font-size="8.00"> &#160;&#160;&#160;&#160;&#160;</text>
</g>
<!-- django_contrib_contenttypes_models_ContentType -->
<g id="node3" class="node"><title>django_contrib_contenttypes_models_ContentType</title>
<polygon fill="palegoldenrod" stroke="none" points="94,-9.5 94,-26.5 164,-26.5 164,-9.5 94,-9.5"/>
<polygon fill="#698b22" stroke="none" points="94,-9 94,-26 164,-26 164,-9 94,-9"/>
<text text-anchor="start" x="98" y="-16.6" font-family="Helvetica,sans-Serif" font-size="8.00"> &#160;</text>
<text text-anchor="start" x="103" y="-16.6" font-family="Helvetica Bold" font-size="8.00" fill="white">ContentType</text>
<text text-anchor="start" x="155" y="-16.6" font-family="Helvetica,sans-Serif" font-size="8.00"> &#160;</text>
</g>
<!-- django_contrib_auth_models_Permission&#45;&gt;django_contrib_contenttypes_models_ContentType -->
<g id="edge2" class="edge"><title>django_contrib_auth_models_Permission&#45;&gt;django_contrib_contenttypes_models_ContentType</title>
<path fill="none" stroke="black" d="M129,-72.824C129,-59.75 129,-46.297 129,-36.112"/>
<ellipse fill="black" stroke="black" cx="129" cy="-76.883" rx="4" ry="4"/>
<text text-anchor="middle" x="175.5" y="-56.6" font-family="Helvetica,sans-Serif" font-size="8.00">content_type (permission)</text>
</g>
<!-- django_contrib_auth_models_Group -->
<g id="node2" class="node"><title>django_contrib_auth_models_Group</title>
<polygon fill="palegoldenrod" stroke="none" points="66.5,-207 66.5,-250 191.5,-250 191.5,-207 66.5,-207"/>
<polygon fill="#698b22" stroke="none" points="67,-232.5 67,-249.5 192,-249.5 192,-232.5 67,-232.5"/>
<text text-anchor="start" x="96.5" y="-240.1" font-family="Helvetica,sans-Serif" font-size="8.00"> &#160;&#160;&#160;&#160;&#160;</text>
<text text-anchor="start" x="110.5" y="-240.1" font-family="Helvetica Bold" font-size="8.00" fill="white"> &#160;&#160;&#160;&#160;&#160;Group &#160;&#160;&#160;&#160;&#160;</text>
<text text-anchor="start" x="69" y="-225.1" font-family="Helvetica,sans-Serif" font-size="8.00"> &#160;&#160;&#160;&#160;&#160;</text>
<text text-anchor="start" x="83" y="-225.1" font-family="Helvetica Bold" font-size="8.00">id</text>
<text text-anchor="start" x="91" y="-225.1" font-family="Helvetica,sans-Serif" font-size="8.00"> &#160;&#160;&#160;&#160;&#160;</text>
<text text-anchor="start" x="122" y="-225.1" font-family="Helvetica,sans-Serif" font-size="8.00"> &#160;&#160;&#160;&#160;&#160;</text>
<text text-anchor="start" x="136" y="-225.1" font-family="Helvetica Bold" font-size="8.00">AutoField</text>
<text text-anchor="start" x="176" y="-225.1" font-family="Helvetica,sans-Serif" font-size="8.00"> &#160;&#160;&#160;&#160;&#160;</text>
<text text-anchor="start" x="69" y="-212.1" font-family="Helvetica,sans-Serif" font-size="8.00"> &#160;&#160;&#160;&#160;&#160;</text>
<text text-anchor="start" x="83" y="-212.1" font-family="Helvetica " font-size="8.00">name</text>
<text text-anchor="start" x="104" y="-212.1" font-family="Helvetica,sans-Serif" font-size="8.00"> &#160;&#160;&#160;&#160;&#160;</text>
<text text-anchor="start" x="122" y="-212.1" font-family="Helvetica,sans-Serif" font-size="8.00"> &#160;&#160;&#160;&#160;&#160;</text>
<text text-anchor="start" x="136" y="-212.1" font-family="Helvetica " font-size="8.00">CharField</text>
<text text-anchor="start" x="172" y="-212.1" font-family="Helvetica,sans-Serif" font-size="8.00"> &#160;&#160;&#160;&#160;&#160;</text>
</g>
<!-- django_contrib_auth_models_Group&#45;&gt;django_contrib_auth_models_Permission -->
<g id="edge1" class="edge"><title>django_contrib_auth_models_Group&#45;&gt;django_contrib_auth_models_Permission</title>
<path fill="none" stroke="black" d="M129,-194.87C129,-185.95 129,-176.12 129,-166.61"/>
<ellipse fill="black" stroke="black" cx="129" cy="-198.95" rx="4" ry="4"/>
<ellipse fill="black" stroke="black" cx="129" cy="-162.36" rx="4" ry="4"/>
<text text-anchor="middle" x="165" y="-178.6" font-family="Helvetica,sans-Serif" font-size="8.00">permissions (group)</text>
</g>
</g>
</svg>
