<?xml version="1.0" encoding="UTF-8" standalone="no"?>
<!DOCTYPE svg PUBLIC "-//W3C//DTD SVG 1.1//EN"
 "http://www.w3.org/Graphics/SVG/1.1/DTD/svg11.dtd">
<!-- Generated by graphviz version 2.38.0 (20140413.2041)
 -->
<!-- Title: model_graph Pages: 1 -->
<svg width="272pt" height="346pt"
 viewBox="0.00 0.00 272.00 346.00" xmlns="http://www.w3.org/2000/svg" xmlns:xlink="http://www.w3.org/1999/xlink">
<g id="graph0" class="graph" transform="scale(1 1) rotate(0) translate(4 342)">
<title>model_graph</title>
<polygon fill="white" stroke="none" points="-4,4 -4,-342 268,-342 268,4 -4,4"/>
<g id="clust1" class="cluster"><title>cluster_pdc_apps_changeset_models</title>
<path fill="none" stroke="#698b22" d="M20,-73C20,-73 244,-73 244,-73 250,-73 256,-79 256,-85 256,-85 256,-318 256,-318 256,-324 250,-330 244,-330 244,-330 20,-330 20,-330 14,-330 8,-324 8,-318 8,-318 8,-85 8,-85 8,-79 14,-73 20,-73"/>
<text text-anchor="start" x="20.5" y="-312.9" font-family="Helvetica,sans-Serif" font-size="8.00"> &#160;&#160;&#160;&#160;&#160;&#160;&#160;&#160;&#160;</text>
<text text-anchor="start" x="43.5" y="-312.9" font-family="Helvetica Bold" font-size="12.00"> &#160;&#160;&#160;&#160;&#160;&#160;&#160;&#160;&#160;pdc.apps.changeset &#160;&#160;&#160;&#160;&#160;&#160;&#160;&#160;&#160;</text>
<text text-anchor="start" x="220.5" y="-312.9" font-family="Helvetica,sans-Serif" font-size="8.00"> &#160;&#160;&#160;&#160;&#160;&#160;&#160;&#160;&#160;</text>
</g>
<!-- pdc_apps_changeset_models_Changeset -->
<g id="node1" class="node"><title>pdc_apps_changeset_models_Changeset</title>
<polygon fill="palegoldenrod" stroke="none" points="43.5,-85 43.5,-141 220.5,-141 220.5,-85 43.5,-85"/>
<polygon fill="#698b22" stroke="none" points="44,-124 44,-141 221,-141 221,-124 44,-124"/>
<text text-anchor="start" x="90.5" y="-131.6" font-family="Helvetica,sans-Serif" font-size="8.00"> &#160;&#160;&#160;&#160;&#160;</text>
<text text-anchor="start" x="104.5" y="-131.6" font-family="Helvetica Bold" font-size="8.00" fill="white"> &#160;&#160;&#160;&#160;&#160;Changeset &#160;&#160;&#160;&#160;&#160;</text>
<text text-anchor="start" x="46" y="-116.6" font-family="Helvetica,sans-Serif" font-size="8.00"> &#160;&#160;&#160;&#160;&#160;</text>
<text text-anchor="start" x="60" y="-116.6" font-family="Helvetica Bold" font-size="8.00">id</text>
<text text-anchor="start" x="68" y="-116.6" font-family="Helvetica,sans-Serif" font-size="8.00"> &#160;&#160;&#160;&#160;&#160;</text>
<text text-anchor="start" x="129" y="-116.6" font-family="Helvetica,sans-Serif" font-size="8.00"> &#160;&#160;&#160;&#160;&#160;</text>
<text text-anchor="start" x="143" y="-116.6" font-family="Helvetica Bold" font-size="8.00">AutoField</text>
<text text-anchor="start" x="183" y="-116.6" font-family="Helvetica,sans-Serif" font-size="8.00"> &#160;&#160;&#160;&#160;&#160;</text>
<text text-anchor="start" x="46" y="-103.6" font-family="Helvetica,sans-Serif" font-size="8.00"> &#160;&#160;&#160;&#160;&#160;</text>
<text text-anchor="start" x="60" y="-103.6" font-family="Helvetica Bold" font-size="8.00" fill="#7b7b7b">author</text>
<text text-anchor="start" x="87" y="-103.6" font-family="Helvetica,sans-Serif" font-size="8.00"> &#160;&#160;&#160;&#160;&#160;</text>
<text text-anchor="start" x="129" y="-103.6" font-family="Helvetica,sans-Serif" font-size="8.00"> &#160;&#160;&#160;&#160;&#160;</text>
<text text-anchor="start" x="143" y="-103.6" font-family="Helvetica Bold" font-size="8.00" fill="#7b7b7b">ForeignKey (id)</text>
<text text-anchor="start" x="205" y="-103.6" font-family="Helvetica,sans-Serif" font-size="8.00"> &#160;&#160;&#160;&#160;&#160;</text>
<text text-anchor="start" x="46" y="-90.6" font-family="Helvetica,sans-Serif" font-size="8.00"> &#160;&#160;&#160;&#160;&#160;</text>
<text text-anchor="start" x="60" y="-90.6" font-family="Helvetica " font-size="8.00" fill="#7b7b7b">committed_on</text>
<text text-anchor="start" x="111" y="-90.6" font-family="Helvetica,sans-Serif" font-size="8.00"> &#160;&#160;&#160;&#160;&#160;</text>
<text text-anchor="start" x="129" y="-90.6" font-family="Helvetica,sans-Serif" font-size="8.00"> &#160;&#160;&#160;&#160;&#160;</text>
<text text-anchor="start" x="143" y="-90.6" font-family="Helvetica " font-size="8.00" fill="#7b7b7b">DateTimeField</text>
<text text-anchor="start" x="196" y="-90.6" font-family="Helvetica,sans-Serif" font-size="8.00"> &#160;&#160;&#160;&#160;&#160;</text>
</g>
<!-- pdc_apps_auth_models_User -->
<g id="node3" class="node"><title>pdc_apps_auth_models_User</title>
<polygon fill="palegoldenrod" stroke="none" points="113,-9.5 113,-26.5 151,-26.5 151,-9.5 113,-9.5"/>
<polygon fill="#698b22" stroke="none" points="113,-9 113,-26 151,-26 151,-9 113,-9"/>
<text text-anchor="start" x="117.5" y="-16.6" font-family="Helvetica,sans-Serif" font-size="8.00"> &#160;</text>
<text text-anchor="start" x="122.5" y="-16.6" font-family="Helvetica Bold" font-size="8.00" fill="white">User</text>
<text text-anchor="start" x="141.5" y="-16.6" font-family="Helvetica,sans-Serif" font-size="8.00"> &#160;</text>
</g>
<!-- pdc_apps_changeset_models_Changeset&#45;&gt;pdc_apps_auth_models_User -->
<g id="edge1" class="edge"><title>pdc_apps_changeset_models_Changeset&#45;&gt;pdc_apps_auth_models_User</title>
<path fill="none" stroke="black" d="M132,-72.5658C132,-59.8549 132,-46.4229 132,-36.1889"/>
<ellipse fill="black" stroke="black" cx="132" cy="-76.7736" rx="4" ry="4"/>
<text text-anchor="middle" x="166.5" y="-56.6" font-family="Helvetica,sans-Serif" font-size="8.00">author (changeset)</text>
</g>
<!-- pdc_apps_changeset_models_Change -->
<g id="node2" class="node"><title>pdc_apps_changeset_models_Change</title>
<polygon fill="palegoldenrod" stroke="none" points="43.5,-194 43.5,-289 220.5,-289 220.5,-194 43.5,-194"/>
<polygon fill="#698b22" stroke="none" points="44,-271.5 44,-288.5 221,-288.5 221,-271.5 44,-271.5"/>
<text text-anchor="start" x="96.5" y="-279.1" font-family="Helvetica,sans-Serif" font-size="8.00"> &#160;&#160;&#160;&#160;&#160;</text>
<text text-anchor="start" x="110.5" y="-279.1" font-family="Helvetica Bold" font-size="8.00" fill="white"> &#160;&#160;&#160;&#160;&#160;Change &#160;&#160;&#160;&#160;&#160;</text>
<text text-anchor="start" x="46" y="-264.1" font-family="Helvetica,sans-Serif" font-size="8.00"> &#160;&#160;&#160;&#160;&#160;</text>
<text text-anchor="start" x="60" y="-264.1" font-family="Helvetica Bold" font-size="8.00">id</text>
<text text-anchor="start" x="68" y="-264.1" font-family="Helvetica,sans-Serif" font-size="8.00"> &#160;&#160;&#160;&#160;&#160;</text>
<text text-anchor="start" x="121" y="-264.1" font-family="Helvetica,sans-Serif" font-size="8.00"> &#160;&#160;&#160;&#160;&#160;</text>
<text text-anchor="start" x="135" y="-264.1" font-family="Helvetica Bold" font-size="8.00">AutoField</text>
<text text-anchor="start" x="175" y="-264.1" font-family="Helvetica,sans-Serif" font-size="8.00"> &#160;&#160;&#160;&#160;&#160;</text>
<text text-anchor="start" x="46" y="-251.1" font-family="Helvetica,sans-Serif" font-size="8.00"> &#160;&#160;&#160;&#160;&#160;</text>
<text text-anchor="start" x="60" y="-251.1" font-family="Helvetica Bold" font-size="8.00">changeset</text>
<text text-anchor="start" x="102" y="-251.1" font-family="Helvetica,sans-Serif" font-size="8.00"> &#160;&#160;&#160;&#160;&#160;</text>
<text text-anchor="start" x="121" y="-251.1" font-family="Helvetica,sans-Serif" font-size="8.00"> &#160;&#160;&#160;&#160;&#160;</text>
<text text-anchor="start" x="135" y="-251.1" font-family="Helvetica Bold" font-size="8.00">ForeignKey (id)</text>
<text text-anchor="start" x="197" y="-251.1" font-family="Helvetica,sans-Serif" font-size="8.00"> &#160;&#160;&#160;&#160;&#160;</text>
<text text-anchor="start" x="46" y="-238.1" font-family="Helvetica,sans-Serif" font-size="8.00"> &#160;&#160;&#160;&#160;&#160;</text>
<text text-anchor="start" x="60" y="-238.1" font-family="Helvetica " font-size="8.00">new_value</text>
<text text-anchor="start" x="99" y="-238.1" font-family="Helvetica,sans-Serif" font-size="8.00"> &#160;&#160;&#160;&#160;&#160;</text>
<text text-anchor="start" x="121" y="-238.1" font-family="Helvetica,sans-Serif" font-size="8.00"> &#160;&#160;&#160;&#160;&#160;</text>
<text text-anchor="start" x="135" y="-238.1" font-family="Helvetica " font-size="8.00">TextField</text>
<text text-anchor="start" x="169" y="-238.1" font-family="Helvetica,sans-Serif" font-size="8.00"> &#160;&#160;&#160;&#160;&#160;</text>
<text text-anchor="start" x="46" y="-225.1" font-family="Helvetica,sans-Serif" font-size="8.00"> &#160;&#160;&#160;&#160;&#160;</text>
<text text-anchor="start" x="60" y="-225.1" font-family="Helvetica " font-size="8.00">old_value</text>
<text text-anchor="start" x="94" y="-225.1" font-family="Helvetica,sans-Serif" font-size="8.00"> &#160;&#160;&#160;&#160;&#160;</text>
<text text-anchor="start" x="121" y="-225.1" font-family="Helvetica,sans-Serif" font-size="8.00"> &#160;&#160;&#160;&#160;&#160;</text>
<text text-anchor="start" x="135" y="-225.1" font-family="Helvetica " font-size="8.00">TextField</text>
<text text-anchor="start" x="169" y="-225.1" font-family="Helvetica,sans-Serif" font-size="8.00"> &#160;&#160;&#160;&#160;&#160;</text>
<text text-anchor="start" x="46" y="-212.1" font-family="Helvetica,sans-Serif" font-size="8.00"> &#160;&#160;&#160;&#160;&#160;</text>
<text text-anchor="start" x="60" y="-212.1" font-family="Helvetica " font-size="8.00">target_class</text>
<text text-anchor="start" x="103" y="-212.1" font-family="Helvetica,sans-Serif" font-size="8.00"> &#160;&#160;&#160;&#160;&#160;</text>
<text text-anchor="start" x="121" y="-212.1" font-family="Helvetica,sans-Serif" font-size="8.00"> &#160;&#160;&#160;&#160;&#160;</text>
<text text-anchor="start" x="135" y="-212.1" font-family="Helvetica " font-size="8.00">CharField</text>
<text text-anchor="start" x="171" y="-212.1" font-family="Helvetica,sans-Serif" font-size="8.00"> &#160;&#160;&#160;&#160;&#160;</text>
<text text-anchor="start" x="46" y="-199.1" font-family="Helvetica,sans-Serif" font-size="8.00"> &#160;&#160;&#160;&#160;&#160;</text>
<text text-anchor="start" x="60" y="-199.1" font-family="Helvetica " font-size="8.00">target_id</text>
<text text-anchor="start" x="92" y="-199.1" font-family="Helvetica,sans-Serif" font-size="8.00"> &#160;&#160;&#160;&#160;&#160;</text>
<text text-anchor="start" x="121" y="-199.1" font-family="Helvetica,sans-Serif" font-size="8.00"> &#160;&#160;&#160;&#160;&#160;</text>
<text text-anchor="start" x="135" y="-199.1" font-family="Helvetica " font-size="8.00">PositiveIntegerField</text>
<text text-anchor="start" x="205" y="-199.1" font-family="Helvetica,sans-Serif" font-size="8.00"> &#160;&#160;&#160;&#160;&#160;</text>
</g>
<!-- pdc_apps_changeset_models_Change&#45;&gt;pdc_apps_changeset_models_Changeset -->
<g id="edge2" class="edge"><title>pdc_apps_changeset_models_Change&#45;&gt;pdc_apps_changeset_models_Changeset</title>
<path fill="none" stroke="black" d="M132,-181.55C132,-168.948 132,-156.118 132,-145.072"/>
<ellipse fill="black" stroke="black" cx="132" cy="-185.776" rx="4" ry="4"/>
<text text-anchor="middle" x="168" y="-165.6" font-family="Helvetica,sans-Serif" font-size="8.00">changeset (change)</text>
</g>
</g>
</svg>
