<?xml version="1.0" encoding="UTF-8" standalone="no"?>
<!DOCTYPE svg PUBLIC "-//W3C//DTD SVG 1.1//EN"
 "http://www.w3.org/Graphics/SVG/1.1/DTD/svg11.dtd">
<!-- Generated by graphviz version 2.38.0 (20140413.2041)
 -->
<!-- Title: model_graph Pages: 1 -->
<svg width="1388pt" height="312pt"
 viewBox="0.00 0.00 1388.00 312.00" xmlns="http://www.w3.org/2000/svg" xmlns:xlink="http://www.w3.org/1999/xlink">
<g id="graph0" class="graph" transform="scale(1 1) rotate(0) translate(-4 308)">
<title>model_graph</title>
<polygon fill="white" stroke="none" points="4,4 4,-308 1392,-308 1392,4 4,4"/>
<g id="clust1" class="cluster"><title>cluster_pdc_apps_contact_models</title>
<path fill="none" stroke="#698b22" d="M20,-73C20,-73 1046,-73 1046,-73 1052,-73 1058,-79 1058,-85 1058,-85 1058,-292 1058,-292 1058,-298 1052,-304 1046,-304 1046,-304 20,-304 20,-304 14,-304 8,-298 8,-292 8,-292 8,-85 8,-85 8,-79 14,-73 20,-73"/>
<text text-anchor="start" x="430" y="-286.9" font-family="Helvetica,sans-Serif" font-size="8.00"> &#160;&#160;&#160;&#160;&#160;&#160;&#160;&#160;&#160;</text>
<text text-anchor="start" x="453" y="-286.9" font-family="Helvetica Bold" font-size="12.00"> &#160;&#160;&#160;&#160;&#160;&#160;&#160;&#160;&#160;pdc.apps.contact &#160;&#160;&#160;&#160;&#160;&#160;&#160;&#160;&#160;</text>
<text text-anchor="start" x="613" y="-286.9" font-family="Helvetica,sans-Serif" font-size="8.00"> &#160;&#160;&#160;&#160;&#160;&#160;&#160;&#160;&#160;</text>
</g>
<!-- pdc_apps_contact_models_ContactRole -->
<g id="node1" class="node"><title>pdc_apps_contact_models_ContactRole</title>
<polygon fill="palegoldenrod" stroke="none" points="582.5,-85 582.5,-141 727.5,-141 727.5,-85 582.5,-85"/>
<polygon fill="#698b22" stroke="none" points="583,-124 583,-141 728,-141 728,-124 583,-124"/>
<text text-anchor="start" x="610" y="-131.6" font-family="Helvetica,sans-Serif" font-size="8.00"> &#160;&#160;&#160;&#160;&#160;</text>
<text text-anchor="start" x="624" y="-131.6" font-family="Helvetica Bold" font-size="8.00" fill="white"> &#160;&#160;&#160;&#160;&#160;ContactRole &#160;&#160;&#160;&#160;&#160;</text>
<text text-anchor="start" x="585" y="-116.6" font-family="Helvetica,sans-Serif" font-size="8.00"> &#160;&#160;&#160;&#160;&#160;</text>
<text text-anchor="start" x="599" y="-116.6" font-family="Helvetica Bold" font-size="8.00">id</text>
<text text-anchor="start" x="607" y="-116.6" font-family="Helvetica,sans-Serif" font-size="8.00"> &#160;&#160;&#160;&#160;&#160;</text>
<text text-anchor="start" x="655" y="-116.6" font-family="Helvetica,sans-Serif" font-size="8.00"> &#160;&#160;&#160;&#160;&#160;</text>
<text text-anchor="start" x="669" y="-116.6" font-family="Helvetica Bold" font-size="8.00">AutoField</text>
<text text-anchor="start" x="709" y="-116.6" font-family="Helvetica,sans-Serif" font-size="8.00"> &#160;&#160;&#160;&#160;&#160;</text>
<text text-anchor="start" x="585" y="-103.6" font-family="Helvetica,sans-Serif" font-size="8.00"> &#160;&#160;&#160;&#160;&#160;</text>
<text text-anchor="start" x="599" y="-103.6" font-family="Helvetica " font-size="8.00">count_limit</text>
<text text-anchor="start" x="637" y="-103.6" font-family="Helvetica,sans-Serif" font-size="8.00"> &#160;&#160;&#160;&#160;&#160;</text>
<text text-anchor="start" x="655" y="-103.6" font-family="Helvetica,sans-Serif" font-size="8.00"> &#160;&#160;&#160;&#160;&#160;</text>
<text text-anchor="start" x="669" y="-103.6" font-family="Helvetica " font-size="8.00">IntegerField</text>
<text text-anchor="start" x="712" y="-103.6" font-family="Helvetica,sans-Serif" font-size="8.00"> &#160;&#160;&#160;&#160;&#160;</text>
<text text-anchor="start" x="585" y="-90.6" font-family="Helvetica,sans-Serif" font-size="8.00"> &#160;&#160;&#160;&#160;&#160;</text>
<text text-anchor="start" x="599" y="-90.6" font-family="Helvetica " font-size="8.00">name</text>
<text text-anchor="start" x="620" y="-90.6" font-family="Helvetica,sans-Serif" font-size="8.00"> &#160;&#160;&#160;&#160;&#160;</text>
<text text-anchor="start" x="655" y="-90.6" font-family="Helvetica,sans-Serif" font-size="8.00"> &#160;&#160;&#160;&#160;&#160;</text>
<text text-anchor="start" x="669" y="-90.6" font-family="Helvetica " font-size="8.00">CharField</text>
<text text-anchor="start" x="705" y="-90.6" font-family="Helvetica,sans-Serif" font-size="8.00"> &#160;&#160;&#160;&#160;&#160;</text>
</g>
<!-- pdc_apps_contact_models_Contact -->
<g id="node2" class="node"><title>pdc_apps_contact_models_Contact</title>
<polygon fill="palegoldenrod" stroke="none" points="193.5,-85 193.5,-141 372.5,-141 372.5,-85 193.5,-85"/>
<polygon fill="#698b22" stroke="none" points="194,-124 194,-141 373,-141 373,-124 194,-124"/>
<text text-anchor="start" x="247" y="-131.6" font-family="Helvetica,sans-Serif" font-size="8.00"> &#160;&#160;&#160;&#160;&#160;</text>
<text text-anchor="start" x="261" y="-131.6" font-family="Helvetica Bold" font-size="8.00" fill="white"> &#160;&#160;&#160;&#160;&#160;Contact &#160;&#160;&#160;&#160;&#160;</text>
<text text-anchor="start" x="196" y="-116.6" font-family="Helvetica,sans-Serif" font-size="8.00"> &#160;&#160;&#160;&#160;&#160;</text>
<text text-anchor="start" x="210" y="-116.6" font-family="Helvetica Bold" font-size="8.00">id</text>
<text text-anchor="start" x="218" y="-116.6" font-family="Helvetica,sans-Serif" font-size="8.00"> &#160;&#160;&#160;&#160;&#160;</text>
<text text-anchor="start" x="281" y="-116.6" font-family="Helvetica,sans-Serif" font-size="8.00"> &#160;&#160;&#160;&#160;&#160;</text>
<text text-anchor="start" x="295" y="-116.6" font-family="Helvetica Bold" font-size="8.00">AutoField</text>
<text text-anchor="start" x="335" y="-116.6" font-family="Helvetica,sans-Serif" font-size="8.00"> &#160;&#160;&#160;&#160;&#160;</text>
<text text-anchor="start" x="196" y="-103.6" font-family="Helvetica,sans-Serif" font-size="8.00"> &#160;&#160;&#160;&#160;&#160;</text>
<text text-anchor="start" x="210" y="-103.6" font-family="Helvetica Bold" font-size="8.00">content_type</text>
<text text-anchor="start" x="263" y="-103.6" font-family="Helvetica,sans-Serif" font-size="8.00"> &#160;&#160;&#160;&#160;&#160;</text>
<text text-anchor="start" x="281" y="-103.6" font-family="Helvetica,sans-Serif" font-size="8.00"> &#160;&#160;&#160;&#160;&#160;</text>
<text text-anchor="start" x="295" y="-103.6" font-family="Helvetica Bold" font-size="8.00">ForeignKey (id)</text>
<text text-anchor="start" x="357" y="-103.6" font-family="Helvetica,sans-Serif" font-size="8.00"> &#160;&#160;&#160;&#160;&#160;</text>
<text text-anchor="start" x="196" y="-90.6" font-family="Helvetica,sans-Serif" font-size="8.00"> &#160;&#160;&#160;&#160;&#160;</text>
<text text-anchor="start" x="210" y="-90.6" font-family="Helvetica " font-size="8.00" fill="#7b7b7b">active</text>
<text text-anchor="start" x="231" y="-90.6" font-family="Helvetica,sans-Serif" font-size="8.00"> &#160;&#160;&#160;&#160;&#160;</text>
<text text-anchor="start" x="281" y="-90.6" font-family="Helvetica,sans-Serif" font-size="8.00"> &#160;&#160;&#160;&#160;&#160;</text>
<text text-anchor="start" x="295" y="-90.6" font-family="Helvetica " font-size="8.00" fill="#7b7b7b">BooleanField</text>
<text text-anchor="start" x="342" y="-90.6" font-family="Helvetica,sans-Serif" font-size="8.00"> &#160;&#160;&#160;&#160;&#160;</text>
</g>
<!-- django_contrib_contenttypes_models_ContentType -->
<g id="node8" class="node"><title>django_contrib_contenttypes_models_ContentType</title>
<polygon fill="palegoldenrod" stroke="none" points="248,-9.5 248,-26.5 318,-26.5 318,-9.5 248,-9.5"/>
<polygon fill="#698b22" stroke="none" points="248,-9 248,-26 318,-26 318,-9 248,-9"/>
<text text-anchor="start" x="252" y="-16.6" font-family="Helvetica,sans-Serif" font-size="8.00"> &#160;</text>
<text text-anchor="start" x="257" y="-16.6" font-family="Helvetica Bold" font-size="8.00" fill="white">ContentType</text>
<text text-anchor="start" x="309" y="-16.6" font-family="Helvetica,sans-Serif" font-size="8.00"> &#160;</text>
</g>
<!-- pdc_apps_contact_models_Contact&#45;&gt;django_contrib_contenttypes_models_ContentType -->
<g id="edge9" class="edge"><title>pdc_apps_contact_models_Contact&#45;&gt;django_contrib_contenttypes_models_ContentType</title>
<path fill="none" stroke="black" d="M283,-72.566C283,-59.855 283,-46.423 283,-36.189"/>
<ellipse fill="black" stroke="black" cx="283" cy="-76.774" rx="4" ry="4"/>
<text text-anchor="middle" x="323" y="-56.6" font-family="Helvetica,sans-Serif" font-size="8.00">content_type (contact)</text>
</g>
<!-- pdc_apps_contact_models_Person -->
<g id="node3" class="node"><title>pdc_apps_contact_models_Person</title>
<polygon fill="palegoldenrod" stroke="none" points="240.5,-200.5 240.5,-256.5 419.5,-256.5 419.5,-200.5 240.5,-200.5"/>
<polygon fill="#698b22" stroke="none" points="241,-239.5 241,-256.5 420,-256.5 420,-239.5 241,-239.5"/>
<text text-anchor="start" x="296" y="-247.1" font-family="Helvetica,sans-Serif" font-size="8.00"> &#160;&#160;&#160;&#160;&#160;</text>
<text text-anchor="start" x="310" y="-247.1" font-family="Helvetica Bold" font-size="8.00" fill="white"> &#160;&#160;&#160;&#160;&#160;Person &#160;&#160;&#160;&#160;&#160;</text>
<text text-anchor="start" x="243" y="-232.1" font-family="Helvetica,sans-Serif" font-size="8.00"> &#160;&#160;&#160;&#160;&#160;</text>
<text text-anchor="start" x="257" y="-232.1" font-family="Helvetica Bold" font-size="8.00">contact</text>
<text text-anchor="start" x="288" y="-232.1" font-family="Helvetica,sans-Serif" font-size="8.00"> &#160;&#160;&#160;&#160;&#160;</text>
<text text-anchor="start" x="312" y="-232.1" font-family="Helvetica,sans-Serif" font-size="8.00"> &#160;&#160;&#160;&#160;&#160;</text>
<text text-anchor="start" x="326" y="-232.1" font-family="Helvetica Bold" font-size="8.00">OneToOneField (id)</text>
<text text-anchor="start" x="404" y="-232.1" font-family="Helvetica,sans-Serif" font-size="8.00"> &#160;&#160;&#160;&#160;&#160;</text>
<text text-anchor="start" x="243" y="-219.1" font-family="Helvetica,sans-Serif" font-size="8.00"> &#160;&#160;&#160;&#160;&#160;</text>
<text text-anchor="start" x="257" y="-219.1" font-family="Helvetica " font-size="8.00">email</text>
<text text-anchor="start" x="276" y="-219.1" font-family="Helvetica,sans-Serif" font-size="8.00"> &#160;&#160;&#160;&#160;&#160;</text>
<text text-anchor="start" x="312" y="-219.1" font-family="Helvetica,sans-Serif" font-size="8.00"> &#160;&#160;&#160;&#160;&#160;</text>
<text text-anchor="start" x="326" y="-219.1" font-family="Helvetica " font-size="8.00">EmailField</text>
<text text-anchor="start" x="363" y="-219.1" font-family="Helvetica,sans-Serif" font-size="8.00"> &#160;&#160;&#160;&#160;&#160;</text>
<text text-anchor="start" x="243" y="-206.1" font-family="Helvetica,sans-Serif" font-size="8.00"> &#160;&#160;&#160;&#160;&#160;</text>
<text text-anchor="start" x="257" y="-206.1" font-family="Helvetica " font-size="8.00">username</text>
<text text-anchor="start" x="294" y="-206.1" font-family="Helvetica,sans-Serif" font-size="8.00"> &#160;&#160;&#160;&#160;&#160;</text>
<text text-anchor="start" x="312" y="-206.1" font-family="Helvetica,sans-Serif" font-size="8.00"> &#160;&#160;&#160;&#160;&#160;</text>
<text text-anchor="start" x="326" y="-206.1" font-family="Helvetica " font-size="8.00">CharField</text>
<text text-anchor="start" x="362" y="-206.1" font-family="Helvetica,sans-Serif" font-size="8.00"> &#160;&#160;&#160;&#160;&#160;</text>
</g>
<!-- pdc_apps_contact_models_Person&#45;&gt;pdc_apps_contact_models_Contact -->
<g id="edge1" class="edge"><title>pdc_apps_contact_models_Person&#45;&gt;pdc_apps_contact_models_Contact</title>
<path fill="none" stroke="black" d="M239.23,-196.36C221.81,-188.56 207.32,-180.1 202,-172 195.26,-161.73 198.49,-152.7 206.68,-145.01"/>
<text text-anchor="middle" x="231.5" y="-165.6" font-family="Helvetica,sans-Serif" font-size="8.00">contact (person)</text>
</g>
<!-- pdc_apps_contact_models_Maillist -->
<g id="node4" class="node"><title>pdc_apps_contact_models_Maillist</title>
<polygon fill="palegoldenrod" stroke="none" points="24,-200.5 24,-256.5 206,-256.5 206,-200.5 24,-200.5"/>
<polygon fill="#698b22" stroke="none" points="24,-239.5 24,-256.5 206,-256.5 206,-239.5 24,-239.5"/>
<text text-anchor="start" x="80.5" y="-247.1" font-family="Helvetica,sans-Serif" font-size="8.00"> &#160;&#160;&#160;&#160;&#160;</text>
<text text-anchor="start" x="94.5" y="-247.1" font-family="Helvetica Bold" font-size="8.00" fill="white"> &#160;&#160;&#160;&#160;&#160;Maillist &#160;&#160;&#160;&#160;&#160;</text>
<text text-anchor="start" x="26" y="-232.1" font-family="Helvetica,sans-Serif" font-size="8.00"> &#160;&#160;&#160;&#160;&#160;</text>
<text text-anchor="start" x="40" y="-232.1" font-family="Helvetica Bold" font-size="8.00">contact</text>
<text text-anchor="start" x="71" y="-232.1" font-family="Helvetica,sans-Serif" font-size="8.00"> &#160;&#160;&#160;&#160;&#160;</text>
<text text-anchor="start" x="98" y="-232.1" font-family="Helvetica,sans-Serif" font-size="8.00"> &#160;&#160;&#160;&#160;&#160;</text>
<text text-anchor="start" x="112" y="-232.1" font-family="Helvetica Bold" font-size="8.00">OneToOneField (id)</text>
<text text-anchor="start" x="190" y="-232.1" font-family="Helvetica,sans-Serif" font-size="8.00"> &#160;&#160;&#160;&#160;&#160;</text>
<text text-anchor="start" x="26" y="-219.1" font-family="Helvetica,sans-Serif" font-size="8.00"> &#160;&#160;&#160;&#160;&#160;</text>
<text text-anchor="start" x="40" y="-219.1" font-family="Helvetica " font-size="8.00">email</text>
<text text-anchor="start" x="59" y="-219.1" font-family="Helvetica,sans-Serif" font-size="8.00"> &#160;&#160;&#160;&#160;&#160;</text>
<text text-anchor="start" x="98" y="-219.1" font-family="Helvetica,sans-Serif" font-size="8.00"> &#160;&#160;&#160;&#160;&#160;</text>
<text text-anchor="start" x="112" y="-219.1" font-family="Helvetica " font-size="8.00">EmailField</text>
<text text-anchor="start" x="149" y="-219.1" font-family="Helvetica,sans-Serif" font-size="8.00"> &#160;&#160;&#160;&#160;&#160;</text>
<text text-anchor="start" x="26" y="-206.1" font-family="Helvetica,sans-Serif" font-size="8.00"> &#160;&#160;&#160;&#160;&#160;</text>
<text text-anchor="start" x="40" y="-206.1" font-family="Helvetica " font-size="8.00">mail_name</text>
<text text-anchor="start" x="80" y="-206.1" font-family="Helvetica,sans-Serif" font-size="8.00"> &#160;&#160;&#160;&#160;&#160;</text>
<text text-anchor="start" x="98" y="-206.1" font-family="Helvetica,sans-Serif" font-size="8.00"> &#160;&#160;&#160;&#160;&#160;</text>
<text text-anchor="start" x="112" y="-206.1" font-family="Helvetica " font-size="8.00">CharField</text>
<text text-anchor="start" x="148" y="-206.1" font-family="Helvetica,sans-Serif" font-size="8.00"> &#160;&#160;&#160;&#160;&#160;</text>
</g>
<!-- pdc_apps_contact_models_Maillist&#45;&gt;pdc_apps_contact_models_Contact -->
<g id="edge2" class="edge"><title>pdc_apps_contact_models_Maillist&#45;&gt;pdc_apps_contact_models_Contact</title>
<path fill="none" stroke="black" d="M119.56,-196.46C122.71,-184.66 128.03,-171.93 137,-163 150.36,-149.7 167.44,-140.02 185.17,-132.96"/>
<text text-anchor="middle" x="166" y="-165.6" font-family="Helvetica,sans-Serif" font-size="8.00">contact (maillist)</text>
</g>
<!-- pdc_apps_contact_models_GlobalComponentContact -->
<g id="node5" class="node"><title>pdc_apps_contact_models_GlobalComponentContact</title>
<polygon fill="palegoldenrod" stroke="none" points="664,-194 664,-263 836,-263 836,-194 664,-194"/>
<polygon fill="#698b22" stroke="none" points="664,-245.5 664,-262.5 836,-262.5 836,-245.5 664,-245.5"/>
<text text-anchor="start" x="677.5" y="-253.1" font-family="Helvetica,sans-Serif" font-size="8.00"> &#160;&#160;&#160;&#160;&#160;</text>
<text text-anchor="start" x="691.5" y="-253.1" font-family="Helvetica Bold" font-size="8.00" fill="white"> &#160;&#160;&#160;&#160;&#160;GlobalComponentContact &#160;&#160;&#160;&#160;&#160;</text>
<text text-anchor="start" x="666" y="-238.1" font-family="Helvetica,sans-Serif" font-size="8.00"> &#160;&#160;&#160;&#160;&#160;</text>
<text text-anchor="start" x="680" y="-238.1" font-family="Helvetica Bold" font-size="8.00">id</text>
<text text-anchor="start" x="688" y="-238.1" font-family="Helvetica,sans-Serif" font-size="8.00"> &#160;&#160;&#160;&#160;&#160;</text>
<text text-anchor="start" x="744" y="-238.1" font-family="Helvetica,sans-Serif" font-size="8.00"> &#160;&#160;&#160;&#160;&#160;</text>
<text text-anchor="start" x="758" y="-238.1" font-family="Helvetica Bold" font-size="8.00">AutoField</text>
<text text-anchor="start" x="798" y="-238.1" font-family="Helvetica,sans-Serif" font-size="8.00"> &#160;&#160;&#160;&#160;&#160;</text>
<text text-anchor="start" x="666" y="-225.1" font-family="Helvetica,sans-Serif" font-size="8.00"> &#160;&#160;&#160;&#160;&#160;</text>
<text text-anchor="start" x="680" y="-225.1" font-family="Helvetica Bold" font-size="8.00">component</text>
<text text-anchor="start" x="726" y="-225.1" font-family="Helvetica,sans-Serif" font-size="8.00"> &#160;&#160;&#160;&#160;&#160;</text>
<text text-anchor="start" x="744" y="-225.1" font-family="Helvetica,sans-Serif" font-size="8.00"> &#160;&#160;&#160;&#160;&#160;</text>
<text text-anchor="start" x="758" y="-225.1" font-family="Helvetica Bold" font-size="8.00">ForeignKey (id)</text>
<text text-anchor="start" x="820" y="-225.1" font-family="Helvetica,sans-Serif" font-size="8.00"> &#160;&#160;&#160;&#160;&#160;</text>
<text text-anchor="start" x="666" y="-212.1" font-family="Helvetica,sans-Serif" font-size="8.00"> &#160;&#160;&#160;&#160;&#160;</text>
<text text-anchor="start" x="680" y="-212.1" font-family="Helvetica Bold" font-size="8.00">contact</text>
<text text-anchor="start" x="711" y="-212.1" font-family="Helvetica,sans-Serif" font-size="8.00"> &#160;&#160;&#160;&#160;&#160;</text>
<text text-anchor="start" x="744" y="-212.1" font-family="Helvetica,sans-Serif" font-size="8.00"> &#160;&#160;&#160;&#160;&#160;</text>
<text text-anchor="start" x="758" y="-212.1" font-family="Helvetica Bold" font-size="8.00">ForeignKey (id)</text>
<text text-anchor="start" x="820" y="-212.1" font-family="Helvetica,sans-Serif" font-size="8.00"> &#160;&#160;&#160;&#160;&#160;</text>
<text text-anchor="start" x="666" y="-199.1" font-family="Helvetica,sans-Serif" font-size="8.00"> &#160;&#160;&#160;&#160;&#160;</text>
<text text-anchor="start" x="680" y="-199.1" font-family="Helvetica Bold" font-size="8.00">role</text>
<text text-anchor="start" x="696" y="-199.1" font-family="Helvetica,sans-Serif" font-size="8.00"> &#160;&#160;&#160;&#160;&#160;</text>
<text text-anchor="start" x="744" y="-199.1" font-family="Helvetica,sans-Serif" font-size="8.00"> &#160;&#160;&#160;&#160;&#160;</text>
<text text-anchor="start" x="758" y="-199.1" font-family="Helvetica Bold" font-size="8.00">ForeignKey (id)</text>
<text text-anchor="start" x="820" y="-199.1" font-family="Helvetica,sans-Serif" font-size="8.00"> &#160;&#160;&#160;&#160;&#160;</text>
</g>
<!-- pdc_apps_contact_models_GlobalComponentContact&#45;&gt;pdc_apps_contact_models_ContactRole -->
<g id="edge3" class="edge"><title>pdc_apps_contact_models_GlobalComponentContact&#45;&gt;pdc_apps_contact_models_ContactRole</title>
<path fill="none" stroke="black" d="M664.57,-183.75C661.34,-180.11 658.44,-176.2 656,-172 651.34,-163.99 649.9,-154.25 649.96,-145.05"/>
<ellipse fill="black" stroke="black" cx="667.523" cy="-186.77" rx="4.00002" ry="4.00002"/>
<text text-anchor="middle" x="710.5" y="-165.6" font-family="Helvetica,sans-Serif" font-size="8.00">role (globalcomponentcontact)</text>
</g>
<!-- pdc_apps_contact_models_GlobalComponentContact&#45;&gt;pdc_apps_contact_models_Contact -->
<g id="edge4" class="edge"><title>pdc_apps_contact_models_GlobalComponentContact&#45;&gt;pdc_apps_contact_models_Contact</title>
<path fill="none" stroke="black" d="M647.81,-190.18C647.54,-190.12 647.27,-190.06 647,-190 548.11,-168.49 518.31,-196.04 420,-172 394.53,-165.77 367.73,-155.37 344.64,-145.07"/>
<ellipse fill="black" stroke="black" cx="651.828" cy="-191.135" rx="4.00001" ry="4.00001"/>
<text text-anchor="middle" x="480.5" y="-165.6" font-family="Helvetica,sans-Serif" font-size="8.00">contact (globalcomponentcontact)</text>
</g>
<!-- pdc_apps_component_models_GlobalComponent -->
<g id="node9" class="node"><title>pdc_apps_component_models_GlobalComponent</title>
<polygon fill="palegoldenrod" stroke="none" points="1074,-104.5 1074,-121.5 1166,-121.5 1166,-104.5 1074,-104.5"/>
<polygon fill="#698b22" stroke="none" points="1074,-104 1074,-121 1166,-121 1166,-104 1074,-104"/>
<text text-anchor="start" x="1078.5" y="-111.6" font-family="Helvetica,sans-Serif" font-size="8.00"> &#160;</text>
<text text-anchor="start" x="1083.5" y="-111.6" font-family="Helvetica Bold" font-size="8.00" fill="white">GlobalComponent</text>
<text text-anchor="start" x="1156.5" y="-111.6" font-family="Helvetica,sans-Serif" font-size="8.00"> &#160;</text>
</g>
<!-- pdc_apps_contact_models_GlobalComponentContact&#45;&gt;pdc_apps_component_models_GlobalComponent -->
<g id="edge10" class="edge"><title>pdc_apps_contact_models_GlobalComponentContact&#45;&gt;pdc_apps_component_models_GlobalComponent</title>
<path fill="none" stroke="black" d="M851.88,-190.25C852.26,-190.17 852.63,-190.08 853,-190 935.31,-171.42 963.24,-202.29 1042,-172 1065.5,-162.97 1088,-144.81 1102.8,-131.2"/>
<ellipse fill="black" stroke="black" cx="847.894" cy="-191.233" rx="4.00001" ry="4.00001"/>
<text text-anchor="middle" x="1126.5" y="-165.6" font-family="Helvetica,sans-Serif" font-size="8.00">component (globalcomponentcontact)</text>
</g>
<!-- pdc_apps_contact_models_ReleaseComponentContact -->
<g id="node6" class="node"><title>pdc_apps_contact_models_ReleaseComponentContact</title>
<polygon fill="palegoldenrod" stroke="none" points="870,-194 870,-263 1042,-263 1042,-194 870,-194"/>
<polygon fill="#698b22" stroke="none" points="870,-245.5 870,-262.5 1042,-262.5 1042,-245.5 870,-245.5"/>
<text text-anchor="start" x="881" y="-253.1" font-family="Helvetica,sans-Serif" font-size="8.00"> &#160;&#160;&#160;&#160;&#160;</text>
<text text-anchor="start" x="895" y="-253.1" font-family="Helvetica Bold" font-size="8.00" fill="white"> &#160;&#160;&#160;&#160;&#160;ReleaseComponentContact &#160;&#160;&#160;&#160;&#160;</text>
<text text-anchor="start" x="872" y="-238.1" font-family="Helvetica,sans-Serif" font-size="8.00"> &#160;&#160;&#160;&#160;&#160;</text>
<text text-anchor="start" x="886" y="-238.1" font-family="Helvetica Bold" font-size="8.00">id</text>
<text text-anchor="start" x="894" y="-238.1" font-family="Helvetica,sans-Serif" font-size="8.00"> &#160;&#160;&#160;&#160;&#160;</text>
<text text-anchor="start" x="950" y="-238.1" font-family="Helvetica,sans-Serif" font-size="8.00"> &#160;&#160;&#160;&#160;&#160;</text>
<text text-anchor="start" x="964" y="-238.1" font-family="Helvetica Bold" font-size="8.00">AutoField</text>
<text text-anchor="start" x="1004" y="-238.1" font-family="Helvetica,sans-Serif" font-size="8.00"> &#160;&#160;&#160;&#160;&#160;</text>
<text text-anchor="start" x="872" y="-225.1" font-family="Helvetica,sans-Serif" font-size="8.00"> &#160;&#160;&#160;&#160;&#160;</text>
<text text-anchor="start" x="886" y="-225.1" font-family="Helvetica Bold" font-size="8.00">component</text>
<text text-anchor="start" x="932" y="-225.1" font-family="Helvetica,sans-Serif" font-size="8.00"> &#160;&#160;&#160;&#160;&#160;</text>
<text text-anchor="start" x="950" y="-225.1" font-family="Helvetica,sans-Serif" font-size="8.00"> &#160;&#160;&#160;&#160;&#160;</text>
<text text-anchor="start" x="964" y="-225.1" font-family="Helvetica Bold" font-size="8.00">ForeignKey (id)</text>
<text text-anchor="start" x="1026" y="-225.1" font-family="Helvetica,sans-Serif" font-size="8.00"> &#160;&#160;&#160;&#160;&#160;</text>
<text text-anchor="start" x="872" y="-212.1" font-family="Helvetica,sans-Serif" font-size="8.00"> &#160;&#160;&#160;&#160;&#160;</text>
<text text-anchor="start" x="886" y="-212.1" font-family="Helvetica Bold" font-size="8.00">contact</text>
<text text-anchor="start" x="917" y="-212.1" font-family="Helvetica,sans-Serif" font-size="8.00"> &#160;&#160;&#160;&#160;&#160;</text>
<text text-anchor="start" x="950" y="-212.1" font-family="Helvetica,sans-Serif" font-size="8.00"> &#160;&#160;&#160;&#160;&#160;</text>
<text text-anchor="start" x="964" y="-212.1" font-family="Helvetica Bold" font-size="8.00">ForeignKey (id)</text>
<text text-anchor="start" x="1026" y="-212.1" font-family="Helvetica,sans-Serif" font-size="8.00"> &#160;&#160;&#160;&#160;&#160;</text>
<text text-anchor="start" x="872" y="-199.1" font-family="Helvetica,sans-Serif" font-size="8.00"> &#160;&#160;&#160;&#160;&#160;</text>
<text text-anchor="start" x="886" y="-199.1" font-family="Helvetica Bold" font-size="8.00">role</text>
<text text-anchor="start" x="902" y="-199.1" font-family="Helvetica,sans-Serif" font-size="8.00"> &#160;&#160;&#160;&#160;&#160;</text>
<text text-anchor="start" x="950" y="-199.1" font-family="Helvetica,sans-Serif" font-size="8.00"> &#160;&#160;&#160;&#160;&#160;</text>
<text text-anchor="start" x="964" y="-199.1" font-family="Helvetica Bold" font-size="8.00">ForeignKey (id)</text>
<text text-anchor="start" x="1026" y="-199.1" font-family="Helvetica,sans-Serif" font-size="8.00"> &#160;&#160;&#160;&#160;&#160;</text>
</g>
<!-- pdc_apps_contact_models_ReleaseComponentContact&#45;&gt;pdc_apps_contact_models_ContactRole -->
<g id="edge5" class="edge"><title>pdc_apps_contact_models_ReleaseComponentContact&#45;&gt;pdc_apps_contact_models_ContactRole</title>
<path fill="none" stroke="black" d="M933.75,-182.72C928.22,-175.16 921.65,-168.13 914,-163 885.34,-143.8 800.62,-130.22 735.81,-122.3"/>
<ellipse fill="black" stroke="black" cx="936.281" cy="-186.442" rx="4.00002" ry="4.00002"/>
<text text-anchor="middle" x="981" y="-165.6" font-family="Helvetica,sans-Serif" font-size="8.00">role (releasecomponentcontact)</text>
</g>
<!-- pdc_apps_contact_models_ReleaseComponentContact&#45;&gt;pdc_apps_contact_models_Contact -->
<g id="edge6" class="edge"><title>pdc_apps_contact_models_ReleaseComponentContact&#45;&gt;pdc_apps_contact_models_Contact</title>
<path fill="none" stroke="black" d="M854.09,-190.34C853.73,-190.23 853.36,-190.11 853,-190 822.74,-180.57 813.78,-182.83 784,-172 775.22,-168.81 774.02,-165.46 765,-163 678.89,-139.53 653.81,-153.88 565,-145 503.62,-138.86 434.79,-131.31 380.51,-125.2"/>
<ellipse fill="black" stroke="black" cx="858.01" cy="-191.592" rx="4.00001" ry="4.00001"/>
<text text-anchor="middle" x="847" y="-165.6" font-family="Helvetica,sans-Serif" font-size="8.00">contact (releasecomponentcontact)</text>
</g>
<!-- pdc_apps_component_models_ReleaseComponent -->
<g id="node10" class="node"><title>pdc_apps_component_models_ReleaseComponent</title>
<polygon fill="palegoldenrod" stroke="none" points="1215,-104.5 1215,-121.5 1311,-121.5 1311,-104.5 1215,-104.5"/>
<polygon fill="#698b22" stroke="none" points="1215,-104 1215,-121 1311,-121 1311,-104 1215,-104"/>
<text text-anchor="start" x="1219" y="-111.6" font-family="Helvetica,sans-Serif" font-size="8.00"> &#160;</text>
<text text-anchor="start" x="1224" y="-111.6" font-family="Helvetica Bold" font-size="8.00" fill="white">ReleaseComponent</text>
<text text-anchor="start" x="1302" y="-111.6" font-family="Helvetica,sans-Serif" font-size="8.00"> &#160;</text>
</g>
<!-- pdc_apps_contact_models_ReleaseComponentContact&#45;&gt;pdc_apps_component_models_ReleaseComponent -->
<g id="edge11" class="edge"><title>pdc_apps_contact_models_ReleaseComponentContact&#45;&gt;pdc_apps_component_models_ReleaseComponent</title>
<path fill="none" stroke="black" d="M1058.2,-218.1C1128.3,-209.72 1213.5,-195.15 1241,-172 1253.1,-161.8 1258.6,-144.19 1261,-131.04"/>
<ellipse fill="black" stroke="black" cx="1054.07" cy="-218.579" rx="4.00001" ry="4.00001"/>
<text text-anchor="middle" x="1318" y="-165.6" font-family="Helvetica,sans-Serif" font-size="8.00">component (releasecomponentcontact)</text>
</g>
<!-- pdc_apps_contact_models_RoleContact -->
<g id="node7" class="node"><title>pdc_apps_contact_models_RoleContact</title>
<polygon fill="palegoldenrod" stroke="none" points="454,-200.5 454,-256.5 630,-256.5 630,-200.5 454,-200.5"/>
<polygon fill="#698b22" stroke="none" points="454,-239.5 454,-256.5 630,-256.5 630,-239.5 454,-239.5"/>
<text text-anchor="start" x="496.5" y="-247.1" font-family="Helvetica,sans-Serif" font-size="8.00"> &#160;&#160;&#160;&#160;&#160;</text>
<text text-anchor="start" x="510.5" y="-247.1" font-family="Helvetica Bold" font-size="8.00" fill="white"> &#160;&#160;&#160;&#160;&#160;RoleContact &#160;&#160;&#160;&#160;&#160;</text>
<text text-anchor="start" x="456" y="-232.1" font-family="Helvetica,sans-Serif" font-size="8.00"> &#160;&#160;&#160;&#160;&#160;</text>
<text text-anchor="start" x="470" y="-232.1" font-family="Helvetica Bold" font-size="8.00">id</text>
<text text-anchor="start" x="478" y="-232.1" font-family="Helvetica,sans-Serif" font-size="8.00"> &#160;&#160;&#160;&#160;&#160;</text>
<text text-anchor="start" x="538" y="-232.1" font-family="Helvetica,sans-Serif" font-size="8.00"> &#160;&#160;&#160;&#160;&#160;</text>
<text text-anchor="start" x="552" y="-232.1" font-family="Helvetica Bold" font-size="8.00">AutoField</text>
<text text-anchor="start" x="592" y="-232.1" font-family="Helvetica,sans-Serif" font-size="8.00"> &#160;&#160;&#160;&#160;&#160;</text>
<text text-anchor="start" x="456" y="-219.1" font-family="Helvetica,sans-Serif" font-size="8.00"> &#160;&#160;&#160;&#160;&#160;</text>
<text text-anchor="start" x="470" y="-219.1" font-family="Helvetica Bold" font-size="8.00">contact</text>
<text text-anchor="start" x="501" y="-219.1" font-family="Helvetica,sans-Serif" font-size="8.00"> &#160;&#160;&#160;&#160;&#160;</text>
<text text-anchor="start" x="538" y="-219.1" font-family="Helvetica,sans-Serif" font-size="8.00"> &#160;&#160;&#160;&#160;&#160;</text>
<text text-anchor="start" x="552" y="-219.1" font-family="Helvetica Bold" font-size="8.00">ForeignKey (id)</text>
<text text-anchor="start" x="614" y="-219.1" font-family="Helvetica,sans-Serif" font-size="8.00"> &#160;&#160;&#160;&#160;&#160;</text>
<text text-anchor="start" x="456" y="-206.1" font-family="Helvetica,sans-Serif" font-size="8.00"> &#160;&#160;&#160;&#160;&#160;</text>
<text text-anchor="start" x="470" y="-206.1" font-family="Helvetica Bold" font-size="8.00">contact_role</text>
<text text-anchor="start" x="520" y="-206.1" font-family="Helvetica,sans-Serif" font-size="8.00"> &#160;&#160;&#160;&#160;&#160;</text>
<text text-anchor="start" x="538" y="-206.1" font-family="Helvetica,sans-Serif" font-size="8.00"> &#160;&#160;&#160;&#160;&#160;</text>
<text text-anchor="start" x="552" y="-206.1" font-family="Helvetica Bold" font-size="8.00">ForeignKey (id)</text>
<text text-anchor="start" x="614" y="-206.1" font-family="Helvetica,sans-Serif" font-size="8.00"> &#160;&#160;&#160;&#160;&#160;</text>
</g>
<!-- pdc_apps_contact_models_RoleContact&#45;&gt;pdc_apps_contact_models_ContactRole -->
<g id="edge7" class="edge"><title>pdc_apps_contact_models_RoleContact&#45;&gt;pdc_apps_contact_models_ContactRole</title>
<path fill="none" stroke="black" d="M539.94,-188.21C541.11,-179.28 543.77,-170.28 549,-163 555.68,-153.7 564.58,-146.11 574.39,-139.94"/>
<ellipse fill="black" stroke="black" cx="539.583" cy="-192.365" rx="4" ry="4"/>
<text text-anchor="middle" x="599" y="-165.6" font-family="Helvetica,sans-Serif" font-size="8.00">contact_role (role_contacts)</text>
</g>
<!-- pdc_apps_contact_models_RoleContact&#45;&gt;pdc_apps_contact_models_Contact -->
<g id="edge8" class="edge"><title>pdc_apps_contact_models_RoleContact&#45;&gt;pdc_apps_contact_models_Contact</title>
<path fill="none" stroke="black" d="M451.93,-194.12C446.57,-192.61 441.24,-191.22 436,-190 402.87,-182.28 306.81,-197.23 284,-172 277.52,-164.83 275.75,-154.88 276.09,-145.24"/>
<ellipse fill="black" stroke="black" cx="455.941" cy="-195.295" rx="4.00001" ry="4.00001"/>
<text text-anchor="middle" x="325" y="-165.6" font-family="Helvetica,sans-Serif" font-size="8.00">contact (role_contacts)</text>
</g>
</g>
</svg>
