<?xml version="1.0" encoding="UTF-8" standalone="no"?>
<!DOCTYPE svg PUBLIC "-//W3C//DTD SVG 1.1//EN"
 "http://www.w3.org/Graphics/SVG/1.1/DTD/svg11.dtd">
<!-- Generated by graphviz version 2.38.0 (20140413.2041)
 -->
<!-- Title: model_graph Pages: 1 -->
<svg width="228pt" height="190pt"
 viewBox="0.00 0.00 228.00 190.00" xmlns="http://www.w3.org/2000/svg" xmlns:xlink="http://www.w3.org/1999/xlink">
<g id="graph0" class="graph" transform="scale(1 1) rotate(0) translate(-4 186)">
<title>model_graph</title>
<polygon fill="white" stroke="none" points="4,4 4,-186 232,-186 232,4 4,4"/>
<g id="clust1" class="cluster"><title>cluster_pdc_apps_osbs_models</title>
<path fill="none" stroke="#698b22" d="M20,-73C20,-73 216,-73 216,-73 222,-73 228,-79 228,-85 228,-85 228,-170 228,-170 228,-176 222,-182 216,-182 216,-182 20,-182 20,-182 14,-182 8,-176 8,-170 8,-170 8,-85 8,-85 8,-79 14,-73 20,-73"/>
<text text-anchor="start" x="22.5" y="-164.9" font-family="Helvetica,sans-Serif" font-size="8.00"> &#160;&#160;&#160;&#160;&#160;&#160;&#160;&#160;&#160;</text>
<text text-anchor="start" x="45.5" y="-164.9" font-family="Helvetica Bold" font-size="12.00"> &#160;&#160;&#160;&#160;&#160;&#160;&#160;&#160;&#160;pdc.apps.osbs &#160;&#160;&#160;&#160;&#160;&#160;&#160;&#160;&#160;</text>
<text text-anchor="start" x="190.5" y="-164.9" font-family="Helvetica,sans-Serif" font-size="8.00"> &#160;&#160;&#160;&#160;&#160;&#160;&#160;&#160;&#160;</text>
</g>
<!-- pdc_apps_osbs_models_OSBSRecord -->
<g id="node1" class="node"><title>pdc_apps_osbs_models_OSBSRecord</title>
<polygon fill="palegoldenrod" stroke="none" points="24,-85 24,-141 212,-141 212,-85 24,-85"/>
<polygon fill="#698b22" stroke="none" points="24,-124 24,-141 212,-141 212,-124 24,-124"/>
<text text-anchor="start" x="71.5" y="-131.6" font-family="Helvetica,sans-Serif" font-size="8.00"> &#160;&#160;&#160;&#160;&#160;</text>
<text text-anchor="start" x="85.5" y="-131.6" font-family="Helvetica Bold" font-size="8.00" fill="white"> &#160;&#160;&#160;&#160;&#160;OSBSRecord &#160;&#160;&#160;&#160;&#160;</text>
<text text-anchor="start" x="26" y="-116.6" font-family="Helvetica,sans-Serif" font-size="8.00"> &#160;&#160;&#160;&#160;&#160;</text>
<text text-anchor="start" x="40" y="-116.6" font-family="Helvetica Bold" font-size="8.00">id</text>
<text text-anchor="start" x="48" y="-116.6" font-family="Helvetica,sans-Serif" font-size="8.00"> &#160;&#160;&#160;&#160;&#160;</text>
<text text-anchor="start" x="104" y="-116.6" font-family="Helvetica,sans-Serif" font-size="8.00"> &#160;&#160;&#160;&#160;&#160;</text>
<text text-anchor="start" x="118" y="-116.6" font-family="Helvetica Bold" font-size="8.00">AutoField</text>
<text text-anchor="start" x="158" y="-116.6" font-family="Helvetica,sans-Serif" font-size="8.00"> &#160;&#160;&#160;&#160;&#160;</text>
<text text-anchor="start" x="26" y="-103.6" font-family="Helvetica,sans-Serif" font-size="8.00"> &#160;&#160;&#160;&#160;&#160;</text>
<text text-anchor="start" x="40" y="-103.6" font-family="Helvetica Bold" font-size="8.00">component</text>
<text text-anchor="start" x="86" y="-103.6" font-family="Helvetica,sans-Serif" font-size="8.00"> &#160;&#160;&#160;&#160;&#160;</text>
<text text-anchor="start" x="104" y="-103.6" font-family="Helvetica,sans-Serif" font-size="8.00"> &#160;&#160;&#160;&#160;&#160;</text>
<text text-anchor="start" x="118" y="-103.6" font-family="Helvetica Bold" font-size="8.00">OneToOneField (id)</text>
<text text-anchor="start" x="196" y="-103.6" font-family="Helvetica,sans-Serif" font-size="8.00"> &#160;&#160;&#160;&#160;&#160;</text>
<text text-anchor="start" x="26" y="-90.6" font-family="Helvetica,sans-Serif" font-size="8.00"> &#160;&#160;&#160;&#160;&#160;</text>
<text text-anchor="start" x="40" y="-90.6" font-family="Helvetica " font-size="8.00" fill="#7b7b7b">autorebuild</text>
<text text-anchor="start" x="80" y="-90.6" font-family="Helvetica,sans-Serif" font-size="8.00"> &#160;&#160;&#160;&#160;&#160;</text>
<text text-anchor="start" x="104" y="-90.6" font-family="Helvetica,sans-Serif" font-size="8.00"> &#160;&#160;&#160;&#160;&#160;</text>
<text text-anchor="start" x="118" y="-90.6" font-family="Helvetica " font-size="8.00" fill="#7b7b7b">NullBooleanField</text>
<text text-anchor="start" x="179" y="-90.6" font-family="Helvetica,sans-Serif" font-size="8.00"> &#160;&#160;&#160;&#160;&#160;</text>
</g>
<!-- pdc_apps_component_models_ReleaseComponent -->
<g id="node2" class="node"><title>pdc_apps_component_models_ReleaseComponent</title>
<polygon fill="palegoldenrod" stroke="none" points="70,-9.5 70,-26.5 166,-26.5 166,-9.5 70,-9.5"/>
<polygon fill="#698b22" stroke="none" points="70,-9 70,-26 166,-26 166,-9 70,-9"/>
<text text-anchor="start" x="74" y="-16.6" font-family="Helvetica,sans-Serif" font-size="8.00"> &#160;</text>
<text text-anchor="start" x="79" y="-16.6" font-family="Helvetica Bold" font-size="8.00" fill="white">ReleaseComponent</text>
<text text-anchor="start" x="157" y="-16.6" font-family="Helvetica,sans-Serif" font-size="8.00"> &#160;</text>
</g>
<!-- pdc_apps_osbs_models_OSBSRecord&#45;&gt;pdc_apps_component_models_ReleaseComponent -->
<g id="edge1" class="edge"><title>pdc_apps_osbs_models_OSBSRecord&#45;&gt;pdc_apps_component_models_ReleaseComponent</title>
<path fill="none" stroke="black" d="M118,-80.774C118,-65.893 118,-48.665 118,-36.189"/>
<text text-anchor="middle" x="150.5" y="-56.6" font-family="Helvetica,sans-Serif" font-size="8.00">component (osbs)</text>
</g>
</g>
</svg>
