<?xml version="1.0" encoding="UTF-8" standalone="no"?>
<!DOCTYPE svg PUBLIC "-//W3C//DTD SVG 1.1//EN"
 "http://www.w3.org/Graphics/SVG/1.1/DTD/svg11.dtd">
<!-- Generated by graphviz version 2.38.0 (20140413.2041)
 -->
<!-- Title: model_graph Pages: 1 -->
<svg width="230pt" height="216pt"
 viewBox="0.00 0.00 230.00 216.00" xmlns="http://www.w3.org/2000/svg" xmlns:xlink="http://www.w3.org/1999/xlink">
<g id="graph0" class="graph" transform="scale(1 1) rotate(0) translate(-4 212)">
<title>model_graph</title>
<polygon fill="white" stroke="none" points="4,4 4,-212 234,-212 234,4 4,4"/>
<g id="clust1" class="cluster"><title>cluster_pdc_apps_usage_models</title>
<path fill="none" stroke="#698b22" d="M20,-73C20,-73 218,-73 218,-73 224,-73 230,-79 230,-85 230,-85 230,-196 230,-196 230,-202 224,-208 218,-208 218,-208 20,-208 20,-208 14,-208 8,-202 8,-196 8,-196 8,-85 8,-85 8,-79 14,-73 20,-73"/>
<text text-anchor="start" x="20" y="-190.9" font-family="Helvetica,sans-Serif" font-size="8.00"> &#160;&#160;&#160;&#160;&#160;&#160;&#160;&#160;&#160;</text>
<text text-anchor="start" x="43" y="-190.9" font-family="Helvetica Bold" font-size="12.00"> &#160;&#160;&#160;&#160;&#160;&#160;&#160;&#160;&#160;pdc.apps.usage &#160;&#160;&#160;&#160;&#160;&#160;&#160;&#160;&#160;</text>
<text text-anchor="start" x="195" y="-190.9" font-family="Helvetica,sans-Serif" font-size="8.00"> &#160;&#160;&#160;&#160;&#160;&#160;&#160;&#160;&#160;</text>
</g>
<!-- pdc_apps_usage_models_ResourceUsage -->
<g id="node1" class="node"><title>pdc_apps_usage_models_ResourceUsage</title>
<polygon fill="palegoldenrod" stroke="none" points="40,-85 40,-167 198,-167 198,-85 40,-85"/>
<polygon fill="#698b22" stroke="none" points="40,-150 40,-167 198,-167 198,-150 40,-150"/>
<text text-anchor="start" x="67" y="-157.6" font-family="Helvetica,sans-Serif" font-size="8.00"> &#160;&#160;&#160;&#160;&#160;</text>
<text text-anchor="start" x="81" y="-157.6" font-family="Helvetica Bold" font-size="8.00" fill="white"> &#160;&#160;&#160;&#160;&#160;ResourceUsage &#160;&#160;&#160;&#160;&#160;</text>
<text text-anchor="start" x="42" y="-142.6" font-family="Helvetica,sans-Serif" font-size="8.00"> &#160;&#160;&#160;&#160;&#160;</text>
<text text-anchor="start" x="56" y="-142.6" font-family="Helvetica Bold" font-size="8.00">id</text>
<text text-anchor="start" x="64" y="-142.6" font-family="Helvetica,sans-Serif" font-size="8.00"> &#160;&#160;&#160;&#160;&#160;</text>
<text text-anchor="start" x="106" y="-142.6" font-family="Helvetica,sans-Serif" font-size="8.00"> &#160;&#160;&#160;&#160;&#160;</text>
<text text-anchor="start" x="120" y="-142.6" font-family="Helvetica Bold" font-size="8.00">AutoField</text>
<text text-anchor="start" x="160" y="-142.6" font-family="Helvetica,sans-Serif" font-size="8.00"> &#160;&#160;&#160;&#160;&#160;</text>
<text text-anchor="start" x="42" y="-129.6" font-family="Helvetica,sans-Serif" font-size="8.00"> &#160;&#160;&#160;&#160;&#160;</text>
<text text-anchor="start" x="56" y="-129.6" font-family="Helvetica Bold" font-size="8.00" fill="#7b7b7b">user</text>
<text text-anchor="start" x="74" y="-129.6" font-family="Helvetica,sans-Serif" font-size="8.00"> &#160;&#160;&#160;&#160;&#160;</text>
<text text-anchor="start" x="106" y="-129.6" font-family="Helvetica,sans-Serif" font-size="8.00"> &#160;&#160;&#160;&#160;&#160;</text>
<text text-anchor="start" x="120" y="-129.6" font-family="Helvetica Bold" font-size="8.00" fill="#7b7b7b">ForeignKey (id)</text>
<text text-anchor="start" x="182" y="-129.6" font-family="Helvetica,sans-Serif" font-size="8.00"> &#160;&#160;&#160;&#160;&#160;</text>
<text text-anchor="start" x="42" y="-116.6" font-family="Helvetica,sans-Serif" font-size="8.00"> &#160;&#160;&#160;&#160;&#160;</text>
<text text-anchor="start" x="56" y="-116.6" font-family="Helvetica " font-size="8.00">method</text>
<text text-anchor="start" x="84" y="-116.6" font-family="Helvetica,sans-Serif" font-size="8.00"> &#160;&#160;&#160;&#160;&#160;</text>
<text text-anchor="start" x="106" y="-116.6" font-family="Helvetica,sans-Serif" font-size="8.00"> &#160;&#160;&#160;&#160;&#160;</text>
<text text-anchor="start" x="120" y="-116.6" font-family="Helvetica " font-size="8.00">CharField</text>
<text text-anchor="start" x="156" y="-116.6" font-family="Helvetica,sans-Serif" font-size="8.00"> &#160;&#160;&#160;&#160;&#160;</text>
<text text-anchor="start" x="42" y="-103.6" font-family="Helvetica,sans-Serif" font-size="8.00"> &#160;&#160;&#160;&#160;&#160;</text>
<text text-anchor="start" x="56" y="-103.6" font-family="Helvetica " font-size="8.00">resource</text>
<text text-anchor="start" x="88" y="-103.6" font-family="Helvetica,sans-Serif" font-size="8.00"> &#160;&#160;&#160;&#160;&#160;</text>
<text text-anchor="start" x="106" y="-103.6" font-family="Helvetica,sans-Serif" font-size="8.00"> &#160;&#160;&#160;&#160;&#160;</text>
<text text-anchor="start" x="120" y="-103.6" font-family="Helvetica " font-size="8.00">CharField</text>
<text text-anchor="start" x="156" y="-103.6" font-family="Helvetica,sans-Serif" font-size="8.00"> &#160;&#160;&#160;&#160;&#160;</text>
<text text-anchor="start" x="42" y="-90.6" font-family="Helvetica,sans-Serif" font-size="8.00"> &#160;&#160;&#160;&#160;&#160;</text>
<text text-anchor="start" x="56" y="-90.6" font-family="Helvetica " font-size="8.00">time</text>
<text text-anchor="start" x="72" y="-90.6" font-family="Helvetica,sans-Serif" font-size="8.00"> &#160;&#160;&#160;&#160;&#160;</text>
<text text-anchor="start" x="106" y="-90.6" font-family="Helvetica,sans-Serif" font-size="8.00"> &#160;&#160;&#160;&#160;&#160;</text>
<text text-anchor="start" x="120" y="-90.6" font-family="Helvetica " font-size="8.00">DateTimeField</text>
<text text-anchor="start" x="173" y="-90.6" font-family="Helvetica,sans-Serif" font-size="8.00"> &#160;&#160;&#160;&#160;&#160;</text>
</g>
<!-- pdc_apps_auth_models_User -->
<g id="node2" class="node"><title>pdc_apps_auth_models_User</title>
<polygon fill="palegoldenrod" stroke="none" points="100,-9.5 100,-26.5 138,-26.5 138,-9.5 100,-9.5"/>
<polygon fill="#698b22" stroke="none" points="100,-9 100,-26 138,-26 138,-9 100,-9"/>
<text text-anchor="start" x="104.5" y="-16.6" font-family="Helvetica,sans-Serif" font-size="8.00"> &#160;</text>
<text text-anchor="start" x="109.5" y="-16.6" font-family="Helvetica Bold" font-size="8.00" fill="white">User</text>
<text text-anchor="start" x="128.5" y="-16.6" font-family="Helvetica,sans-Serif" font-size="8.00"> &#160;</text>
</g>
<!-- pdc_apps_usage_models_ResourceUsage&#45;&gt;pdc_apps_auth_models_User -->
<g id="edge1" class="edge"><title>pdc_apps_usage_models_ResourceUsage&#45;&gt;pdc_apps_auth_models_User</title>
<path fill="none" stroke="black" d="M119,-72.746C119,-59.482 119,-46.155 119,-36.091"/>
<ellipse fill="black" stroke="black" cx="119" cy="-76.967" rx="4" ry="4"/>
<text text-anchor="middle" x="158" y="-56.6" font-family="Helvetica,sans-Serif" font-size="8.00">user (resourceusage)</text>
</g>
</g>
</svg>
