<?xml version="1.0" encoding="UTF-8" standalone="no"?>
<!DOCTYPE svg PUBLIC "-//W3C//DTD SVG 1.1//EN"
 "http://www.w3.org/Graphics/SVG/1.1/DTD/svg11.dtd">
<!-- Generated by graphviz version 2.26.3 (20100126.1600)
 -->
<!-- Title: model_graph Pages: 1 -->
<svg width="267pt" height="309pt"
 viewBox="0.00 0.00 267.00 309.00" xmlns="http://www.w3.org/2000/svg" xmlns:xlink="http://www.w3.org/1999/xlink">
<g id="graph1" class="graph" transform="scale(1 1) rotate(0) translate(4 305)">
<title>model_graph</title>
<polygon fill="white" stroke="white" points="-4,5 -4,-305 264,-305 264,5 -4,5"/>
<g id="graph2" class="cluster"><title>cluster_django_contrib_auth</title>
<polyline fill="none" stroke="#698b22" points="20,-76 239,-76 "/>
<path fill="none" stroke="#698b22" d="M239,-76C245,-76 251,-82 251,-88"/>
<polyline fill="none" stroke="#698b22" points="251,-88 251,-281 "/>
<path fill="none" stroke="#698b22" d="M251,-281C251,-287 245,-293 239,-293"/>
<polyline fill="none" stroke="#698b22" points="239,-293 20,-293 "/>
<path fill="none" stroke="#698b22" d="M20,-293C14,-293 8,-287 8,-281"/>
<polyline fill="none" stroke="#698b22" points="8,-281 8,-88 "/>
<path fill="none" stroke="#698b22" d="M8,-88C8,-82 14,-76 20,-76"/>
<text text-anchor="start" x="21" y="-274.8" font-family="Helvetica,sans-Serif" font-size="8.00"> &#160;&#160;&#160;&#160;&#160;&#160;&#160;&#160;&#160;</text>
<text text-anchor="start" x="44" y="-275.2" font-family="Helvetica Bold" font-size="12.00"> &#160;&#160;&#160;&#160;&#160;&#160;&#160;&#160;&#160;django.contrib.auth &#160;&#160;&#160;&#160;&#160;&#160;&#160;&#160;&#160;</text>
<text text-anchor="start" x="216" y="-274.8" font-family="Helvetica,sans-Serif" font-size="8.00"> &#160;&#160;&#160;&#160;&#160;&#160;&#160;&#160;&#160;</text>
</g>
<!-- django_contrib_auth_models_Permission -->
<g id="node2" class="node"><title>django_contrib_auth_models_Permission</title>
<polygon fill="palegoldenrod" stroke="palegoldenrod" points="39,-88.5 39,-153.5 219,-153.5 219,-88.5 39,-88.5"/>
<polygon fill="#698b22" stroke="#698b22" points="39,-136 39,-153 219,-153 219,-136 39,-136"/>
<text text-anchor="start" x="86.5" y="-142.633" font-family="Helvetica,sans-Serif" font-size="8.00"> &#160;&#160;&#160;&#160;&#160;</text>
<text text-anchor="start" x="100.5" y="-142.633" font-family="Helvetica Bold" font-size="8.00" fill="white"> &#160;&#160;&#160;&#160;&#160;Permission &#160;&#160;&#160;&#160;&#160;</text>
<text text-anchor="start" x="41" y="-128.133" font-family="Helvetica,sans-Serif" font-size="8.00"> &#160;&#160;&#160;&#160;&#160;</text>
<text text-anchor="start" x="55" y="-128.133" font-family="Helvetica Bold" font-size="8.00">id</text>
<text text-anchor="start" x="63" y="-128.133" font-family="Helvetica,sans-Serif" font-size="8.00"> &#160;&#160;&#160;&#160;&#160;</text>
<text text-anchor="start" x="127" y="-128.133" font-family="Helvetica,sans-Serif" font-size="8.00"> &#160;&#160;&#160;&#160;&#160;</text>
<text text-anchor="start" x="141" y="-128.133" font-family="Helvetica Bold" font-size="8.00">AutoField</text>
<text text-anchor="start" x="181" y="-128.133" font-family="Helvetica,sans-Serif" font-size="8.00"> &#160;&#160;&#160;&#160;&#160;</text>
<text text-anchor="start" x="41" y="-116.133" font-family="Helvetica,sans-Serif" font-size="8.00"> &#160;&#160;&#160;&#160;&#160;</text>
<text text-anchor="start" x="55" y="-116.133" font-family="Helvetica Bold" font-size="8.00">content_type</text>
<text text-anchor="start" x="108" y="-116.133" font-family="Helvetica,sans-Serif" font-size="8.00"> &#160;&#160;&#160;&#160;&#160;</text>
<text text-anchor="start" x="127" y="-116.133" font-family="Helvetica,sans-Serif" font-size="8.00"> &#160;&#160;&#160;&#160;&#160;</text>
<text text-anchor="start" x="141" y="-116.133" font-family="Helvetica Bold" font-size="8.00">ForeignKey (id)</text>
<text text-anchor="start" x="203" y="-116.133" font-family="Helvetica,sans-Serif" font-size="8.00"> &#160;&#160;&#160;&#160;&#160;</text>
<text text-anchor="start" x="41" y="-104.133" font-family="Helvetica,sans-Serif" font-size="8.00"> &#160;&#160;&#160;&#160;&#160;</text>
<text text-anchor="start" x="55" y="-104.133" font-family="Helvetica " font-size="8.00">codename</text>
<text text-anchor="start" x="93" y="-104.133" font-family="Helvetica,sans-Serif" font-size="8.00"> &#160;&#160;&#160;&#160;&#160;</text>
<text text-anchor="start" x="127" y="-104.133" font-family="Helvetica,sans-Serif" font-size="8.00"> &#160;&#160;&#160;&#160;&#160;</text>
<text text-anchor="start" x="141" y="-104.133" font-family="Helvetica " font-size="8.00">CharField</text>
<text text-anchor="start" x="177" y="-104.133" font-family="Helvetica,sans-Serif" font-size="8.00"> &#160;&#160;&#160;&#160;&#160;</text>
<text text-anchor="start" x="41" y="-92.1333" font-family="Helvetica,sans-Serif" font-size="8.00"> &#160;&#160;&#160;&#160;&#160;</text>
<text text-anchor="start" x="55" y="-92.1333" font-family="Helvetica " font-size="8.00">name</text>
<text text-anchor="start" x="76" y="-92.1333" font-family="Helvetica,sans-Serif" font-size="8.00"> &#160;&#160;&#160;&#160;&#160;</text>
<text text-anchor="start" x="127" y="-92.1333" font-family="Helvetica,sans-Serif" font-size="8.00"> &#160;&#160;&#160;&#160;&#160;</text>
<text text-anchor="start" x="141" y="-92.1333" font-family="Helvetica " font-size="8.00">CharField</text>
<text text-anchor="start" x="177" y="-92.1333" font-family="Helvetica,sans-Serif" font-size="8.00"> &#160;&#160;&#160;&#160;&#160;</text>
</g>
<!-- django_contrib_contenttypes_models_ContentType -->
<g id="node5" class="node"><title>django_contrib_contenttypes_models_ContentType</title>
<polygon fill="palegoldenrod" stroke="palegoldenrod" points="93.5,-9.5 93.5,-26.5 164.5,-26.5 164.5,-9.5 93.5,-9.5"/>
<polygon fill="#698b22" stroke="#698b22" points="94,-9 94,-26 165,-26 165,-9 94,-9"/>
<text text-anchor="start" x="98.5" y="-15.6333" font-family="Helvetica,sans-Serif" font-size="8.00"> &#160;</text>
<text text-anchor="start" x="103.5" y="-15.6333" font-family="Helvetica Bold" font-size="8.00" fill="white">ContentType</text>
<text text-anchor="start" x="155.5" y="-15.6333" font-family="Helvetica,sans-Serif" font-size="8.00"> &#160;</text>
</g>
<!-- django_contrib_auth_models_Permission&#45;&gt;django_contrib_contenttypes_models_ContentType -->
<g id="edge5" class="edge"><title>django_contrib_auth_models_Permission&#45;&gt;django_contrib_contenttypes_models_ContentType</title>
<path fill="none" stroke="black" d="M129,-76.168C129,-62.003 129,-47.154 129,-36.004"/>
<ellipse fill="black" stroke="black" cx="129" cy="-80.396" rx="4" ry="4"/>
<text text-anchor="middle" x="175.5" y="-58.8" font-family="Helvetica,sans-Serif" font-size="8.00">content_type (permission)</text>
</g>
<!-- django_contrib_auth_models_Group -->
<g id="node3" class="node"><title>django_contrib_auth_models_Group</title>
<polygon fill="palegoldenrod" stroke="palegoldenrod" points="66,-210.5 66,-251.5 192,-251.5 192,-210.5 66,-210.5"/>
<polygon fill="#698b22" stroke="#698b22" points="66,-234 66,-251 192,-251 192,-234 66,-234"/>
<text text-anchor="start" x="96" y="-240.633" font-family="Helvetica,sans-Serif" font-size="8.00"> &#160;&#160;&#160;&#160;&#160;</text>
<text text-anchor="start" x="110" y="-240.633" font-family="Helvetica Bold" font-size="8.00" fill="white"> &#160;&#160;&#160;&#160;&#160;Group &#160;&#160;&#160;&#160;&#160;</text>
<text text-anchor="start" x="68" y="-226.133" font-family="Helvetica,sans-Serif" font-size="8.00"> &#160;&#160;&#160;&#160;&#160;</text>
<text text-anchor="start" x="82" y="-226.133" font-family="Helvetica Bold" font-size="8.00">id</text>
<text text-anchor="start" x="90" y="-226.133" font-family="Helvetica,sans-Serif" font-size="8.00"> &#160;&#160;&#160;&#160;&#160;</text>
<text text-anchor="start" x="122" y="-226.133" font-family="Helvetica,sans-Serif" font-size="8.00"> &#160;&#160;&#160;&#160;&#160;</text>
<text text-anchor="start" x="136" y="-226.133" font-family="Helvetica Bold" font-size="8.00">AutoField</text>
<text text-anchor="start" x="176" y="-226.133" font-family="Helvetica,sans-Serif" font-size="8.00"> &#160;&#160;&#160;&#160;&#160;</text>
<text text-anchor="start" x="68" y="-214.133" font-family="Helvetica,sans-Serif" font-size="8.00"> &#160;&#160;&#160;&#160;&#160;</text>
<text text-anchor="start" x="82" y="-214.133" font-family="Helvetica " font-size="8.00">name</text>
<text text-anchor="start" x="103" y="-214.133" font-family="Helvetica,sans-Serif" font-size="8.00"> &#160;&#160;&#160;&#160;&#160;</text>
<text text-anchor="start" x="122" y="-214.133" font-family="Helvetica,sans-Serif" font-size="8.00"> &#160;&#160;&#160;&#160;&#160;</text>
<text text-anchor="start" x="136" y="-214.133" font-family="Helvetica " font-size="8.00">CharField</text>
<text text-anchor="start" x="172" y="-214.133" font-family="Helvetica,sans-Serif" font-size="8.00"> &#160;&#160;&#160;&#160;&#160;</text>
</g>
<!-- django_contrib_auth_models_Group&#45;&gt;django_contrib_auth_models_Permission -->
<g id="edge3" class="edge"><title>django_contrib_auth_models_Group&#45;&gt;django_contrib_auth_models_Permission</title>
<path fill="none" stroke="black" d="M129,-198.25C129,-188.09 129,-176.71 129,-165.87"/>
<ellipse fill="black" stroke="black" cx="129" cy="-202.31" rx="4" ry="4"/>
<ellipse fill="black" stroke="black" cx="129" cy="-161.72" rx="4" ry="4"/>
<text text-anchor="middle" x="165" y="-180.8" font-family="Helvetica,sans-Serif" font-size="8.00">permissions (group)</text>
</g>
</g>
</svg>
