<?xml version="1.0" encoding="UTF-8" standalone="no"?>
<!DOCTYPE svg PUBLIC "-//W3C//DTD SVG 1.1//EN"
 "http://www.w3.org/Graphics/SVG/1.1/DTD/svg11.dtd">
<!-- Generated by graphviz version 2.38.0 (20140413.2041)
 -->
<!-- Title: model_graph Pages: 1 -->
<svg width="756pt" height="198pt"
 viewBox="0.00 0.00 756.00 198.00" xmlns="http://www.w3.org/2000/svg" xmlns:xlink="http://www.w3.org/1999/xlink">
<g id="graph0" class="graph" transform="scale(1 1) rotate(0) translate(4 194)">
<title>model_graph</title>
<polygon fill="white" stroke="none" points="-4,4 -4,-194 752,-194 752,4 -4,4"/>
<g id="clust1" class="cluster"><title>cluster_pdc_apps_bindings_models</title>
<path fill="none" stroke="#698b22" d="M20,-73C20,-73 714,-73 714,-73 720,-73 726,-79 726,-85 726,-85 726,-170 726,-170 726,-176 720,-182 714,-182 714,-182 20,-182 20,-182 14,-182 8,-176 8,-170 8,-170 8,-85 8,-85 8,-79 14,-73 20,-73"/>
<text text-anchor="start" x="260.5" y="-164.9" font-family="Helvetica,sans-Serif" font-size="8.00"> &#160;&#160;&#160;&#160;&#160;&#160;&#160;&#160;&#160;</text>
<text text-anchor="start" x="283.5" y="-164.9" font-family="Helvetica Bold" font-size="12.00"> &#160;&#160;&#160;&#160;&#160;&#160;&#160;&#160;&#160;pdc.apps.bindings &#160;&#160;&#160;&#160;&#160;&#160;&#160;&#160;&#160;</text>
<text text-anchor="start" x="450.5" y="-164.9" font-family="Helvetica,sans-Serif" font-size="8.00"> &#160;&#160;&#160;&#160;&#160;&#160;&#160;&#160;&#160;</text>
</g>
<!-- pdc_apps_bindings_models_ReleaseBugzillaMapping -->
<g id="node1" class="node"><title>pdc_apps_bindings_models_ReleaseBugzillaMapping</title>
<polygon fill="palegoldenrod" stroke="none" points="24,-85 24,-141 224,-141 224,-85 24,-85"/>
<polygon fill="#698b22" stroke="none" points="24,-124 24,-141 224,-141 224,-124 24,-124"/>
<text text-anchor="start" x="55" y="-131.6" font-family="Helvetica,sans-Serif" font-size="8.00"> &#160;&#160;&#160;&#160;&#160;</text>
<text text-anchor="start" x="69" y="-131.6" font-family="Helvetica Bold" font-size="8.00" fill="white"> &#160;&#160;&#160;&#160;&#160;ReleaseBugzillaMapping &#160;&#160;&#160;&#160;&#160;</text>
<text text-anchor="start" x="26" y="-116.6" font-family="Helvetica,sans-Serif" font-size="8.00"> &#160;&#160;&#160;&#160;&#160;</text>
<text text-anchor="start" x="40" y="-116.6" font-family="Helvetica Bold" font-size="8.00">id</text>
<text text-anchor="start" x="48" y="-116.6" font-family="Helvetica,sans-Serif" font-size="8.00"> &#160;&#160;&#160;&#160;&#160;</text>
<text text-anchor="start" x="116" y="-116.6" font-family="Helvetica,sans-Serif" font-size="8.00"> &#160;&#160;&#160;&#160;&#160;</text>
<text text-anchor="start" x="130" y="-116.6" font-family="Helvetica Bold" font-size="8.00">AutoField</text>
<text text-anchor="start" x="170" y="-116.6" font-family="Helvetica,sans-Serif" font-size="8.00"> &#160;&#160;&#160;&#160;&#160;</text>
<text text-anchor="start" x="26" y="-103.6" font-family="Helvetica,sans-Serif" font-size="8.00"> &#160;&#160;&#160;&#160;&#160;</text>
<text text-anchor="start" x="40" y="-103.6" font-family="Helvetica Bold" font-size="8.00">release</text>
<text text-anchor="start" x="68" y="-103.6" font-family="Helvetica,sans-Serif" font-size="8.00"> &#160;&#160;&#160;&#160;&#160;</text>
<text text-anchor="start" x="116" y="-103.6" font-family="Helvetica,sans-Serif" font-size="8.00"> &#160;&#160;&#160;&#160;&#160;</text>
<text text-anchor="start" x="130" y="-103.6" font-family="Helvetica Bold" font-size="8.00">OneToOneField (id)</text>
<text text-anchor="start" x="208" y="-103.6" font-family="Helvetica,sans-Serif" font-size="8.00"> &#160;&#160;&#160;&#160;&#160;</text>
<text text-anchor="start" x="26" y="-90.6" font-family="Helvetica,sans-Serif" font-size="8.00"> &#160;&#160;&#160;&#160;&#160;</text>
<text text-anchor="start" x="40" y="-90.6" font-family="Helvetica " font-size="8.00">bugzilla_product</text>
<text text-anchor="start" x="98" y="-90.6" font-family="Helvetica,sans-Serif" font-size="8.00"> &#160;&#160;&#160;&#160;&#160;</text>
<text text-anchor="start" x="116" y="-90.6" font-family="Helvetica,sans-Serif" font-size="8.00"> &#160;&#160;&#160;&#160;&#160;</text>
<text text-anchor="start" x="130" y="-90.6" font-family="Helvetica " font-size="8.00">CharField</text>
<text text-anchor="start" x="166" y="-90.6" font-family="Helvetica,sans-Serif" font-size="8.00"> &#160;&#160;&#160;&#160;&#160;</text>
</g>
<!-- pdc_apps_release_models_Release -->
<g id="node4" class="node"><title>pdc_apps_release_models_Release</title>
<polygon fill="palegoldenrod" stroke="none" points="204,-9.5 204,-26.5 254,-26.5 254,-9.5 204,-9.5"/>
<polygon fill="#698b22" stroke="none" points="204,-9 204,-26 254,-26 254,-9 204,-9"/>
<text text-anchor="start" x="208.5" y="-16.6" font-family="Helvetica,sans-Serif" font-size="8.00"> &#160;</text>
<text text-anchor="start" x="213.5" y="-16.6" font-family="Helvetica Bold" font-size="8.00" fill="white">Release</text>
<text text-anchor="start" x="244.5" y="-16.6" font-family="Helvetica,sans-Serif" font-size="8.00"> &#160;</text>
</g>
<!-- pdc_apps_bindings_models_ReleaseBugzillaMapping&#45;&gt;pdc_apps_release_models_Release -->
<g id="edge1" class="edge"><title>pdc_apps_bindings_models_ReleaseBugzillaMapping&#45;&gt;pdc_apps_release_models_Release</title>
<path fill="none" stroke="black" d="M146.081,-80.7281C153.408,-71.5225 162.007,-61.8296 171,-54 178.628,-47.3585 187.677,-41.2293 196.33,-36.0179"/>
<text text-anchor="middle" x="230" y="-56.6" font-family="Helvetica,sans-Serif" font-size="8.00">release (releasebugzillamapping)</text>
</g>
<!-- pdc_apps_bindings_models_ReleaseDistGitMapping -->
<g id="node2" class="node"><title>pdc_apps_bindings_models_ReleaseDistGitMapping</title>
<polygon fill="palegoldenrod" stroke="none" points="258.5,-85 258.5,-141 455.5,-141 455.5,-85 258.5,-85"/>
<polygon fill="#698b22" stroke="none" points="259,-124 259,-141 456,-141 456,-124 259,-124"/>
<text text-anchor="start" x="290.5" y="-131.6" font-family="Helvetica,sans-Serif" font-size="8.00"> &#160;&#160;&#160;&#160;&#160;</text>
<text text-anchor="start" x="304.5" y="-131.6" font-family="Helvetica Bold" font-size="8.00" fill="white"> &#160;&#160;&#160;&#160;&#160;ReleaseDistGitMapping &#160;&#160;&#160;&#160;&#160;</text>
<text text-anchor="start" x="261" y="-116.6" font-family="Helvetica,sans-Serif" font-size="8.00"> &#160;&#160;&#160;&#160;&#160;</text>
<text text-anchor="start" x="275" y="-116.6" font-family="Helvetica Bold" font-size="8.00">id</text>
<text text-anchor="start" x="283" y="-116.6" font-family="Helvetica,sans-Serif" font-size="8.00"> &#160;&#160;&#160;&#160;&#160;</text>
<text text-anchor="start" x="348" y="-116.6" font-family="Helvetica,sans-Serif" font-size="8.00"> &#160;&#160;&#160;&#160;&#160;</text>
<text text-anchor="start" x="362" y="-116.6" font-family="Helvetica Bold" font-size="8.00">AutoField</text>
<text text-anchor="start" x="402" y="-116.6" font-family="Helvetica,sans-Serif" font-size="8.00"> &#160;&#160;&#160;&#160;&#160;</text>
<text text-anchor="start" x="261" y="-103.6" font-family="Helvetica,sans-Serif" font-size="8.00"> &#160;&#160;&#160;&#160;&#160;</text>
<text text-anchor="start" x="275" y="-103.6" font-family="Helvetica Bold" font-size="8.00">release</text>
<text text-anchor="start" x="303" y="-103.6" font-family="Helvetica,sans-Serif" font-size="8.00"> &#160;&#160;&#160;&#160;&#160;</text>
<text text-anchor="start" x="348" y="-103.6" font-family="Helvetica,sans-Serif" font-size="8.00"> &#160;&#160;&#160;&#160;&#160;</text>
<text text-anchor="start" x="362" y="-103.6" font-family="Helvetica Bold" font-size="8.00">OneToOneField (id)</text>
<text text-anchor="start" x="440" y="-103.6" font-family="Helvetica,sans-Serif" font-size="8.00"> &#160;&#160;&#160;&#160;&#160;</text>
<text text-anchor="start" x="261" y="-90.6" font-family="Helvetica,sans-Serif" font-size="8.00"> &#160;&#160;&#160;&#160;&#160;</text>
<text text-anchor="start" x="275" y="-90.6" font-family="Helvetica " font-size="8.00">dist_git_branch</text>
<text text-anchor="start" x="330" y="-90.6" font-family="Helvetica,sans-Serif" font-size="8.00"> &#160;&#160;&#160;&#160;&#160;</text>
<text text-anchor="start" x="348" y="-90.6" font-family="Helvetica,sans-Serif" font-size="8.00"> &#160;&#160;&#160;&#160;&#160;</text>
<text text-anchor="start" x="362" y="-90.6" font-family="Helvetica " font-size="8.00">CharField</text>
<text text-anchor="start" x="398" y="-90.6" font-family="Helvetica,sans-Serif" font-size="8.00"> &#160;&#160;&#160;&#160;&#160;</text>
</g>
<!-- pdc_apps_bindings_models_ReleaseDistGitMapping&#45;&gt;pdc_apps_release_models_Release -->
<g id="edge2" class="edge"><title>pdc_apps_bindings_models_ReleaseDistGitMapping&#45;&gt;pdc_apps_release_models_Release</title>
<path fill="none" stroke="black" d="M323.02,-80.9596C312.437,-71.8621 300.515,-62.1713 289,-54 280.149,-47.7191 270.105,-41.5286 260.802,-36.1412"/>
<text text-anchor="middle" x="357" y="-56.6" font-family="Helvetica,sans-Serif" font-size="8.00">release (releasedistgitmapping)</text>
</g>
<!-- pdc_apps_bindings_models_ReleaseComponentSRPMNameMapping -->
<g id="node3" class="node"><title>pdc_apps_bindings_models_ReleaseComponentSRPMNameMapping</title>
<polygon fill="palegoldenrod" stroke="none" points="490,-85 490,-141 710,-141 710,-85 490,-85"/>
<polygon fill="#698b22" stroke="none" points="490,-124 490,-141 710,-141 710,-124 490,-124"/>
<text text-anchor="start" x="501" y="-131.6" font-family="Helvetica,sans-Serif" font-size="8.00"> &#160;&#160;&#160;&#160;&#160;</text>
<text text-anchor="start" x="515" y="-131.6" font-family="Helvetica Bold" font-size="8.00" fill="white"> &#160;&#160;&#160;&#160;&#160;ReleaseComponentSRPMNameMapping &#160;&#160;&#160;&#160;&#160;</text>
<text text-anchor="start" x="492" y="-116.6" font-family="Helvetica,sans-Serif" font-size="8.00"> &#160;&#160;&#160;&#160;&#160;</text>
<text text-anchor="start" x="506" y="-116.6" font-family="Helvetica Bold" font-size="8.00">id</text>
<text text-anchor="start" x="514" y="-116.6" font-family="Helvetica,sans-Serif" font-size="8.00"> &#160;&#160;&#160;&#160;&#160;</text>
<text text-anchor="start" x="602" y="-116.6" font-family="Helvetica,sans-Serif" font-size="8.00"> &#160;&#160;&#160;&#160;&#160;</text>
<text text-anchor="start" x="616" y="-116.6" font-family="Helvetica Bold" font-size="8.00">AutoField</text>
<text text-anchor="start" x="656" y="-116.6" font-family="Helvetica,sans-Serif" font-size="8.00"> &#160;&#160;&#160;&#160;&#160;</text>
<text text-anchor="start" x="492" y="-103.6" font-family="Helvetica,sans-Serif" font-size="8.00"> &#160;&#160;&#160;&#160;&#160;</text>
<text text-anchor="start" x="506" y="-103.6" font-family="Helvetica Bold" font-size="8.00">release_component</text>
<text text-anchor="start" x="584" y="-103.6" font-family="Helvetica,sans-Serif" font-size="8.00"> &#160;&#160;&#160;&#160;&#160;</text>
<text text-anchor="start" x="602" y="-103.6" font-family="Helvetica,sans-Serif" font-size="8.00"> &#160;&#160;&#160;&#160;&#160;</text>
<text text-anchor="start" x="616" y="-103.6" font-family="Helvetica Bold" font-size="8.00">OneToOneField (id)</text>
<text text-anchor="start" x="694" y="-103.6" font-family="Helvetica,sans-Serif" font-size="8.00"> &#160;&#160;&#160;&#160;&#160;</text>
<text text-anchor="start" x="492" y="-90.6" font-family="Helvetica,sans-Serif" font-size="8.00"> &#160;&#160;&#160;&#160;&#160;</text>
<text text-anchor="start" x="506" y="-90.6" font-family="Helvetica " font-size="8.00">srpm_name</text>
<text text-anchor="start" x="549" y="-90.6" font-family="Helvetica,sans-Serif" font-size="8.00"> &#160;&#160;&#160;&#160;&#160;</text>
<text text-anchor="start" x="602" y="-90.6" font-family="Helvetica,sans-Serif" font-size="8.00"> &#160;&#160;&#160;&#160;&#160;</text>
<text text-anchor="start" x="616" y="-90.6" font-family="Helvetica " font-size="8.00">CharField</text>
<text text-anchor="start" x="652" y="-90.6" font-family="Helvetica,sans-Serif" font-size="8.00"> &#160;&#160;&#160;&#160;&#160;</text>
</g>
<!-- pdc_apps_component_models_ReleaseComponent -->
<g id="node5" class="node"><title>pdc_apps_component_models_ReleaseComponent</title>
<polygon fill="palegoldenrod" stroke="none" points="552,-9.5 552,-26.5 648,-26.5 648,-9.5 552,-9.5"/>
<polygon fill="#698b22" stroke="none" points="552,-9 552,-26 648,-26 648,-9 552,-9"/>
<text text-anchor="start" x="556" y="-16.6" font-family="Helvetica,sans-Serif" font-size="8.00"> &#160;</text>
<text text-anchor="start" x="561" y="-16.6" font-family="Helvetica Bold" font-size="8.00" fill="white">ReleaseComponent</text>
<text text-anchor="start" x="639" y="-16.6" font-family="Helvetica,sans-Serif" font-size="8.00"> &#160;</text>
</g>
<!-- pdc_apps_bindings_models_ReleaseComponentSRPMNameMapping&#45;&gt;pdc_apps_component_models_ReleaseComponent -->
<g id="edge3" class="edge"><title>pdc_apps_bindings_models_ReleaseComponentSRPMNameMapping&#45;&gt;pdc_apps_component_models_ReleaseComponent</title>
<path fill="none" stroke="black" d="M600,-80.7736C600,-65.8929 600,-48.6646 600,-36.1889"/>
<text text-anchor="middle" x="674" y="-56.6" font-family="Helvetica,sans-Serif" font-size="8.00">release_component (srpmnamemapping)</text>
</g>
</g>
</svg>
