<?xml version="1.0" encoding="UTF-8" standalone="no"?>
<!DOCTYPE svg PUBLIC "-//W3C//DTD SVG 1.1//EN"
 "http://www.w3.org/Graphics/SVG/1.1/DTD/svg11.dtd">
<!-- Generated by graphviz version 2.26.3 (20100126.1600)
 -->
<!-- Title: model_graph Pages: 1 -->
<svg width="756pt" height="199pt"
 viewBox="0.00 0.00 756.00 199.00" xmlns="http://www.w3.org/2000/svg" xmlns:xlink="http://www.w3.org/1999/xlink">
<g id="graph1" class="graph" transform="scale(1 1) rotate(0) translate(4 195)">
<title>model_graph</title>
<polygon fill="white" stroke="white" points="-4,5 -4,-195 753,-195 753,5 -4,5"/>
<g id="graph2" class="cluster"><title>cluster_pdc_apps_bindings</title>
<polyline fill="none" stroke="#698b22" points="20,-76 714,-76 "/>
<path fill="none" stroke="#698b22" d="M714,-76C720,-76 726,-82 726,-88"/>
<polyline fill="none" stroke="#698b22" points="726,-88 726,-171 "/>
<path fill="none" stroke="#698b22" d="M726,-171C726,-177 720,-183 714,-183"/>
<polyline fill="none" stroke="#698b22" points="714,-183 20,-183 "/>
<path fill="none" stroke="#698b22" d="M20,-183C14,-183 8,-177 8,-171"/>
<polyline fill="none" stroke="#698b22" points="8,-171 8,-88 "/>
<path fill="none" stroke="#698b22" d="M8,-88C8,-82 14,-76 20,-76"/>
<text text-anchor="start" x="261" y="-164.8" font-family="Helvetica,sans-Serif" font-size="8.00"> &#160;&#160;&#160;&#160;&#160;&#160;&#160;&#160;&#160;</text>
<text text-anchor="start" x="284" y="-165.2" font-family="Helvetica Bold" font-size="12.00"> &#160;&#160;&#160;&#160;&#160;&#160;&#160;&#160;&#160;pdc.apps.bindings &#160;&#160;&#160;&#160;&#160;&#160;&#160;&#160;&#160;</text>
<text text-anchor="start" x="451" y="-164.8" font-family="Helvetica,sans-Serif" font-size="8.00"> &#160;&#160;&#160;&#160;&#160;&#160;&#160;&#160;&#160;</text>
</g>
<!-- pdc_apps_bindings_models_ReleaseBugzillaMapping -->
<g id="node2" class="node"><title>pdc_apps_bindings_models_ReleaseBugzillaMapping</title>
<polygon fill="palegoldenrod" stroke="palegoldenrod" points="23.5,-88.5 23.5,-141.5 224.5,-141.5 224.5,-88.5 23.5,-88.5"/>
<polygon fill="#698b22" stroke="#698b22" points="24,-124 24,-141 225,-141 225,-124 24,-124"/>
<text text-anchor="start" x="55.5" y="-130.633" font-family="Helvetica,sans-Serif" font-size="8.00"> &#160;&#160;&#160;&#160;&#160;</text>
<text text-anchor="start" x="69.5" y="-130.633" font-family="Helvetica Bold" font-size="8.00" fill="white"> &#160;&#160;&#160;&#160;&#160;ReleaseBugzillaMapping &#160;&#160;&#160;&#160;&#160;</text>
<text text-anchor="start" x="26" y="-116.133" font-family="Helvetica,sans-Serif" font-size="8.00"> &#160;&#160;&#160;&#160;&#160;</text>
<text text-anchor="start" x="40" y="-116.133" font-family="Helvetica Bold" font-size="8.00">id</text>
<text text-anchor="start" x="48" y="-116.133" font-family="Helvetica,sans-Serif" font-size="8.00"> &#160;&#160;&#160;&#160;&#160;</text>
<text text-anchor="start" x="117" y="-116.133" font-family="Helvetica,sans-Serif" font-size="8.00"> &#160;&#160;&#160;&#160;&#160;</text>
<text text-anchor="start" x="131" y="-116.133" font-family="Helvetica Bold" font-size="8.00">AutoField</text>
<text text-anchor="start" x="171" y="-116.133" font-family="Helvetica,sans-Serif" font-size="8.00"> &#160;&#160;&#160;&#160;&#160;</text>
<text text-anchor="start" x="26" y="-104.133" font-family="Helvetica,sans-Serif" font-size="8.00"> &#160;&#160;&#160;&#160;&#160;</text>
<text text-anchor="start" x="40" y="-104.133" font-family="Helvetica Bold" font-size="8.00">release</text>
<text text-anchor="start" x="68" y="-104.133" font-family="Helvetica,sans-Serif" font-size="8.00"> &#160;&#160;&#160;&#160;&#160;</text>
<text text-anchor="start" x="117" y="-104.133" font-family="Helvetica,sans-Serif" font-size="8.00"> &#160;&#160;&#160;&#160;&#160;</text>
<text text-anchor="start" x="131" y="-104.133" font-family="Helvetica Bold" font-size="8.00">OneToOneField (id)</text>
<text text-anchor="start" x="209" y="-104.133" font-family="Helvetica,sans-Serif" font-size="8.00"> &#160;&#160;&#160;&#160;&#160;</text>
<text text-anchor="start" x="26" y="-92.1333" font-family="Helvetica,sans-Serif" font-size="8.00"> &#160;&#160;&#160;&#160;&#160;</text>
<text text-anchor="start" x="40" y="-92.1333" font-family="Helvetica " font-size="8.00">bugzilla_product</text>
<text text-anchor="start" x="98" y="-92.1333" font-family="Helvetica,sans-Serif" font-size="8.00"> &#160;&#160;&#160;&#160;&#160;</text>
<text text-anchor="start" x="117" y="-92.1333" font-family="Helvetica,sans-Serif" font-size="8.00"> &#160;&#160;&#160;&#160;&#160;</text>
<text text-anchor="start" x="131" y="-92.1333" font-family="Helvetica " font-size="8.00">CharField</text>
<text text-anchor="start" x="167" y="-92.1333" font-family="Helvetica,sans-Serif" font-size="8.00"> &#160;&#160;&#160;&#160;&#160;</text>
</g>
<!-- pdc_apps_release_models_Release -->
<g id="node5" class="node"><title>pdc_apps_release_models_Release</title>
<polygon fill="palegoldenrod" stroke="palegoldenrod" points="203.5,-9.5 203.5,-26.5 254.5,-26.5 254.5,-9.5 203.5,-9.5"/>
<polygon fill="#698b22" stroke="#698b22" points="204,-9 204,-26 255,-26 255,-9 204,-9"/>
<text text-anchor="start" x="209" y="-15.6333" font-family="Helvetica,sans-Serif" font-size="8.00"> &#160;</text>
<text text-anchor="start" x="214" y="-15.6333" font-family="Helvetica Bold" font-size="8.00" fill="white">Release</text>
<text text-anchor="start" x="245" y="-15.6333" font-family="Helvetica,sans-Serif" font-size="8.00"> &#160;</text>
</g>
<!-- pdc_apps_bindings_models_ReleaseBugzillaMapping&#45;&gt;pdc_apps_release_models_Release -->
<g id="edge3" class="edge"><title>pdc_apps_bindings_models_ReleaseBugzillaMapping&#45;&gt;pdc_apps_release_models_Release</title>
<path fill="none" stroke="black" d="M144.27,-84.326C151.93,-74.008 161.18,-62.875 171,-54 178.47,-47.245 187.38,-41.008 195.94,-35.688"/>
<text text-anchor="middle" x="230" y="-58.8" font-family="Helvetica,sans-Serif" font-size="8.00">release (releasebugzillamapping)</text>
</g>
<!-- pdc_apps_bindings_models_ReleaseDistGitMapping -->
<g id="node3" class="node"><title>pdc_apps_bindings_models_ReleaseDistGitMapping</title>
<polygon fill="palegoldenrod" stroke="palegoldenrod" points="258,-88.5 258,-141.5 456,-141.5 456,-88.5 258,-88.5"/>
<polygon fill="#698b22" stroke="#698b22" points="258,-124 258,-141 456,-141 456,-124 258,-124"/>
<text text-anchor="start" x="290" y="-130.633" font-family="Helvetica,sans-Serif" font-size="8.00"> &#160;&#160;&#160;&#160;&#160;</text>
<text text-anchor="start" x="304" y="-130.633" font-family="Helvetica Bold" font-size="8.00" fill="white"> &#160;&#160;&#160;&#160;&#160;ReleaseDistGitMapping &#160;&#160;&#160;&#160;&#160;</text>
<text text-anchor="start" x="260" y="-116.133" font-family="Helvetica,sans-Serif" font-size="8.00"> &#160;&#160;&#160;&#160;&#160;</text>
<text text-anchor="start" x="274" y="-116.133" font-family="Helvetica Bold" font-size="8.00">id</text>
<text text-anchor="start" x="282" y="-116.133" font-family="Helvetica,sans-Serif" font-size="8.00"> &#160;&#160;&#160;&#160;&#160;</text>
<text text-anchor="start" x="348" y="-116.133" font-family="Helvetica,sans-Serif" font-size="8.00"> &#160;&#160;&#160;&#160;&#160;</text>
<text text-anchor="start" x="362" y="-116.133" font-family="Helvetica Bold" font-size="8.00">AutoField</text>
<text text-anchor="start" x="402" y="-116.133" font-family="Helvetica,sans-Serif" font-size="8.00"> &#160;&#160;&#160;&#160;&#160;</text>
<text text-anchor="start" x="260" y="-104.133" font-family="Helvetica,sans-Serif" font-size="8.00"> &#160;&#160;&#160;&#160;&#160;</text>
<text text-anchor="start" x="274" y="-104.133" font-family="Helvetica Bold" font-size="8.00">release</text>
<text text-anchor="start" x="302" y="-104.133" font-family="Helvetica,sans-Serif" font-size="8.00"> &#160;&#160;&#160;&#160;&#160;</text>
<text text-anchor="start" x="348" y="-104.133" font-family="Helvetica,sans-Serif" font-size="8.00"> &#160;&#160;&#160;&#160;&#160;</text>
<text text-anchor="start" x="362" y="-104.133" font-family="Helvetica Bold" font-size="8.00">OneToOneField (id)</text>
<text text-anchor="start" x="440" y="-104.133" font-family="Helvetica,sans-Serif" font-size="8.00"> &#160;&#160;&#160;&#160;&#160;</text>
<text text-anchor="start" x="260" y="-92.1333" font-family="Helvetica,sans-Serif" font-size="8.00"> &#160;&#160;&#160;&#160;&#160;</text>
<text text-anchor="start" x="274" y="-92.1333" font-family="Helvetica " font-size="8.00">dist_git_branch</text>
<text text-anchor="start" x="329" y="-92.1333" font-family="Helvetica,sans-Serif" font-size="8.00"> &#160;&#160;&#160;&#160;&#160;</text>
<text text-anchor="start" x="348" y="-92.1333" font-family="Helvetica,sans-Serif" font-size="8.00"> &#160;&#160;&#160;&#160;&#160;</text>
<text text-anchor="start" x="362" y="-92.1333" font-family="Helvetica " font-size="8.00">CharField</text>
<text text-anchor="start" x="398" y="-92.1333" font-family="Helvetica,sans-Serif" font-size="8.00"> &#160;&#160;&#160;&#160;&#160;</text>
</g>
<!-- pdc_apps_bindings_models_ReleaseDistGitMapping&#45;&gt;pdc_apps_release_models_Release -->
<g id="edge5" class="edge"><title>pdc_apps_bindings_models_ReleaseDistGitMapping&#45;&gt;pdc_apps_release_models_Release</title>
<path fill="none" stroke="black" d="M325.21,-84.209C314.14,-74.105 301.38,-63.135 289,-54 280.5,-47.724 270.84,-41.556 261.8,-36.147"/>
<text text-anchor="middle" x="359" y="-58.8" font-family="Helvetica,sans-Serif" font-size="8.00">release (releasedistgitmapping)</text>
</g>
<!-- pdc_apps_bindings_models_ReleaseComponentSRPMNameMapping -->
<g id="node4" class="node"><title>pdc_apps_bindings_models_ReleaseComponentSRPMNameMapping</title>
<polygon fill="palegoldenrod" stroke="palegoldenrod" points="489.5,-88.5 489.5,-141.5 710.5,-141.5 710.5,-88.5 489.5,-88.5"/>
<polygon fill="#698b22" stroke="#698b22" points="490,-124 490,-141 711,-141 711,-124 490,-124"/>
<text text-anchor="start" x="501.5" y="-130.633" font-family="Helvetica,sans-Serif" font-size="8.00"> &#160;&#160;&#160;&#160;&#160;</text>
<text text-anchor="start" x="515.5" y="-130.633" font-family="Helvetica Bold" font-size="8.00" fill="white"> &#160;&#160;&#160;&#160;&#160;ReleaseComponentSRPMNameMapping &#160;&#160;&#160;&#160;&#160;</text>
<text text-anchor="start" x="492" y="-116.133" font-family="Helvetica,sans-Serif" font-size="8.00"> &#160;&#160;&#160;&#160;&#160;</text>
<text text-anchor="start" x="506" y="-116.133" font-family="Helvetica Bold" font-size="8.00">id</text>
<text text-anchor="start" x="514" y="-116.133" font-family="Helvetica,sans-Serif" font-size="8.00"> &#160;&#160;&#160;&#160;&#160;</text>
<text text-anchor="start" x="603" y="-116.133" font-family="Helvetica,sans-Serif" font-size="8.00"> &#160;&#160;&#160;&#160;&#160;</text>
<text text-anchor="start" x="617" y="-116.133" font-family="Helvetica Bold" font-size="8.00">AutoField</text>
<text text-anchor="start" x="657" y="-116.133" font-family="Helvetica,sans-Serif" font-size="8.00"> &#160;&#160;&#160;&#160;&#160;</text>
<text text-anchor="start" x="492" y="-104.133" font-family="Helvetica,sans-Serif" font-size="8.00"> &#160;&#160;&#160;&#160;&#160;</text>
<text text-anchor="start" x="506" y="-104.133" font-family="Helvetica Bold" font-size="8.00">release_component</text>
<text text-anchor="start" x="584" y="-104.133" font-family="Helvetica,sans-Serif" font-size="8.00"> &#160;&#160;&#160;&#160;&#160;</text>
<text text-anchor="start" x="603" y="-104.133" font-family="Helvetica,sans-Serif" font-size="8.00"> &#160;&#160;&#160;&#160;&#160;</text>
<text text-anchor="start" x="617" y="-104.133" font-family="Helvetica Bold" font-size="8.00">OneToOneField (id)</text>
<text text-anchor="start" x="695" y="-104.133" font-family="Helvetica,sans-Serif" font-size="8.00"> &#160;&#160;&#160;&#160;&#160;</text>
<text text-anchor="start" x="492" y="-92.1333" font-family="Helvetica,sans-Serif" font-size="8.00"> &#160;&#160;&#160;&#160;&#160;</text>
<text text-anchor="start" x="506" y="-92.1333" font-family="Helvetica " font-size="8.00">srpm_name</text>
<text text-anchor="start" x="549" y="-92.1333" font-family="Helvetica,sans-Serif" font-size="8.00"> &#160;&#160;&#160;&#160;&#160;</text>
<text text-anchor="start" x="603" y="-92.1333" font-family="Helvetica,sans-Serif" font-size="8.00"> &#160;&#160;&#160;&#160;&#160;</text>
<text text-anchor="start" x="617" y="-92.1333" font-family="Helvetica " font-size="8.00">CharField</text>
<text text-anchor="start" x="653" y="-92.1333" font-family="Helvetica,sans-Serif" font-size="8.00"> &#160;&#160;&#160;&#160;&#160;</text>
</g>
<!-- pdc_apps_component_models_ReleaseComponent -->
<g id="node8" class="node"><title>pdc_apps_component_models_ReleaseComponent</title>
<polygon fill="palegoldenrod" stroke="palegoldenrod" points="551.5,-9.5 551.5,-26.5 648.5,-26.5 648.5,-9.5 551.5,-9.5"/>
<polygon fill="#698b22" stroke="#698b22" points="552,-9 552,-26 649,-26 649,-9 552,-9"/>
<text text-anchor="start" x="556.5" y="-15.6333" font-family="Helvetica,sans-Serif" font-size="8.00"> &#160;</text>
<text text-anchor="start" x="561.5" y="-15.6333" font-family="Helvetica Bold" font-size="8.00" fill="white">ReleaseComponent</text>
<text text-anchor="start" x="639.5" y="-15.6333" font-family="Helvetica,sans-Serif" font-size="8.00"> &#160;</text>
</g>
<!-- pdc_apps_bindings_models_ReleaseComponentSRPMNameMapping&#45;&gt;pdc_apps_component_models_ReleaseComponent -->
<g id="edge7" class="edge"><title>pdc_apps_bindings_models_ReleaseComponentSRPMNameMapping&#45;&gt;pdc_apps_component_models_ReleaseComponent</title>
<path fill="none" stroke="black" d="M600,-84.309C600,-68.434 600,-49.605 600,-36.074"/>
<text text-anchor="middle" x="674" y="-58.8" font-family="Helvetica,sans-Serif" font-size="8.00">release_component (srpmnamemapping)</text>
</g>
</g>
</svg>
