<?xml version="1.0" encoding="UTF-8" standalone="no"?>
<!DOCTYPE svg PUBLIC "-//W3C//DTD SVG 1.1//EN"
 "http://www.w3.org/Graphics/SVG/1.1/DTD/svg11.dtd">
<!-- Generated by graphviz version 2.36.0 (20140111.2315)
 -->
<!-- Title: model_graph Pages: 1 -->
<svg width="751pt" height="194pt"
 viewBox="0.00 0.00 751.00 194.00" xmlns="http://www.w3.org/2000/svg" xmlns:xlink="http://www.w3.org/1999/xlink">
<g id="graph0" class="graph" transform="scale(1 1) rotate(0) translate(4 190)">
<title>model_graph</title>
<polygon fill="white" stroke="none" points="-4,4 -4,-190 747,-190 747,4 -4,4"/>
<g id="clust1" class="cluster"><title>cluster_pdc_apps_bindings</title>
<path fill="none" stroke="#698b22" d="M12,-74C12,-74 710,-74 710,-74 716,-74 722,-80 722,-86 722,-86 722,-174 722,-174 722,-180 716,-186 710,-186 710,-186 12,-186 12,-186 6,-186 0,-180 0,-174 0,-174 0,-86 0,-86 0,-80 6,-74 12,-74"/>
<text text-anchor="start" x="255" y="-168.9" font-family="Helvetica,sans-Serif" font-size="8.00"> &#160;&#160;&#160;&#160;&#160;&#160;&#160;&#160;&#160;</text>
<text text-anchor="start" x="278" y="-168.9" font-family="Helvetica Bold" font-size="12.00"> &#160;&#160;&#160;&#160;&#160;&#160;&#160;&#160;&#160;pdc.apps.bindings &#160;&#160;&#160;&#160;&#160;&#160;&#160;&#160;&#160;</text>
<text text-anchor="start" x="445" y="-168.9" font-family="Helvetica,sans-Serif" font-size="8.00"> &#160;&#160;&#160;&#160;&#160;&#160;&#160;&#160;&#160;</text>
</g>
<!-- pdc_apps_bindings_models_ReleaseBugzillaMapping -->
<g id="node1" class="node"><title>pdc_apps_bindings_models_ReleaseBugzillaMapping</title>
<polygon fill="palegoldenrod" stroke="none" points="16.5,-86.5 16.5,-143.5 217.5,-143.5 217.5,-86.5 16.5,-86.5"/>
<polygon fill="#698b22" stroke="none" points="17,-125 17,-143 218,-143 218,-125 17,-125"/>
<text text-anchor="start" x="48.5" y="-133.1" font-family="Helvetica,sans-Serif" font-size="8.00"> &#160;&#160;&#160;&#160;&#160;</text>
<text text-anchor="start" x="62.5" y="-133.1" font-family="Helvetica Bold" font-size="8.00" fill="white"> &#160;&#160;&#160;&#160;&#160;ReleaseBugzillaMapping &#160;&#160;&#160;&#160;&#160;</text>
<text text-anchor="start" x="19" y="-117.6" font-family="Helvetica,sans-Serif" font-size="8.00"> &#160;&#160;&#160;&#160;&#160;</text>
<text text-anchor="start" x="33" y="-117.6" font-family="Helvetica Bold" font-size="8.00">id</text>
<text text-anchor="start" x="41" y="-117.6" font-family="Helvetica,sans-Serif" font-size="8.00"> &#160;&#160;&#160;&#160;&#160;</text>
<text text-anchor="start" x="110" y="-117.6" font-family="Helvetica,sans-Serif" font-size="8.00"> &#160;&#160;&#160;&#160;&#160;</text>
<text text-anchor="start" x="124" y="-117.6" font-family="Helvetica Bold" font-size="8.00">AutoField</text>
<text text-anchor="start" x="164" y="-117.6" font-family="Helvetica,sans-Serif" font-size="8.00"> &#160;&#160;&#160;&#160;&#160;</text>
<text text-anchor="start" x="19" y="-104.6" font-family="Helvetica,sans-Serif" font-size="8.00"> &#160;&#160;&#160;&#160;&#160;</text>
<text text-anchor="start" x="33" y="-104.6" font-family="Helvetica Bold" font-size="8.00">release</text>
<text text-anchor="start" x="61" y="-104.6" font-family="Helvetica,sans-Serif" font-size="8.00"> &#160;&#160;&#160;&#160;&#160;</text>
<text text-anchor="start" x="110" y="-104.6" font-family="Helvetica,sans-Serif" font-size="8.00"> &#160;&#160;&#160;&#160;&#160;</text>
<text text-anchor="start" x="124" y="-104.6" font-family="Helvetica Bold" font-size="8.00">OneToOneField (id)</text>
<text text-anchor="start" x="202" y="-104.6" font-family="Helvetica,sans-Serif" font-size="8.00"> &#160;&#160;&#160;&#160;&#160;</text>
<text text-anchor="start" x="19" y="-91.6" font-family="Helvetica,sans-Serif" font-size="8.00"> &#160;&#160;&#160;&#160;&#160;</text>
<text text-anchor="start" x="33" y="-91.6" font-family="Helvetica " font-size="8.00">bugzilla_product</text>
<text text-anchor="start" x="91" y="-91.6" font-family="Helvetica,sans-Serif" font-size="8.00"> &#160;&#160;&#160;&#160;&#160;</text>
<text text-anchor="start" x="110" y="-91.6" font-family="Helvetica,sans-Serif" font-size="8.00"> &#160;&#160;&#160;&#160;&#160;</text>
<text text-anchor="start" x="124" y="-91.6" font-family="Helvetica " font-size="8.00">CharField</text>
<text text-anchor="start" x="160" y="-91.6" font-family="Helvetica,sans-Serif" font-size="8.00"> &#160;&#160;&#160;&#160;&#160;</text>
</g>
<!-- pdc_apps_release_models_Release -->
<g id="node4" class="node"><title>pdc_apps_release_models_Release</title>
<polygon fill="palegoldenrod" stroke="none" points="197.5,-9 197.5,-27 248.5,-27 248.5,-9 197.5,-9"/>
<polygon fill="#698b22" stroke="none" points="198,-9 198,-27 249,-27 249,-9 198,-9"/>
<text text-anchor="start" x="203" y="-17.1" font-family="Helvetica,sans-Serif" font-size="8.00"> &#160;</text>
<text text-anchor="start" x="208" y="-17.1" font-family="Helvetica Bold" font-size="8.00" fill="white">Release</text>
<text text-anchor="start" x="239" y="-17.1" font-family="Helvetica,sans-Serif" font-size="8.00"> &#160;</text>
</g>
<!-- pdc_apps_bindings_models_ReleaseBugzillaMapping&#45;&gt;pdc_apps_release_models_Release -->
<g id="edge1" class="edge"><title>pdc_apps_bindings_models_ReleaseBugzillaMapping&#45;&gt;pdc_apps_release_models_Release</title>
<path fill="none" stroke="black" d="M139.01,-82.256C146.59,-72.548 155.57,-62.264 165,-54 172.52,-47.412 181.44,-41.34 190,-36.168"/>
<text text-anchor="middle" x="224" y="-57.1" font-family="Helvetica,sans-Serif" font-size="8.00">release (releasebugzillamapping)</text>
</g>
<!-- pdc_apps_bindings_models_ReleaseDistGitMapping -->
<g id="node2" class="node"><title>pdc_apps_bindings_models_ReleaseDistGitMapping</title>
<polygon fill="palegoldenrod" stroke="none" points="252,-86.5 252,-143.5 450,-143.5 450,-86.5 252,-86.5"/>
<polygon fill="#698b22" stroke="none" points="252,-125 252,-143 450,-143 450,-125 252,-125"/>
<text text-anchor="start" x="284" y="-133.1" font-family="Helvetica,sans-Serif" font-size="8.00"> &#160;&#160;&#160;&#160;&#160;</text>
<text text-anchor="start" x="298" y="-133.1" font-family="Helvetica Bold" font-size="8.00" fill="white"> &#160;&#160;&#160;&#160;&#160;ReleaseDistGitMapping &#160;&#160;&#160;&#160;&#160;</text>
<text text-anchor="start" x="254" y="-117.6" font-family="Helvetica,sans-Serif" font-size="8.00"> &#160;&#160;&#160;&#160;&#160;</text>
<text text-anchor="start" x="268" y="-117.6" font-family="Helvetica Bold" font-size="8.00">id</text>
<text text-anchor="start" x="276" y="-117.6" font-family="Helvetica,sans-Serif" font-size="8.00"> &#160;&#160;&#160;&#160;&#160;</text>
<text text-anchor="start" x="342" y="-117.6" font-family="Helvetica,sans-Serif" font-size="8.00"> &#160;&#160;&#160;&#160;&#160;</text>
<text text-anchor="start" x="356" y="-117.6" font-family="Helvetica Bold" font-size="8.00">AutoField</text>
<text text-anchor="start" x="396" y="-117.6" font-family="Helvetica,sans-Serif" font-size="8.00"> &#160;&#160;&#160;&#160;&#160;</text>
<text text-anchor="start" x="254" y="-104.6" font-family="Helvetica,sans-Serif" font-size="8.00"> &#160;&#160;&#160;&#160;&#160;</text>
<text text-anchor="start" x="268" y="-104.6" font-family="Helvetica Bold" font-size="8.00">release</text>
<text text-anchor="start" x="296" y="-104.6" font-family="Helvetica,sans-Serif" font-size="8.00"> &#160;&#160;&#160;&#160;&#160;</text>
<text text-anchor="start" x="342" y="-104.6" font-family="Helvetica,sans-Serif" font-size="8.00"> &#160;&#160;&#160;&#160;&#160;</text>
<text text-anchor="start" x="356" y="-104.6" font-family="Helvetica Bold" font-size="8.00">OneToOneField (id)</text>
<text text-anchor="start" x="434" y="-104.6" font-family="Helvetica,sans-Serif" font-size="8.00"> &#160;&#160;&#160;&#160;&#160;</text>
<text text-anchor="start" x="254" y="-91.6" font-family="Helvetica,sans-Serif" font-size="8.00"> &#160;&#160;&#160;&#160;&#160;</text>
<text text-anchor="start" x="268" y="-91.6" font-family="Helvetica " font-size="8.00">dist_git_branch</text>
<text text-anchor="start" x="323" y="-91.6" font-family="Helvetica,sans-Serif" font-size="8.00"> &#160;&#160;&#160;&#160;&#160;</text>
<text text-anchor="start" x="342" y="-91.6" font-family="Helvetica,sans-Serif" font-size="8.00"> &#160;&#160;&#160;&#160;&#160;</text>
<text text-anchor="start" x="356" y="-91.6" font-family="Helvetica " font-size="8.00">CharField</text>
<text text-anchor="start" x="392" y="-91.6" font-family="Helvetica,sans-Serif" font-size="8.00"> &#160;&#160;&#160;&#160;&#160;</text>
</g>
<!-- pdc_apps_bindings_models_ReleaseDistGitMapping&#45;&gt;pdc_apps_release_models_Release -->
<g id="edge2" class="edge"><title>pdc_apps_bindings_models_ReleaseDistGitMapping&#45;&gt;pdc_apps_release_models_Release</title>
<path fill="none" stroke="black" d="M317.84,-82.429C307.09,-72.836 294.87,-62.573 283,-54 274.2,-47.645 264.17,-41.433 254.87,-36.048"/>
<text text-anchor="middle" x="351" y="-57.1" font-family="Helvetica,sans-Serif" font-size="8.00">release (releasedistgitmapping)</text>
</g>
<!-- pdc_apps_bindings_models_ReleaseComponentSRPMNameMapping -->
<g id="node3" class="node"><title>pdc_apps_bindings_models_ReleaseComponentSRPMNameMapping</title>
<polygon fill="palegoldenrod" stroke="none" points="484.5,-86.5 484.5,-143.5 705.5,-143.5 705.5,-86.5 484.5,-86.5"/>
<polygon fill="#698b22" stroke="none" points="485,-125 485,-143 706,-143 706,-125 485,-125"/>
<text text-anchor="start" x="496.5" y="-133.1" font-family="Helvetica,sans-Serif" font-size="8.00"> &#160;&#160;&#160;&#160;&#160;</text>
<text text-anchor="start" x="510.5" y="-133.1" font-family="Helvetica Bold" font-size="8.00" fill="white"> &#160;&#160;&#160;&#160;&#160;ReleaseComponentSRPMNameMapping &#160;&#160;&#160;&#160;&#160;</text>
<text text-anchor="start" x="487" y="-117.6" font-family="Helvetica,sans-Serif" font-size="8.00"> &#160;&#160;&#160;&#160;&#160;</text>
<text text-anchor="start" x="501" y="-117.6" font-family="Helvetica Bold" font-size="8.00">id</text>
<text text-anchor="start" x="509" y="-117.6" font-family="Helvetica,sans-Serif" font-size="8.00"> &#160;&#160;&#160;&#160;&#160;</text>
<text text-anchor="start" x="598" y="-117.6" font-family="Helvetica,sans-Serif" font-size="8.00"> &#160;&#160;&#160;&#160;&#160;</text>
<text text-anchor="start" x="612" y="-117.6" font-family="Helvetica Bold" font-size="8.00">AutoField</text>
<text text-anchor="start" x="652" y="-117.6" font-family="Helvetica,sans-Serif" font-size="8.00"> &#160;&#160;&#160;&#160;&#160;</text>
<text text-anchor="start" x="487" y="-104.6" font-family="Helvetica,sans-Serif" font-size="8.00"> &#160;&#160;&#160;&#160;&#160;</text>
<text text-anchor="start" x="501" y="-104.6" font-family="Helvetica Bold" font-size="8.00">release_component</text>
<text text-anchor="start" x="579" y="-104.6" font-family="Helvetica,sans-Serif" font-size="8.00"> &#160;&#160;&#160;&#160;&#160;</text>
<text text-anchor="start" x="598" y="-104.6" font-family="Helvetica,sans-Serif" font-size="8.00"> &#160;&#160;&#160;&#160;&#160;</text>
<text text-anchor="start" x="612" y="-104.6" font-family="Helvetica Bold" font-size="8.00">OneToOneField (id)</text>
<text text-anchor="start" x="690" y="-104.6" font-family="Helvetica,sans-Serif" font-size="8.00"> &#160;&#160;&#160;&#160;&#160;</text>
<text text-anchor="start" x="487" y="-91.6" font-family="Helvetica,sans-Serif" font-size="8.00"> &#160;&#160;&#160;&#160;&#160;</text>
<text text-anchor="start" x="501" y="-91.6" font-family="Helvetica " font-size="8.00">srpm_name</text>
<text text-anchor="start" x="544" y="-91.6" font-family="Helvetica,sans-Serif" font-size="8.00"> &#160;&#160;&#160;&#160;&#160;</text>
<text text-anchor="start" x="598" y="-91.6" font-family="Helvetica,sans-Serif" font-size="8.00"> &#160;&#160;&#160;&#160;&#160;</text>
<text text-anchor="start" x="612" y="-91.6" font-family="Helvetica " font-size="8.00">CharField</text>
<text text-anchor="start" x="648" y="-91.6" font-family="Helvetica,sans-Serif" font-size="8.00"> &#160;&#160;&#160;&#160;&#160;</text>
</g>
<!-- pdc_apps_component_models_ReleaseComponent -->
<g id="node5" class="node"><title>pdc_apps_component_models_ReleaseComponent</title>
<polygon fill="palegoldenrod" stroke="none" points="546.5,-9 546.5,-27 643.5,-27 643.5,-9 546.5,-9"/>
<polygon fill="#698b22" stroke="none" points="547,-9 547,-27 644,-27 644,-9 547,-9"/>
<text text-anchor="start" x="551.5" y="-17.1" font-family="Helvetica,sans-Serif" font-size="8.00"> &#160;</text>
<text text-anchor="start" x="556.5" y="-17.1" font-family="Helvetica Bold" font-size="8.00" fill="white">ReleaseComponent</text>
<text text-anchor="start" x="634.5" y="-17.1" font-family="Helvetica,sans-Serif" font-size="8.00"> &#160;</text>
</g>
<!-- pdc_apps_bindings_models_ReleaseComponentSRPMNameMapping&#45;&gt;pdc_apps_component_models_ReleaseComponent -->
<g id="edge3" class="edge"><title>pdc_apps_bindings_models_ReleaseComponentSRPMNameMapping&#45;&gt;pdc_apps_component_models_ReleaseComponent</title>
<path fill="none" stroke="black" d="M595,-82.366C595,-66.929 595,-48.966 595,-36.116"/>
<text text-anchor="middle" x="669" y="-57.1" font-family="Helvetica,sans-Serif" font-size="8.00">release_component (srpmnamemapping)</text>
</g>
</g>
</svg>
