<?xml version="1.0" encoding="UTF-8" standalone="no"?>
<!DOCTYPE svg PUBLIC "-//W3C//DTD SVG 1.1//EN"
 "http://www.w3.org/Graphics/SVG/1.1/DTD/svg11.dtd">
<!-- Generated by graphviz version 2.36.0 (20140111.2315)
 -->
<!-- Title: model_graph Pages: 1 -->
<svg width="522pt" height="132pt"
 viewBox="0.00 0.00 522.00 132.00" xmlns="http://www.w3.org/2000/svg" xmlns:xlink="http://www.w3.org/1999/xlink">
<g id="graph0" class="graph" transform="scale(1 1) rotate(0) translate(4 128)">
<title>model_graph</title>
<polygon fill="white" stroke="none" points="-4,4 -4,-128 518,-128 518,4 -4,4"/>
<g id="clust1" class="cluster"><title>cluster_pdc_apps_common</title>
<path fill="none" stroke="#698b22" d="M12,-0C12,-0 502,-0 502,-0 508,-0 514,-6 514,-12 514,-12 514,-112 514,-112 514,-118 508,-124 502,-124 502,-124 12,-124 12,-124 6,-124 0,-118 0,-112 0,-112 0,-12 0,-12 0,-6 6,-0 12,-0"/>
<text text-anchor="start" x="151" y="-106.9" font-family="Helvetica,sans-Serif" font-size="8.00"> &#160;&#160;&#160;&#160;&#160;&#160;&#160;&#160;&#160;</text>
<text text-anchor="start" x="174" y="-106.9" font-family="Helvetica Bold" font-size="12.00"> &#160;&#160;&#160;&#160;&#160;&#160;&#160;&#160;&#160;pdc.apps.common &#160;&#160;&#160;&#160;&#160;&#160;&#160;&#160;&#160;</text>
<text text-anchor="start" x="341" y="-106.9" font-family="Helvetica,sans-Serif" font-size="8.00"> &#160;&#160;&#160;&#160;&#160;&#160;&#160;&#160;&#160;</text>
</g>
<!-- pdc_apps_common_models_Arch -->
<g id="node1" class="node"><title>pdc_apps_common_models_Arch</title>
<polygon fill="palegoldenrod" stroke="none" points="372,-25 372,-69 498,-69 498,-25 372,-25"/>
<polygon fill="#698b22" stroke="none" points="372,-51 372,-69 498,-69 498,-51 372,-51"/>
<text text-anchor="start" x="405" y="-59.1" font-family="Helvetica,sans-Serif" font-size="8.00"> &#160;&#160;&#160;&#160;&#160;</text>
<text text-anchor="start" x="419" y="-59.1" font-family="Helvetica Bold" font-size="8.00" fill="white"> &#160;&#160;&#160;&#160;&#160;Arch &#160;&#160;&#160;&#160;&#160;</text>
<text text-anchor="start" x="374" y="-43.6" font-family="Helvetica,sans-Serif" font-size="8.00"> &#160;&#160;&#160;&#160;&#160;</text>
<text text-anchor="start" x="388" y="-43.6" font-family="Helvetica Bold" font-size="8.00">id</text>
<text text-anchor="start" x="396" y="-43.6" font-family="Helvetica,sans-Serif" font-size="8.00"> &#160;&#160;&#160;&#160;&#160;</text>
<text text-anchor="start" x="428" y="-43.6" font-family="Helvetica,sans-Serif" font-size="8.00"> &#160;&#160;&#160;&#160;&#160;</text>
<text text-anchor="start" x="442" y="-43.6" font-family="Helvetica Bold" font-size="8.00">AutoField</text>
<text text-anchor="start" x="482" y="-43.6" font-family="Helvetica,sans-Serif" font-size="8.00"> &#160;&#160;&#160;&#160;&#160;</text>
<text text-anchor="start" x="374" y="-30.6" font-family="Helvetica,sans-Serif" font-size="8.00"> &#160;&#160;&#160;&#160;&#160;</text>
<text text-anchor="start" x="388" y="-30.6" font-family="Helvetica " font-size="8.00">name</text>
<text text-anchor="start" x="409" y="-30.6" font-family="Helvetica,sans-Serif" font-size="8.00"> &#160;&#160;&#160;&#160;&#160;</text>
<text text-anchor="start" x="428" y="-30.6" font-family="Helvetica,sans-Serif" font-size="8.00"> &#160;&#160;&#160;&#160;&#160;</text>
<text text-anchor="start" x="442" y="-30.6" font-family="Helvetica " font-size="8.00">CharField</text>
<text text-anchor="start" x="478" y="-30.6" font-family="Helvetica,sans-Serif" font-size="8.00"> &#160;&#160;&#160;&#160;&#160;</text>
</g>
<!-- pdc_apps_common_models_SigKey -->
<g id="node2" class="node"><title>pdc_apps_common_models_SigKey</title>
<polygon fill="palegoldenrod" stroke="none" points="194,-12 194,-82 338,-82 338,-12 194,-12"/>
<polygon fill="#698b22" stroke="none" points="194,-64 194,-82 338,-82 338,-64 194,-64"/>
<text text-anchor="start" x="231.5" y="-72.1" font-family="Helvetica,sans-Serif" font-size="8.00"> &#160;&#160;&#160;&#160;&#160;</text>
<text text-anchor="start" x="245.5" y="-72.1" font-family="Helvetica Bold" font-size="8.00" fill="white"> &#160;&#160;&#160;&#160;&#160;SigKey &#160;&#160;&#160;&#160;&#160;</text>
<text text-anchor="start" x="196" y="-56.6" font-family="Helvetica,sans-Serif" font-size="8.00"> &#160;&#160;&#160;&#160;&#160;</text>
<text text-anchor="start" x="210" y="-56.6" font-family="Helvetica Bold" font-size="8.00">id</text>
<text text-anchor="start" x="218" y="-56.6" font-family="Helvetica,sans-Serif" font-size="8.00"> &#160;&#160;&#160;&#160;&#160;</text>
<text text-anchor="start" x="268" y="-56.6" font-family="Helvetica,sans-Serif" font-size="8.00"> &#160;&#160;&#160;&#160;&#160;</text>
<text text-anchor="start" x="282" y="-56.6" font-family="Helvetica Bold" font-size="8.00">AutoField</text>
<text text-anchor="start" x="322" y="-56.6" font-family="Helvetica,sans-Serif" font-size="8.00"> &#160;&#160;&#160;&#160;&#160;</text>
<text text-anchor="start" x="196" y="-43.6" font-family="Helvetica,sans-Serif" font-size="8.00"> &#160;&#160;&#160;&#160;&#160;</text>
<text text-anchor="start" x="210" y="-43.6" font-family="Helvetica " font-size="8.00" fill="#7b7b7b">description</text>
<text text-anchor="start" x="249" y="-43.6" font-family="Helvetica,sans-Serif" font-size="8.00"> &#160;&#160;&#160;&#160;&#160;</text>
<text text-anchor="start" x="268" y="-43.6" font-family="Helvetica,sans-Serif" font-size="8.00"> &#160;&#160;&#160;&#160;&#160;</text>
<text text-anchor="start" x="282" y="-43.6" font-family="Helvetica " font-size="8.00" fill="#7b7b7b">CharField</text>
<text text-anchor="start" x="318" y="-43.6" font-family="Helvetica,sans-Serif" font-size="8.00"> &#160;&#160;&#160;&#160;&#160;</text>
<text text-anchor="start" x="196" y="-30.6" font-family="Helvetica,sans-Serif" font-size="8.00"> &#160;&#160;&#160;&#160;&#160;</text>
<text text-anchor="start" x="210" y="-30.6" font-family="Helvetica " font-size="8.00">key_id</text>
<text text-anchor="start" x="233" y="-30.6" font-family="Helvetica,sans-Serif" font-size="8.00"> &#160;&#160;&#160;&#160;&#160;</text>
<text text-anchor="start" x="268" y="-30.6" font-family="Helvetica,sans-Serif" font-size="8.00"> &#160;&#160;&#160;&#160;&#160;</text>
<text text-anchor="start" x="282" y="-30.6" font-family="Helvetica " font-size="8.00">CharField</text>
<text text-anchor="start" x="318" y="-30.6" font-family="Helvetica,sans-Serif" font-size="8.00"> &#160;&#160;&#160;&#160;&#160;</text>
<text text-anchor="start" x="196" y="-17.6" font-family="Helvetica,sans-Serif" font-size="8.00"> &#160;&#160;&#160;&#160;&#160;</text>
<text text-anchor="start" x="210" y="-17.6" font-family="Helvetica " font-size="8.00" fill="#7b7b7b">name</text>
<text text-anchor="start" x="231" y="-17.6" font-family="Helvetica,sans-Serif" font-size="8.00"> &#160;&#160;&#160;&#160;&#160;</text>
<text text-anchor="start" x="268" y="-17.6" font-family="Helvetica,sans-Serif" font-size="8.00"> &#160;&#160;&#160;&#160;&#160;</text>
<text text-anchor="start" x="282" y="-17.6" font-family="Helvetica " font-size="8.00" fill="#7b7b7b">CharField</text>
<text text-anchor="start" x="318" y="-17.6" font-family="Helvetica,sans-Serif" font-size="8.00"> &#160;&#160;&#160;&#160;&#160;</text>
</g>
<!-- pdc_apps_common_models_Label -->
<g id="node3" class="node"><title>pdc_apps_common_models_Label</title>
<polygon fill="palegoldenrod" stroke="none" points="16,-18.5 16,-75.5 160,-75.5 160,-18.5 16,-18.5"/>
<polygon fill="#698b22" stroke="none" points="16,-57 16,-75 160,-75 160,-57 16,-57"/>
<text text-anchor="start" x="56.5" y="-65.1" font-family="Helvetica,sans-Serif" font-size="8.00"> &#160;&#160;&#160;&#160;&#160;</text>
<text text-anchor="start" x="70.5" y="-65.1" font-family="Helvetica Bold" font-size="8.00" fill="white"> &#160;&#160;&#160;&#160;&#160;Label &#160;&#160;&#160;&#160;&#160;</text>
<text text-anchor="start" x="18" y="-49.6" font-family="Helvetica,sans-Serif" font-size="8.00"> &#160;&#160;&#160;&#160;&#160;</text>
<text text-anchor="start" x="32" y="-49.6" font-family="Helvetica Bold" font-size="8.00">id</text>
<text text-anchor="start" x="40" y="-49.6" font-family="Helvetica,sans-Serif" font-size="8.00"> &#160;&#160;&#160;&#160;&#160;</text>
<text text-anchor="start" x="90" y="-49.6" font-family="Helvetica,sans-Serif" font-size="8.00"> &#160;&#160;&#160;&#160;&#160;</text>
<text text-anchor="start" x="104" y="-49.6" font-family="Helvetica Bold" font-size="8.00">AutoField</text>
<text text-anchor="start" x="144" y="-49.6" font-family="Helvetica,sans-Serif" font-size="8.00"> &#160;&#160;&#160;&#160;&#160;</text>
<text text-anchor="start" x="18" y="-36.6" font-family="Helvetica,sans-Serif" font-size="8.00"> &#160;&#160;&#160;&#160;&#160;</text>
<text text-anchor="start" x="32" y="-36.6" font-family="Helvetica " font-size="8.00">description</text>
<text text-anchor="start" x="71" y="-36.6" font-family="Helvetica,sans-Serif" font-size="8.00"> &#160;&#160;&#160;&#160;&#160;</text>
<text text-anchor="start" x="90" y="-36.6" font-family="Helvetica,sans-Serif" font-size="8.00"> &#160;&#160;&#160;&#160;&#160;</text>
<text text-anchor="start" x="104" y="-36.6" font-family="Helvetica " font-size="8.00">CharField</text>
<text text-anchor="start" x="140" y="-36.6" font-family="Helvetica,sans-Serif" font-size="8.00"> &#160;&#160;&#160;&#160;&#160;</text>
<text text-anchor="start" x="18" y="-23.6" font-family="Helvetica,sans-Serif" font-size="8.00"> &#160;&#160;&#160;&#160;&#160;</text>
<text text-anchor="start" x="32" y="-23.6" font-family="Helvetica " font-size="8.00">name</text>
<text text-anchor="start" x="53" y="-23.6" font-family="Helvetica,sans-Serif" font-size="8.00"> &#160;&#160;&#160;&#160;&#160;</text>
<text text-anchor="start" x="90" y="-23.6" font-family="Helvetica,sans-Serif" font-size="8.00"> &#160;&#160;&#160;&#160;&#160;</text>
<text text-anchor="start" x="104" y="-23.6" font-family="Helvetica " font-size="8.00">CharField</text>
<text text-anchor="start" x="140" y="-23.6" font-family="Helvetica,sans-Serif" font-size="8.00"> &#160;&#160;&#160;&#160;&#160;</text>
</g>
</g>
</svg>
