<?xml version="1.0" encoding="UTF-8" standalone="no"?>
<!DOCTYPE svg PUBLIC "-//W3C//DTD SVG 1.1//EN"
 "http://www.w3.org/Graphics/SVG/1.1/DTD/svg11.dtd">
<!-- Generated by graphviz version 2.38.0 (20140413.2041)
 -->
<!-- Title: model_graph Pages: 1 -->
<svg width="536pt" height="146pt"
 viewBox="0.00 0.00 536.00 146.00" xmlns="http://www.w3.org/2000/svg" xmlns:xlink="http://www.w3.org/1999/xlink">
<g id="graph0" class="graph" transform="scale(1 1) rotate(0) translate(4 142)">
<title>model_graph</title>
<polygon fill="white" stroke="none" points="-4,4 -4,-142 532,-142 532,4 -4,4"/>
<g id="clust1" class="cluster"><title>cluster_pdc_apps_common_models</title>
<path fill="none" stroke="#698b22" d="M20,-8C20,-8 508,-8 508,-8 514,-8 520,-14 520,-20 520,-20 520,-118 520,-118 520,-124 514,-130 508,-130 508,-130 20,-130 20,-130 14,-130 8,-124 8,-118 8,-118 8,-20 8,-20 8,-14 14,-8 20,-8"/>
<text text-anchor="start" x="157.5" y="-112.9" font-family="Helvetica,sans-Serif" font-size="8.00"> &#160;&#160;&#160;&#160;&#160;&#160;&#160;&#160;&#160;</text>
<text text-anchor="start" x="180.5" y="-112.9" font-family="Helvetica Bold" font-size="12.00"> &#160;&#160;&#160;&#160;&#160;&#160;&#160;&#160;&#160;pdc.apps.common &#160;&#160;&#160;&#160;&#160;&#160;&#160;&#160;&#160;</text>
<text text-anchor="start" x="347.5" y="-112.9" font-family="Helvetica,sans-Serif" font-size="8.00"> &#160;&#160;&#160;&#160;&#160;&#160;&#160;&#160;&#160;</text>
</g>
<!-- pdc_apps_common_models_Arch -->
<g id="node1" class="node"><title>pdc_apps_common_models_Arch</title>
<polygon fill="palegoldenrod" stroke="none" points="378.5,-33 378.5,-76 503.5,-76 503.5,-33 378.5,-33"/>
<polygon fill="#698b22" stroke="none" points="379,-58.5 379,-75.5 504,-75.5 504,-58.5 379,-58.5"/>
<text text-anchor="start" x="411.5" y="-66.1" font-family="Helvetica,sans-Serif" font-size="8.00"> &#160;&#160;&#160;&#160;&#160;</text>
<text text-anchor="start" x="425.5" y="-66.1" font-family="Helvetica Bold" font-size="8.00" fill="white"> &#160;&#160;&#160;&#160;&#160;Arch &#160;&#160;&#160;&#160;&#160;</text>
<text text-anchor="start" x="381" y="-51.1" font-family="Helvetica,sans-Serif" font-size="8.00"> &#160;&#160;&#160;&#160;&#160;</text>
<text text-anchor="start" x="395" y="-51.1" font-family="Helvetica Bold" font-size="8.00">id</text>
<text text-anchor="start" x="403" y="-51.1" font-family="Helvetica,sans-Serif" font-size="8.00"> &#160;&#160;&#160;&#160;&#160;</text>
<text text-anchor="start" x="434" y="-51.1" font-family="Helvetica,sans-Serif" font-size="8.00"> &#160;&#160;&#160;&#160;&#160;</text>
<text text-anchor="start" x="448" y="-51.1" font-family="Helvetica Bold" font-size="8.00">AutoField</text>
<text text-anchor="start" x="488" y="-51.1" font-family="Helvetica,sans-Serif" font-size="8.00"> &#160;&#160;&#160;&#160;&#160;</text>
<text text-anchor="start" x="381" y="-38.1" font-family="Helvetica,sans-Serif" font-size="8.00"> &#160;&#160;&#160;&#160;&#160;</text>
<text text-anchor="start" x="395" y="-38.1" font-family="Helvetica " font-size="8.00">name</text>
<text text-anchor="start" x="416" y="-38.1" font-family="Helvetica,sans-Serif" font-size="8.00"> &#160;&#160;&#160;&#160;&#160;</text>
<text text-anchor="start" x="434" y="-38.1" font-family="Helvetica,sans-Serif" font-size="8.00"> &#160;&#160;&#160;&#160;&#160;</text>
<text text-anchor="start" x="448" y="-38.1" font-family="Helvetica " font-size="8.00">CharField</text>
<text text-anchor="start" x="484" y="-38.1" font-family="Helvetica,sans-Serif" font-size="8.00"> &#160;&#160;&#160;&#160;&#160;</text>
</g>
<!-- pdc_apps_common_models_SigKey -->
<g id="node2" class="node"><title>pdc_apps_common_models_SigKey</title>
<polygon fill="palegoldenrod" stroke="none" points="201.5,-20 201.5,-89 344.5,-89 344.5,-20 201.5,-20"/>
<polygon fill="#698b22" stroke="none" points="202,-71.5 202,-88.5 345,-88.5 345,-71.5 202,-71.5"/>
<text text-anchor="start" x="239" y="-79.1" font-family="Helvetica,sans-Serif" font-size="8.00"> &#160;&#160;&#160;&#160;&#160;</text>
<text text-anchor="start" x="253" y="-79.1" font-family="Helvetica Bold" font-size="8.00" fill="white"> &#160;&#160;&#160;&#160;&#160;SigKey &#160;&#160;&#160;&#160;&#160;</text>
<text text-anchor="start" x="204" y="-64.1" font-family="Helvetica,sans-Serif" font-size="8.00"> &#160;&#160;&#160;&#160;&#160;</text>
<text text-anchor="start" x="218" y="-64.1" font-family="Helvetica Bold" font-size="8.00">id</text>
<text text-anchor="start" x="226" y="-64.1" font-family="Helvetica,sans-Serif" font-size="8.00"> &#160;&#160;&#160;&#160;&#160;</text>
<text text-anchor="start" x="275" y="-64.1" font-family="Helvetica,sans-Serif" font-size="8.00"> &#160;&#160;&#160;&#160;&#160;</text>
<text text-anchor="start" x="289" y="-64.1" font-family="Helvetica Bold" font-size="8.00">AutoField</text>
<text text-anchor="start" x="329" y="-64.1" font-family="Helvetica,sans-Serif" font-size="8.00"> &#160;&#160;&#160;&#160;&#160;</text>
<text text-anchor="start" x="204" y="-51.1" font-family="Helvetica,sans-Serif" font-size="8.00"> &#160;&#160;&#160;&#160;&#160;</text>
<text text-anchor="start" x="218" y="-51.1" font-family="Helvetica " font-size="8.00" fill="#7b7b7b">description</text>
<text text-anchor="start" x="257" y="-51.1" font-family="Helvetica,sans-Serif" font-size="8.00"> &#160;&#160;&#160;&#160;&#160;</text>
<text text-anchor="start" x="275" y="-51.1" font-family="Helvetica,sans-Serif" font-size="8.00"> &#160;&#160;&#160;&#160;&#160;</text>
<text text-anchor="start" x="289" y="-51.1" font-family="Helvetica " font-size="8.00" fill="#7b7b7b">CharField</text>
<text text-anchor="start" x="325" y="-51.1" font-family="Helvetica,sans-Serif" font-size="8.00"> &#160;&#160;&#160;&#160;&#160;</text>
<text text-anchor="start" x="204" y="-38.1" font-family="Helvetica,sans-Serif" font-size="8.00"> &#160;&#160;&#160;&#160;&#160;</text>
<text text-anchor="start" x="218" y="-38.1" font-family="Helvetica " font-size="8.00">key_id</text>
<text text-anchor="start" x="241" y="-38.1" font-family="Helvetica,sans-Serif" font-size="8.00"> &#160;&#160;&#160;&#160;&#160;</text>
<text text-anchor="start" x="275" y="-38.1" font-family="Helvetica,sans-Serif" font-size="8.00"> &#160;&#160;&#160;&#160;&#160;</text>
<text text-anchor="start" x="289" y="-38.1" font-family="Helvetica " font-size="8.00">CharField</text>
<text text-anchor="start" x="325" y="-38.1" font-family="Helvetica,sans-Serif" font-size="8.00"> &#160;&#160;&#160;&#160;&#160;</text>
<text text-anchor="start" x="204" y="-25.1" font-family="Helvetica,sans-Serif" font-size="8.00"> &#160;&#160;&#160;&#160;&#160;</text>
<text text-anchor="start" x="218" y="-25.1" font-family="Helvetica " font-size="8.00" fill="#7b7b7b">name</text>
<text text-anchor="start" x="239" y="-25.1" font-family="Helvetica,sans-Serif" font-size="8.00"> &#160;&#160;&#160;&#160;&#160;</text>
<text text-anchor="start" x="275" y="-25.1" font-family="Helvetica,sans-Serif" font-size="8.00"> &#160;&#160;&#160;&#160;&#160;</text>
<text text-anchor="start" x="289" y="-25.1" font-family="Helvetica " font-size="8.00" fill="#7b7b7b">CharField</text>
<text text-anchor="start" x="325" y="-25.1" font-family="Helvetica,sans-Serif" font-size="8.00"> &#160;&#160;&#160;&#160;&#160;</text>
</g>
<!-- pdc_apps_common_models_Label -->
<g id="node3" class="node"><title>pdc_apps_common_models_Label</title>
<polygon fill="palegoldenrod" stroke="none" points="24.5,-26.5 24.5,-82.5 167.5,-82.5 167.5,-26.5 24.5,-26.5"/>
<polygon fill="#698b22" stroke="none" points="25,-65.5 25,-82.5 168,-82.5 168,-65.5 25,-65.5"/>
<text text-anchor="start" x="65" y="-73.1" font-family="Helvetica,sans-Serif" font-size="8.00"> &#160;&#160;&#160;&#160;&#160;</text>
<text text-anchor="start" x="79" y="-73.1" font-family="Helvetica Bold" font-size="8.00" fill="white"> &#160;&#160;&#160;&#160;&#160;Label &#160;&#160;&#160;&#160;&#160;</text>
<text text-anchor="start" x="27" y="-58.1" font-family="Helvetica,sans-Serif" font-size="8.00"> &#160;&#160;&#160;&#160;&#160;</text>
<text text-anchor="start" x="41" y="-58.1" font-family="Helvetica Bold" font-size="8.00">id</text>
<text text-anchor="start" x="49" y="-58.1" font-family="Helvetica,sans-Serif" font-size="8.00"> &#160;&#160;&#160;&#160;&#160;</text>
<text text-anchor="start" x="98" y="-58.1" font-family="Helvetica,sans-Serif" font-size="8.00"> &#160;&#160;&#160;&#160;&#160;</text>
<text text-anchor="start" x="112" y="-58.1" font-family="Helvetica Bold" font-size="8.00">AutoField</text>
<text text-anchor="start" x="152" y="-58.1" font-family="Helvetica,sans-Serif" font-size="8.00"> &#160;&#160;&#160;&#160;&#160;</text>
<text text-anchor="start" x="27" y="-45.1" font-family="Helvetica,sans-Serif" font-size="8.00"> &#160;&#160;&#160;&#160;&#160;</text>
<text text-anchor="start" x="41" y="-45.1" font-family="Helvetica " font-size="8.00">description</text>
<text text-anchor="start" x="80" y="-45.1" font-family="Helvetica,sans-Serif" font-size="8.00"> &#160;&#160;&#160;&#160;&#160;</text>
<text text-anchor="start" x="98" y="-45.1" font-family="Helvetica,sans-Serif" font-size="8.00"> &#160;&#160;&#160;&#160;&#160;</text>
<text text-anchor="start" x="112" y="-45.1" font-family="Helvetica " font-size="8.00">CharField</text>
<text text-anchor="start" x="148" y="-45.1" font-family="Helvetica,sans-Serif" font-size="8.00"> &#160;&#160;&#160;&#160;&#160;</text>
<text text-anchor="start" x="27" y="-32.1" font-family="Helvetica,sans-Serif" font-size="8.00"> &#160;&#160;&#160;&#160;&#160;</text>
<text text-anchor="start" x="41" y="-32.1" font-family="Helvetica " font-size="8.00">name</text>
<text text-anchor="start" x="62" y="-32.1" font-family="Helvetica,sans-Serif" font-size="8.00"> &#160;&#160;&#160;&#160;&#160;</text>
<text text-anchor="start" x="98" y="-32.1" font-family="Helvetica,sans-Serif" font-size="8.00"> &#160;&#160;&#160;&#160;&#160;</text>
<text text-anchor="start" x="112" y="-32.1" font-family="Helvetica " font-size="8.00">CharField</text>
<text text-anchor="start" x="148" y="-32.1" font-family="Helvetica,sans-Serif" font-size="8.00"> &#160;&#160;&#160;&#160;&#160;</text>
</g>
</g>
</svg>
