<?xml version="1.0" encoding="UTF-8" standalone="no"?>
<!DOCTYPE svg PUBLIC "-//W3C//DTD SVG 1.1//EN"
 "http://www.w3.org/Graphics/SVG/1.1/DTD/svg11.dtd">
<!-- Generated by graphviz version 2.36.0 (20140111.2315)
 -->
<!-- Title: model_graph Pages: 1 -->
<svg width="1184pt" height="318pt"
 viewBox="0.00 0.00 1184.00 318.00" xmlns="http://www.w3.org/2000/svg" xmlns:xlink="http://www.w3.org/1999/xlink">
<g id="graph0" class="graph" transform="scale(1 1) rotate(0) translate(4 314)">
<title>model_graph</title>
<polygon fill="white" stroke="none" points="-4,4 -4,-314 1180,-314 1180,4 -4,4"/>
<g id="clust1" class="cluster"><title>cluster_pdc_apps_contact</title>
<path fill="none" stroke="#698b22" d="M12,-74C12,-74 833,-74 833,-74 839,-74 845,-80 845,-86 845,-86 845,-298 845,-298 845,-304 839,-310 833,-310 833,-310 12,-310 12,-310 6,-310 0,-304 0,-298 0,-298 0,-86 0,-86 0,-80 6,-74 12,-74"/>
<text text-anchor="start" x="320" y="-292.9" font-family="Helvetica,sans-Serif" font-size="8.00"> &#160;&#160;&#160;&#160;&#160;&#160;&#160;&#160;&#160;</text>
<text text-anchor="start" x="343" y="-292.9" font-family="Helvetica Bold" font-size="12.00"> &#160;&#160;&#160;&#160;&#160;&#160;&#160;&#160;&#160;pdc.apps.contact &#160;&#160;&#160;&#160;&#160;&#160;&#160;&#160;&#160;</text>
<text text-anchor="start" x="503" y="-292.9" font-family="Helvetica,sans-Serif" font-size="8.00"> &#160;&#160;&#160;&#160;&#160;&#160;&#160;&#160;&#160;</text>
</g>
<!-- pdc_apps_contact_models_ContactRole -->
<g id="node1" class="node"><title>pdc_apps_contact_models_ContactRole</title>
<polygon fill="palegoldenrod" stroke="none" points="485.5,-86.5 485.5,-143.5 678.5,-143.5 678.5,-86.5 485.5,-86.5"/>
<polygon fill="#698b22" stroke="none" points="486,-125 486,-143 679,-143 679,-125 486,-125"/>
<text text-anchor="start" x="537" y="-133.1" font-family="Helvetica,sans-Serif" font-size="8.00"> &#160;&#160;&#160;&#160;&#160;</text>
<text text-anchor="start" x="551" y="-133.1" font-family="Helvetica Bold" font-size="8.00" fill="white"> &#160;&#160;&#160;&#160;&#160;ContactRole &#160;&#160;&#160;&#160;&#160;</text>
<text text-anchor="start" x="488" y="-117.6" font-family="Helvetica,sans-Serif" font-size="8.00"> &#160;&#160;&#160;&#160;&#160;</text>
<text text-anchor="start" x="502" y="-117.6" font-family="Helvetica Bold" font-size="8.00">id</text>
<text text-anchor="start" x="510" y="-117.6" font-family="Helvetica,sans-Serif" font-size="8.00"> &#160;&#160;&#160;&#160;&#160;</text>
<text text-anchor="start" x="559" y="-117.6" font-family="Helvetica,sans-Serif" font-size="8.00"> &#160;&#160;&#160;&#160;&#160;</text>
<text text-anchor="start" x="573" y="-117.6" font-family="Helvetica Bold" font-size="8.00">AutoField</text>
<text text-anchor="start" x="613" y="-117.6" font-family="Helvetica,sans-Serif" font-size="8.00"> &#160;&#160;&#160;&#160;&#160;</text>
<text text-anchor="start" x="488" y="-104.6" font-family="Helvetica,sans-Serif" font-size="8.00"> &#160;&#160;&#160;&#160;&#160;</text>
<text text-anchor="start" x="502" y="-104.6" font-family="Helvetica " font-size="8.00">count_limit</text>
<text text-anchor="start" x="540" y="-104.6" font-family="Helvetica,sans-Serif" font-size="8.00"> &#160;&#160;&#160;&#160;&#160;</text>
<text text-anchor="start" x="559" y="-104.6" font-family="Helvetica,sans-Serif" font-size="8.00"> &#160;&#160;&#160;&#160;&#160;</text>
<text text-anchor="start" x="573" y="-104.6" font-family="Helvetica " font-size="8.00">PositiveSmallIntegerField</text>
<text text-anchor="start" x="663" y="-104.6" font-family="Helvetica,sans-Serif" font-size="8.00"> &#160;&#160;&#160;&#160;&#160;</text>
<text text-anchor="start" x="488" y="-91.6" font-family="Helvetica,sans-Serif" font-size="8.00"> &#160;&#160;&#160;&#160;&#160;</text>
<text text-anchor="start" x="502" y="-91.6" font-family="Helvetica " font-size="8.00">name</text>
<text text-anchor="start" x="523" y="-91.6" font-family="Helvetica,sans-Serif" font-size="8.00"> &#160;&#160;&#160;&#160;&#160;</text>
<text text-anchor="start" x="559" y="-91.6" font-family="Helvetica,sans-Serif" font-size="8.00"> &#160;&#160;&#160;&#160;&#160;</text>
<text text-anchor="start" x="573" y="-91.6" font-family="Helvetica " font-size="8.00">CharField</text>
<text text-anchor="start" x="609" y="-91.6" font-family="Helvetica,sans-Serif" font-size="8.00"> &#160;&#160;&#160;&#160;&#160;</text>
</g>
<!-- pdc_apps_contact_models_Contact -->
<g id="node2" class="node"><title>pdc_apps_contact_models_Contact</title>
<polygon fill="palegoldenrod" stroke="none" points="167,-86.5 167,-143.5 347,-143.5 347,-86.5 167,-86.5"/>
<polygon fill="#698b22" stroke="none" points="167,-125 167,-143 347,-143 347,-125 167,-125"/>
<text text-anchor="start" x="220.5" y="-133.1" font-family="Helvetica,sans-Serif" font-size="8.00"> &#160;&#160;&#160;&#160;&#160;</text>
<text text-anchor="start" x="234.5" y="-133.1" font-family="Helvetica Bold" font-size="8.00" fill="white"> &#160;&#160;&#160;&#160;&#160;Contact &#160;&#160;&#160;&#160;&#160;</text>
<text text-anchor="start" x="169" y="-117.6" font-family="Helvetica,sans-Serif" font-size="8.00"> &#160;&#160;&#160;&#160;&#160;</text>
<text text-anchor="start" x="183" y="-117.6" font-family="Helvetica Bold" font-size="8.00">id</text>
<text text-anchor="start" x="191" y="-117.6" font-family="Helvetica,sans-Serif" font-size="8.00"> &#160;&#160;&#160;&#160;&#160;</text>
<text text-anchor="start" x="255" y="-117.6" font-family="Helvetica,sans-Serif" font-size="8.00"> &#160;&#160;&#160;&#160;&#160;</text>
<text text-anchor="start" x="269" y="-117.6" font-family="Helvetica Bold" font-size="8.00">AutoField</text>
<text text-anchor="start" x="309" y="-117.6" font-family="Helvetica,sans-Serif" font-size="8.00"> &#160;&#160;&#160;&#160;&#160;</text>
<text text-anchor="start" x="169" y="-104.6" font-family="Helvetica,sans-Serif" font-size="8.00"> &#160;&#160;&#160;&#160;&#160;</text>
<text text-anchor="start" x="183" y="-104.6" font-family="Helvetica Bold" font-size="8.00">content_type</text>
<text text-anchor="start" x="236" y="-104.6" font-family="Helvetica,sans-Serif" font-size="8.00"> &#160;&#160;&#160;&#160;&#160;</text>
<text text-anchor="start" x="255" y="-104.6" font-family="Helvetica,sans-Serif" font-size="8.00"> &#160;&#160;&#160;&#160;&#160;</text>
<text text-anchor="start" x="269" y="-104.6" font-family="Helvetica Bold" font-size="8.00">ForeignKey (id)</text>
<text text-anchor="start" x="331" y="-104.6" font-family="Helvetica,sans-Serif" font-size="8.00"> &#160;&#160;&#160;&#160;&#160;</text>
<text text-anchor="start" x="169" y="-91.6" font-family="Helvetica,sans-Serif" font-size="8.00"> &#160;&#160;&#160;&#160;&#160;</text>
<text text-anchor="start" x="183" y="-91.6" font-family="Helvetica " font-size="8.00" fill="#7b7b7b">active</text>
<text text-anchor="start" x="204" y="-91.6" font-family="Helvetica,sans-Serif" font-size="8.00"> &#160;&#160;&#160;&#160;&#160;</text>
<text text-anchor="start" x="255" y="-91.6" font-family="Helvetica,sans-Serif" font-size="8.00"> &#160;&#160;&#160;&#160;&#160;</text>
<text text-anchor="start" x="269" y="-91.6" font-family="Helvetica " font-size="8.00" fill="#7b7b7b">BooleanField</text>
<text text-anchor="start" x="316" y="-91.6" font-family="Helvetica,sans-Serif" font-size="8.00"> &#160;&#160;&#160;&#160;&#160;</text>
</g>
<!-- django_contrib_contenttypes_models_ContentType -->
<g id="node7" class="node"><title>django_contrib_contenttypes_models_ContentType</title>
<polygon fill="palegoldenrod" stroke="none" points="221.5,-9 221.5,-27 292.5,-27 292.5,-9 221.5,-9"/>
<polygon fill="#698b22" stroke="none" points="222,-9 222,-27 293,-27 293,-9 222,-9"/>
<text text-anchor="start" x="226.5" y="-17.1" font-family="Helvetica,sans-Serif" font-size="8.00"> &#160;</text>
<text text-anchor="start" x="231.5" y="-17.1" font-family="Helvetica Bold" font-size="8.00" fill="white">ContentType</text>
<text text-anchor="start" x="283.5" y="-17.1" font-family="Helvetica,sans-Serif" font-size="8.00"> &#160;</text>
</g>
<!-- pdc_apps_contact_models_Contact&#45;&gt;django_contrib_contenttypes_models_ContentType -->
<g id="edge7" class="edge"><title>pdc_apps_contact_models_Contact&#45;&gt;django_contrib_contenttypes_models_ContentType</title>
<path fill="none" stroke="black" d="M257,-74.222C257,-60.906 257,-46.758 257,-36.116"/>
<ellipse fill="black" stroke="black" cx="257" cy="-78.366" rx="4" ry="4"/>
<text text-anchor="middle" x="297" y="-57.1" font-family="Helvetica,sans-Serif" font-size="8.00">content_type (contact)</text>
</g>
<!-- pdc_apps_contact_models_Person -->
<g id="node3" class="node"><title>pdc_apps_contact_models_Person</title>
<polygon fill="palegoldenrod" stroke="none" points="234,-204.5 234,-261.5 414,-261.5 414,-204.5 234,-204.5"/>
<polygon fill="#698b22" stroke="none" points="234,-243 234,-261 414,-261 414,-243 234,-243"/>
<text text-anchor="start" x="289.5" y="-251.1" font-family="Helvetica,sans-Serif" font-size="8.00"> &#160;&#160;&#160;&#160;&#160;</text>
<text text-anchor="start" x="303.5" y="-251.1" font-family="Helvetica Bold" font-size="8.00" fill="white"> &#160;&#160;&#160;&#160;&#160;Person &#160;&#160;&#160;&#160;&#160;</text>
<text text-anchor="start" x="236" y="-235.6" font-family="Helvetica,sans-Serif" font-size="8.00"> &#160;&#160;&#160;&#160;&#160;</text>
<text text-anchor="start" x="250" y="-235.6" font-family="Helvetica Bold" font-size="8.00">contact</text>
<text text-anchor="start" x="281" y="-235.6" font-family="Helvetica,sans-Serif" font-size="8.00"> &#160;&#160;&#160;&#160;&#160;</text>
<text text-anchor="start" x="306" y="-235.6" font-family="Helvetica,sans-Serif" font-size="8.00"> &#160;&#160;&#160;&#160;&#160;</text>
<text text-anchor="start" x="320" y="-235.6" font-family="Helvetica Bold" font-size="8.00">OneToOneField (id)</text>
<text text-anchor="start" x="398" y="-235.6" font-family="Helvetica,sans-Serif" font-size="8.00"> &#160;&#160;&#160;&#160;&#160;</text>
<text text-anchor="start" x="236" y="-222.6" font-family="Helvetica,sans-Serif" font-size="8.00"> &#160;&#160;&#160;&#160;&#160;</text>
<text text-anchor="start" x="250" y="-222.6" font-family="Helvetica " font-size="8.00">email</text>
<text text-anchor="start" x="269" y="-222.6" font-family="Helvetica,sans-Serif" font-size="8.00"> &#160;&#160;&#160;&#160;&#160;</text>
<text text-anchor="start" x="306" y="-222.6" font-family="Helvetica,sans-Serif" font-size="8.00"> &#160;&#160;&#160;&#160;&#160;</text>
<text text-anchor="start" x="320" y="-222.6" font-family="Helvetica " font-size="8.00">EmailField</text>
<text text-anchor="start" x="357" y="-222.6" font-family="Helvetica,sans-Serif" font-size="8.00"> &#160;&#160;&#160;&#160;&#160;</text>
<text text-anchor="start" x="236" y="-209.6" font-family="Helvetica,sans-Serif" font-size="8.00"> &#160;&#160;&#160;&#160;&#160;</text>
<text text-anchor="start" x="250" y="-209.6" font-family="Helvetica " font-size="8.00">username</text>
<text text-anchor="start" x="287" y="-209.6" font-family="Helvetica,sans-Serif" font-size="8.00"> &#160;&#160;&#160;&#160;&#160;</text>
<text text-anchor="start" x="306" y="-209.6" font-family="Helvetica,sans-Serif" font-size="8.00"> &#160;&#160;&#160;&#160;&#160;</text>
<text text-anchor="start" x="320" y="-209.6" font-family="Helvetica " font-size="8.00">CharField</text>
<text text-anchor="start" x="356" y="-209.6" font-family="Helvetica,sans-Serif" font-size="8.00"> &#160;&#160;&#160;&#160;&#160;</text>
</g>
<!-- pdc_apps_contact_models_Person&#45;&gt;pdc_apps_contact_models_Contact -->
<g id="edge1" class="edge"><title>pdc_apps_contact_models_Person&#45;&gt;pdc_apps_contact_models_Contact</title>
<path fill="none" stroke="black" d="M239.97,-200.33C230.86,-193.63 222.81,-185.6 217,-176 211.36,-166.68 214.17,-156.77 220.35,-147.74"/>
<text text-anchor="middle" x="246.5" y="-169.1" font-family="Helvetica,sans-Serif" font-size="8.00">contact (person)</text>
</g>
<!-- pdc_apps_contact_models_Maillist -->
<g id="node4" class="node"><title>pdc_apps_contact_models_Maillist</title>
<polygon fill="palegoldenrod" stroke="none" points="16.5,-204.5 16.5,-261.5 199.5,-261.5 199.5,-204.5 16.5,-204.5"/>
<polygon fill="#698b22" stroke="none" points="17,-243 17,-261 200,-261 200,-243 17,-243"/>
<text text-anchor="start" x="74" y="-251.1" font-family="Helvetica,sans-Serif" font-size="8.00"> &#160;&#160;&#160;&#160;&#160;</text>
<text text-anchor="start" x="88" y="-251.1" font-family="Helvetica Bold" font-size="8.00" fill="white"> &#160;&#160;&#160;&#160;&#160;Maillist &#160;&#160;&#160;&#160;&#160;</text>
<text text-anchor="start" x="19" y="-235.6" font-family="Helvetica,sans-Serif" font-size="8.00"> &#160;&#160;&#160;&#160;&#160;</text>
<text text-anchor="start" x="33" y="-235.6" font-family="Helvetica Bold" font-size="8.00">contact</text>
<text text-anchor="start" x="64" y="-235.6" font-family="Helvetica,sans-Serif" font-size="8.00"> &#160;&#160;&#160;&#160;&#160;</text>
<text text-anchor="start" x="92" y="-235.6" font-family="Helvetica,sans-Serif" font-size="8.00"> &#160;&#160;&#160;&#160;&#160;</text>
<text text-anchor="start" x="106" y="-235.6" font-family="Helvetica Bold" font-size="8.00">OneToOneField (id)</text>
<text text-anchor="start" x="184" y="-235.6" font-family="Helvetica,sans-Serif" font-size="8.00"> &#160;&#160;&#160;&#160;&#160;</text>
<text text-anchor="start" x="19" y="-222.6" font-family="Helvetica,sans-Serif" font-size="8.00"> &#160;&#160;&#160;&#160;&#160;</text>
<text text-anchor="start" x="33" y="-222.6" font-family="Helvetica " font-size="8.00">email</text>
<text text-anchor="start" x="52" y="-222.6" font-family="Helvetica,sans-Serif" font-size="8.00"> &#160;&#160;&#160;&#160;&#160;</text>
<text text-anchor="start" x="92" y="-222.6" font-family="Helvetica,sans-Serif" font-size="8.00"> &#160;&#160;&#160;&#160;&#160;</text>
<text text-anchor="start" x="106" y="-222.6" font-family="Helvetica " font-size="8.00">EmailField</text>
<text text-anchor="start" x="143" y="-222.6" font-family="Helvetica,sans-Serif" font-size="8.00"> &#160;&#160;&#160;&#160;&#160;</text>
<text text-anchor="start" x="19" y="-209.6" font-family="Helvetica,sans-Serif" font-size="8.00"> &#160;&#160;&#160;&#160;&#160;</text>
<text text-anchor="start" x="33" y="-209.6" font-family="Helvetica " font-size="8.00">mail_name</text>
<text text-anchor="start" x="73" y="-209.6" font-family="Helvetica,sans-Serif" font-size="8.00"> &#160;&#160;&#160;&#160;&#160;</text>
<text text-anchor="start" x="92" y="-209.6" font-family="Helvetica,sans-Serif" font-size="8.00"> &#160;&#160;&#160;&#160;&#160;</text>
<text text-anchor="start" x="106" y="-209.6" font-family="Helvetica " font-size="8.00">CharField</text>
<text text-anchor="start" x="142" y="-209.6" font-family="Helvetica,sans-Serif" font-size="8.00"> &#160;&#160;&#160;&#160;&#160;</text>
</g>
<!-- pdc_apps_contact_models_Maillist&#45;&gt;pdc_apps_contact_models_Contact -->
<g id="edge2" class="edge"><title>pdc_apps_contact_models_Maillist&#45;&gt;pdc_apps_contact_models_Contact</title>
<path fill="none" stroke="black" d="M124.76,-200.45C132.22,-188.55 141.85,-175.59 153,-166 160.97,-159.14 170.05,-152.99 179.45,-147.55"/>
<text text-anchor="middle" x="182" y="-169.1" font-family="Helvetica,sans-Serif" font-size="8.00">contact (maillist)</text>
</g>
<!-- pdc_apps_contact_models_GlobalComponentContact -->
<g id="node5" class="node"><title>pdc_apps_contact_models_GlobalComponentContact</title>
<polygon fill="palegoldenrod" stroke="none" points="448.5,-198 448.5,-268 621.5,-268 621.5,-198 448.5,-198"/>
<polygon fill="#698b22" stroke="none" points="449,-250 449,-268 622,-268 622,-250 449,-250"/>
<text text-anchor="start" x="463" y="-258.1" font-family="Helvetica,sans-Serif" font-size="8.00"> &#160;&#160;&#160;&#160;&#160;</text>
<text text-anchor="start" x="477" y="-258.1" font-family="Helvetica Bold" font-size="8.00" fill="white"> &#160;&#160;&#160;&#160;&#160;GlobalComponentContact &#160;&#160;&#160;&#160;&#160;</text>
<text text-anchor="start" x="451" y="-242.6" font-family="Helvetica,sans-Serif" font-size="8.00"> &#160;&#160;&#160;&#160;&#160;</text>
<text text-anchor="start" x="465" y="-242.6" font-family="Helvetica Bold" font-size="8.00">id</text>
<text text-anchor="start" x="473" y="-242.6" font-family="Helvetica,sans-Serif" font-size="8.00"> &#160;&#160;&#160;&#160;&#160;</text>
<text text-anchor="start" x="530" y="-242.6" font-family="Helvetica,sans-Serif" font-size="8.00"> &#160;&#160;&#160;&#160;&#160;</text>
<text text-anchor="start" x="544" y="-242.6" font-family="Helvetica Bold" font-size="8.00">AutoField</text>
<text text-anchor="start" x="584" y="-242.6" font-family="Helvetica,sans-Serif" font-size="8.00"> &#160;&#160;&#160;&#160;&#160;</text>
<text text-anchor="start" x="451" y="-229.6" font-family="Helvetica,sans-Serif" font-size="8.00"> &#160;&#160;&#160;&#160;&#160;</text>
<text text-anchor="start" x="465" y="-229.6" font-family="Helvetica Bold" font-size="8.00">component</text>
<text text-anchor="start" x="511" y="-229.6" font-family="Helvetica,sans-Serif" font-size="8.00"> &#160;&#160;&#160;&#160;&#160;</text>
<text text-anchor="start" x="530" y="-229.6" font-family="Helvetica,sans-Serif" font-size="8.00"> &#160;&#160;&#160;&#160;&#160;</text>
<text text-anchor="start" x="544" y="-229.6" font-family="Helvetica Bold" font-size="8.00">ForeignKey (id)</text>
<text text-anchor="start" x="606" y="-229.6" font-family="Helvetica,sans-Serif" font-size="8.00"> &#160;&#160;&#160;&#160;&#160;</text>
<text text-anchor="start" x="451" y="-216.6" font-family="Helvetica,sans-Serif" font-size="8.00"> &#160;&#160;&#160;&#160;&#160;</text>
<text text-anchor="start" x="465" y="-216.6" font-family="Helvetica Bold" font-size="8.00">contact</text>
<text text-anchor="start" x="496" y="-216.6" font-family="Helvetica,sans-Serif" font-size="8.00"> &#160;&#160;&#160;&#160;&#160;</text>
<text text-anchor="start" x="530" y="-216.6" font-family="Helvetica,sans-Serif" font-size="8.00"> &#160;&#160;&#160;&#160;&#160;</text>
<text text-anchor="start" x="544" y="-216.6" font-family="Helvetica Bold" font-size="8.00">ForeignKey (id)</text>
<text text-anchor="start" x="606" y="-216.6" font-family="Helvetica,sans-Serif" font-size="8.00"> &#160;&#160;&#160;&#160;&#160;</text>
<text text-anchor="start" x="451" y="-203.6" font-family="Helvetica,sans-Serif" font-size="8.00"> &#160;&#160;&#160;&#160;&#160;</text>
<text text-anchor="start" x="465" y="-203.6" font-family="Helvetica Bold" font-size="8.00">role</text>
<text text-anchor="start" x="481" y="-203.6" font-family="Helvetica,sans-Serif" font-size="8.00"> &#160;&#160;&#160;&#160;&#160;</text>
<text text-anchor="start" x="530" y="-203.6" font-family="Helvetica,sans-Serif" font-size="8.00"> &#160;&#160;&#160;&#160;&#160;</text>
<text text-anchor="start" x="544" y="-203.6" font-family="Helvetica Bold" font-size="8.00">ForeignKey (id)</text>
<text text-anchor="start" x="606" y="-203.6" font-family="Helvetica,sans-Serif" font-size="8.00"> &#160;&#160;&#160;&#160;&#160;</text>
</g>
<!-- pdc_apps_contact_models_GlobalComponentContact&#45;&gt;pdc_apps_contact_models_ContactRole -->
<g id="edge3" class="edge"><title>pdc_apps_contact_models_GlobalComponentContact&#45;&gt;pdc_apps_contact_models_ContactRole</title>
<path fill="none" stroke="black" d="M440.54,-186.97C437.43,-180.57 437.69,-173.56 443,-166 451.78,-153.52 463.98,-144.14 477.55,-137.09"/>
<ellipse fill="black" stroke="black" cx="442.898" cy="-190.388" rx="4.00002" ry="4.00002"/>
<text text-anchor="middle" x="497.5" y="-169.1" font-family="Helvetica,sans-Serif" font-size="8.00">role (globalcomponentcontact)</text>
</g>
<!-- pdc_apps_contact_models_GlobalComponentContact&#45;&gt;pdc_apps_contact_models_Contact -->
<g id="edge4" class="edge"><title>pdc_apps_contact_models_GlobalComponentContact&#45;&gt;pdc_apps_contact_models_Contact</title>
<path fill="none" stroke="black" d="M432.61,-194.68C431.74,-194.45 430.87,-194.22 430,-194 379.46,-181.06 360.22,-200.21 314,-176 301.02,-169.2 289.33,-158.29 279.97,-147.63"/>
<ellipse fill="black" stroke="black" cx="436.683" cy="-195.8" rx="4.00001" ry="4.00001"/>
<text text-anchor="middle" x="374.5" y="-169.1" font-family="Helvetica,sans-Serif" font-size="8.00">contact (globalcomponentcontact)</text>
</g>
<!-- pdc_apps_component_models_GlobalComponent -->
<g id="node8" class="node"><title>pdc_apps_component_models_GlobalComponent</title>
<polygon fill="palegoldenrod" stroke="none" points="861.5,-106 861.5,-124 954.5,-124 954.5,-106 861.5,-106"/>
<polygon fill="#698b22" stroke="none" points="862,-106 862,-124 955,-124 955,-106 862,-106"/>
<text text-anchor="start" x="867" y="-114.1" font-family="Helvetica,sans-Serif" font-size="8.00"> &#160;</text>
<text text-anchor="start" x="872" y="-114.1" font-family="Helvetica Bold" font-size="8.00" fill="white">GlobalComponent</text>
<text text-anchor="start" x="945" y="-114.1" font-family="Helvetica,sans-Serif" font-size="8.00"> &#160;</text>
</g>
<!-- pdc_apps_contact_models_GlobalComponentContact&#45;&gt;pdc_apps_component_models_GlobalComponent -->
<g id="edge8" class="edge"><title>pdc_apps_contact_models_GlobalComponentContact&#45;&gt;pdc_apps_component_models_GlobalComponent</title>
<path fill="none" stroke="black" d="M637.19,-194.19C637.46,-194.12 637.73,-194.06 638,-194 720.7,-175.16 748.89,-206.59 828,-176 852.45,-166.55 875.89,-147.37 891.01,-133.23"/>
<ellipse fill="black" stroke="black" cx="633.173" cy="-195.181" rx="4.00001" ry="4.00001"/>
<text text-anchor="middle" x="915.5" y="-169.1" font-family="Helvetica,sans-Serif" font-size="8.00">component (globalcomponentcontact)</text>
</g>
<!-- pdc_apps_contact_models_ReleaseComponentContact -->
<g id="node6" class="node"><title>pdc_apps_contact_models_ReleaseComponentContact</title>
<polygon fill="palegoldenrod" stroke="none" points="655.5,-198 655.5,-268 828.5,-268 828.5,-198 655.5,-198"/>
<polygon fill="#698b22" stroke="none" points="656,-250 656,-268 829,-268 829,-250 656,-250"/>
<text text-anchor="start" x="667.5" y="-258.1" font-family="Helvetica,sans-Serif" font-size="8.00"> &#160;&#160;&#160;&#160;&#160;</text>
<text text-anchor="start" x="681.5" y="-258.1" font-family="Helvetica Bold" font-size="8.00" fill="white"> &#160;&#160;&#160;&#160;&#160;ReleaseComponentContact &#160;&#160;&#160;&#160;&#160;</text>
<text text-anchor="start" x="658" y="-242.6" font-family="Helvetica,sans-Serif" font-size="8.00"> &#160;&#160;&#160;&#160;&#160;</text>
<text text-anchor="start" x="672" y="-242.6" font-family="Helvetica Bold" font-size="8.00">id</text>
<text text-anchor="start" x="680" y="-242.6" font-family="Helvetica,sans-Serif" font-size="8.00"> &#160;&#160;&#160;&#160;&#160;</text>
<text text-anchor="start" x="737" y="-242.6" font-family="Helvetica,sans-Serif" font-size="8.00"> &#160;&#160;&#160;&#160;&#160;</text>
<text text-anchor="start" x="751" y="-242.6" font-family="Helvetica Bold" font-size="8.00">AutoField</text>
<text text-anchor="start" x="791" y="-242.6" font-family="Helvetica,sans-Serif" font-size="8.00"> &#160;&#160;&#160;&#160;&#160;</text>
<text text-anchor="start" x="658" y="-229.6" font-family="Helvetica,sans-Serif" font-size="8.00"> &#160;&#160;&#160;&#160;&#160;</text>
<text text-anchor="start" x="672" y="-229.6" font-family="Helvetica Bold" font-size="8.00">component</text>
<text text-anchor="start" x="718" y="-229.6" font-family="Helvetica,sans-Serif" font-size="8.00"> &#160;&#160;&#160;&#160;&#160;</text>
<text text-anchor="start" x="737" y="-229.6" font-family="Helvetica,sans-Serif" font-size="8.00"> &#160;&#160;&#160;&#160;&#160;</text>
<text text-anchor="start" x="751" y="-229.6" font-family="Helvetica Bold" font-size="8.00">ForeignKey (id)</text>
<text text-anchor="start" x="813" y="-229.6" font-family="Helvetica,sans-Serif" font-size="8.00"> &#160;&#160;&#160;&#160;&#160;</text>
<text text-anchor="start" x="658" y="-216.6" font-family="Helvetica,sans-Serif" font-size="8.00"> &#160;&#160;&#160;&#160;&#160;</text>
<text text-anchor="start" x="672" y="-216.6" font-family="Helvetica Bold" font-size="8.00">contact</text>
<text text-anchor="start" x="703" y="-216.6" font-family="Helvetica,sans-Serif" font-size="8.00"> &#160;&#160;&#160;&#160;&#160;</text>
<text text-anchor="start" x="737" y="-216.6" font-family="Helvetica,sans-Serif" font-size="8.00"> &#160;&#160;&#160;&#160;&#160;</text>
<text text-anchor="start" x="751" y="-216.6" font-family="Helvetica Bold" font-size="8.00">ForeignKey (id)</text>
<text text-anchor="start" x="813" y="-216.6" font-family="Helvetica,sans-Serif" font-size="8.00"> &#160;&#160;&#160;&#160;&#160;</text>
<text text-anchor="start" x="658" y="-203.6" font-family="Helvetica,sans-Serif" font-size="8.00"> &#160;&#160;&#160;&#160;&#160;</text>
<text text-anchor="start" x="672" y="-203.6" font-family="Helvetica Bold" font-size="8.00">role</text>
<text text-anchor="start" x="688" y="-203.6" font-family="Helvetica,sans-Serif" font-size="8.00"> &#160;&#160;&#160;&#160;&#160;</text>
<text text-anchor="start" x="737" y="-203.6" font-family="Helvetica,sans-Serif" font-size="8.00"> &#160;&#160;&#160;&#160;&#160;</text>
<text text-anchor="start" x="751" y="-203.6" font-family="Helvetica Bold" font-size="8.00">ForeignKey (id)</text>
<text text-anchor="start" x="813" y="-203.6" font-family="Helvetica,sans-Serif" font-size="8.00"> &#160;&#160;&#160;&#160;&#160;</text>
</g>
<!-- pdc_apps_contact_models_ReleaseComponentContact&#45;&gt;pdc_apps_contact_models_ContactRole -->
<g id="edge5" class="edge"><title>pdc_apps_contact_models_ReleaseComponentContact&#45;&gt;pdc_apps_contact_models_ContactRole</title>
<path fill="none" stroke="black" d="M719.29,-186.92C714.03,-179.26 707.91,-171.9 701,-166 692.82,-159.02 683.52,-152.9 673.81,-147.56"/>
<ellipse fill="black" stroke="black" cx="721.695" cy="-190.633" rx="4.00002" ry="4.00002"/>
<text text-anchor="middle" x="767" y="-169.1" font-family="Helvetica,sans-Serif" font-size="8.00">role (releasecomponentcontact)</text>
</g>
<!-- pdc_apps_contact_models_ReleaseComponentContact&#45;&gt;pdc_apps_contact_models_Contact -->
<g id="edge6" class="edge"><title>pdc_apps_contact_models_ReleaseComponentContact&#45;&gt;pdc_apps_contact_models_Contact</title>
<path fill="none" stroke="black" d="M640.11,-194.67C639.41,-194.45 638.7,-194.22 638,-194 608.6,-184.7 599.71,-187.25 571,-176 562.12,-172.52 561.04,-169.06 552,-166 533.33,-159.69 433.14,-143.29 354.63,-130.98"/>
<ellipse fill="black" stroke="black" cx="643.936" cy="-195.914" rx="4.00001" ry="4.00001"/>
<text text-anchor="middle" x="634" y="-169.1" font-family="Helvetica,sans-Serif" font-size="8.00">contact (releasecomponentcontact)</text>
</g>
<!-- pdc_apps_component_models_ReleaseComponent -->
<g id="node9" class="node"><title>pdc_apps_component_models_ReleaseComponent</title>
<polygon fill="palegoldenrod" stroke="none" points="1002.5,-106 1002.5,-124 1099.5,-124 1099.5,-106 1002.5,-106"/>
<polygon fill="#698b22" stroke="none" points="1003,-106 1003,-124 1100,-124 1100,-106 1003,-106"/>
<text text-anchor="start" x="1007.5" y="-114.1" font-family="Helvetica,sans-Serif" font-size="8.00"> &#160;</text>
<text text-anchor="start" x="1012.5" y="-114.1" font-family="Helvetica Bold" font-size="8.00" fill="white">ReleaseComponent</text>
<text text-anchor="start" x="1090.5" y="-114.1" font-family="Helvetica,sans-Serif" font-size="8.00"> &#160;</text>
</g>
<!-- pdc_apps_contact_models_ReleaseComponentContact&#45;&gt;pdc_apps_component_models_ReleaseComponent -->
<g id="edge9" class="edge"><title>pdc_apps_contact_models_ReleaseComponentContact&#45;&gt;pdc_apps_component_models_ReleaseComponent</title>
<path fill="none" stroke="black" d="M844.62,-222.62C915.37,-214.21 1001.4,-199.51 1029,-176 1041.6,-165.27 1047,-146.71 1049.3,-133.06"/>
<ellipse fill="black" stroke="black" cx="840.483" cy="-223.099" rx="4.00001" ry="4.00001"/>
<text text-anchor="middle" x="1106" y="-169.1" font-family="Helvetica,sans-Serif" font-size="8.00">component (releasecomponentcontact)</text>
</g>
</g>
</svg>
