<?xml version="1.0" encoding="UTF-8" standalone="no"?>
<!DOCTYPE svg PUBLIC "-//W3C//DTD SVG 1.1//EN"
 "http://www.w3.org/Graphics/SVG/1.1/DTD/svg11.dtd">
<!-- Generated by graphviz version 2.26.3 (20100126.1600)
 -->
<!-- Title: model_graph Pages: 1 -->
<svg width="244pt" height="199pt"
 viewBox="0.00 0.00 244.00 199.00" xmlns="http://www.w3.org/2000/svg" xmlns:xlink="http://www.w3.org/1999/xlink">
<g id="graph1" class="graph" transform="scale(1 1) rotate(0) translate(4 195)">
<title>model_graph</title>
<polygon fill="white" stroke="white" points="-4,5 -4,-195 241,-195 241,5 -4,5"/>
<g id="graph2" class="cluster"><title>cluster_pdc_apps_osbs</title>
<polyline fill="none" stroke="#698b22" points="20,-76 216,-76 "/>
<path fill="none" stroke="#698b22" d="M216,-76C222,-76 228,-82 228,-88"/>
<polyline fill="none" stroke="#698b22" points="228,-88 228,-171 "/>
<path fill="none" stroke="#698b22" d="M228,-171C228,-177 222,-183 216,-183"/>
<polyline fill="none" stroke="#698b22" points="216,-183 20,-183 "/>
<path fill="none" stroke="#698b22" d="M20,-183C14,-183 8,-177 8,-171"/>
<polyline fill="none" stroke="#698b22" points="8,-171 8,-88 "/>
<path fill="none" stroke="#698b22" d="M8,-88C8,-82 14,-76 20,-76"/>
<text text-anchor="start" x="23" y="-164.8" font-family="Helvetica,sans-Serif" font-size="8.00"> &#160;&#160;&#160;&#160;&#160;&#160;&#160;&#160;&#160;</text>
<text text-anchor="start" x="46" y="-165.2" font-family="Helvetica Bold" font-size="12.00"> &#160;&#160;&#160;&#160;&#160;&#160;&#160;&#160;&#160;pdc.apps.osbs &#160;&#160;&#160;&#160;&#160;&#160;&#160;&#160;&#160;</text>
<text text-anchor="start" x="191" y="-164.8" font-family="Helvetica,sans-Serif" font-size="8.00"> &#160;&#160;&#160;&#160;&#160;&#160;&#160;&#160;&#160;</text>
</g>
<!-- pdc_apps_osbs_models_OSBSRecord -->
<g id="node2" class="node"><title>pdc_apps_osbs_models_OSBSRecord</title>
<polygon fill="palegoldenrod" stroke="palegoldenrod" points="23.5,-88.5 23.5,-141.5 212.5,-141.5 212.5,-88.5 23.5,-88.5"/>
<polygon fill="#698b22" stroke="#698b22" points="24,-124 24,-141 213,-141 213,-124 24,-124"/>
<text text-anchor="start" x="72" y="-130.633" font-family="Helvetica,sans-Serif" font-size="8.00"> &#160;&#160;&#160;&#160;&#160;</text>
<text text-anchor="start" x="86" y="-130.633" font-family="Helvetica Bold" font-size="8.00" fill="white"> &#160;&#160;&#160;&#160;&#160;OSBSRecord &#160;&#160;&#160;&#160;&#160;</text>
<text text-anchor="start" x="26" y="-116.133" font-family="Helvetica,sans-Serif" font-size="8.00"> &#160;&#160;&#160;&#160;&#160;</text>
<text text-anchor="start" x="40" y="-116.133" font-family="Helvetica Bold" font-size="8.00">id</text>
<text text-anchor="start" x="48" y="-116.133" font-family="Helvetica,sans-Serif" font-size="8.00"> &#160;&#160;&#160;&#160;&#160;</text>
<text text-anchor="start" x="105" y="-116.133" font-family="Helvetica,sans-Serif" font-size="8.00"> &#160;&#160;&#160;&#160;&#160;</text>
<text text-anchor="start" x="119" y="-116.133" font-family="Helvetica Bold" font-size="8.00">AutoField</text>
<text text-anchor="start" x="159" y="-116.133" font-family="Helvetica,sans-Serif" font-size="8.00"> &#160;&#160;&#160;&#160;&#160;</text>
<text text-anchor="start" x="26" y="-104.133" font-family="Helvetica,sans-Serif" font-size="8.00"> &#160;&#160;&#160;&#160;&#160;</text>
<text text-anchor="start" x="40" y="-104.133" font-family="Helvetica Bold" font-size="8.00">component</text>
<text text-anchor="start" x="86" y="-104.133" font-family="Helvetica,sans-Serif" font-size="8.00"> &#160;&#160;&#160;&#160;&#160;</text>
<text text-anchor="start" x="105" y="-104.133" font-family="Helvetica,sans-Serif" font-size="8.00"> &#160;&#160;&#160;&#160;&#160;</text>
<text text-anchor="start" x="119" y="-104.133" font-family="Helvetica Bold" font-size="8.00">OneToOneField (id)</text>
<text text-anchor="start" x="197" y="-104.133" font-family="Helvetica,sans-Serif" font-size="8.00"> &#160;&#160;&#160;&#160;&#160;</text>
<text text-anchor="start" x="26" y="-92.1333" font-family="Helvetica,sans-Serif" font-size="8.00"> &#160;&#160;&#160;&#160;&#160;</text>
<text text-anchor="start" x="40" y="-92.1333" font-family="Helvetica " font-size="8.00" fill="#7b7b7b">autorebuild</text>
<text text-anchor="start" x="80" y="-92.1333" font-family="Helvetica,sans-Serif" font-size="8.00"> &#160;&#160;&#160;&#160;&#160;</text>
<text text-anchor="start" x="105" y="-92.1333" font-family="Helvetica,sans-Serif" font-size="8.00"> &#160;&#160;&#160;&#160;&#160;</text>
<text text-anchor="start" x="119" y="-92.1333" font-family="Helvetica " font-size="8.00" fill="#7b7b7b">NullBooleanField</text>
<text text-anchor="start" x="180" y="-92.1333" font-family="Helvetica,sans-Serif" font-size="8.00"> &#160;&#160;&#160;&#160;&#160;</text>
</g>
<!-- pdc_apps_component_models_ReleaseComponent -->
<g id="node3" class="node"><title>pdc_apps_component_models_ReleaseComponent</title>
<polygon fill="palegoldenrod" stroke="palegoldenrod" points="69.5,-9.5 69.5,-26.5 166.5,-26.5 166.5,-9.5 69.5,-9.5"/>
<polygon fill="#698b22" stroke="#698b22" points="70,-9 70,-26 167,-26 167,-9 70,-9"/>
<text text-anchor="start" x="74.5" y="-15.6333" font-family="Helvetica,sans-Serif" font-size="8.00"> &#160;</text>
<text text-anchor="start" x="79.5" y="-15.6333" font-family="Helvetica Bold" font-size="8.00" fill="white">ReleaseComponent</text>
<text text-anchor="start" x="157.5" y="-15.6333" font-family="Helvetica,sans-Serif" font-size="8.00"> &#160;</text>
</g>
<!-- pdc_apps_osbs_models_OSBSRecord&#45;&gt;pdc_apps_component_models_ReleaseComponent -->
<g id="edge3" class="edge"><title>pdc_apps_osbs_models_OSBSRecord&#45;&gt;pdc_apps_component_models_ReleaseComponent</title>
<path fill="none" stroke="black" d="M118,-84.309C118,-68.434 118,-49.605 118,-36.074"/>
<text text-anchor="middle" x="150.5" y="-58.8" font-family="Helvetica,sans-Serif" font-size="8.00">component (osbs)</text>
</g>
</g>
</svg>
