<?xml version="1.0" encoding="UTF-8" standalone="no"?>
<!DOCTYPE svg PUBLIC "-//W3C//DTD SVG 1.1//EN"
 "http://www.w3.org/Graphics/SVG/1.1/DTD/svg11.dtd">
<!-- Generated by graphviz version 2.36.0 (20140111.2315)
 -->
<!-- Title: model_graph Pages: 1 -->
<svg width="228pt" height="194pt"
 viewBox="0.00 0.00 228.00 194.00" xmlns="http://www.w3.org/2000/svg" xmlns:xlink="http://www.w3.org/1999/xlink">
<g id="graph0" class="graph" transform="scale(1 1) rotate(0) translate(4 190)">
<title>model_graph</title>
<polygon fill="white" stroke="none" points="-4,4 -4,-190 224,-190 224,4 -4,4"/>
<g id="clust1" class="cluster"><title>cluster_pdc_apps_osbs</title>
<path fill="none" stroke="#698b22" d="M12,-74C12,-74 208,-74 208,-74 214,-74 220,-80 220,-86 220,-86 220,-174 220,-174 220,-180 214,-186 208,-186 208,-186 12,-186 12,-186 6,-186 0,-180 0,-174 0,-174 0,-86 0,-86 0,-80 6,-74 12,-74"/>
<text text-anchor="start" x="15" y="-168.9" font-family="Helvetica,sans-Serif" font-size="8.00"> &#160;&#160;&#160;&#160;&#160;&#160;&#160;&#160;&#160;</text>
<text text-anchor="start" x="38" y="-168.9" font-family="Helvetica Bold" font-size="12.00"> &#160;&#160;&#160;&#160;&#160;&#160;&#160;&#160;&#160;pdc.apps.osbs &#160;&#160;&#160;&#160;&#160;&#160;&#160;&#160;&#160;</text>
<text text-anchor="start" x="183" y="-168.9" font-family="Helvetica,sans-Serif" font-size="8.00"> &#160;&#160;&#160;&#160;&#160;&#160;&#160;&#160;&#160;</text>
</g>
<!-- pdc_apps_osbs_models_OSBSRecord -->
<g id="node1" class="node"><title>pdc_apps_osbs_models_OSBSRecord</title>
<polygon fill="palegoldenrod" stroke="none" points="15.5,-86.5 15.5,-143.5 204.5,-143.5 204.5,-86.5 15.5,-86.5"/>
<polygon fill="#698b22" stroke="none" points="16,-125 16,-143 205,-143 205,-125 16,-125"/>
<text text-anchor="start" x="64" y="-133.1" font-family="Helvetica,sans-Serif" font-size="8.00"> &#160;&#160;&#160;&#160;&#160;</text>
<text text-anchor="start" x="78" y="-133.1" font-family="Helvetica Bold" font-size="8.00" fill="white"> &#160;&#160;&#160;&#160;&#160;OSBSRecord &#160;&#160;&#160;&#160;&#160;</text>
<text text-anchor="start" x="18" y="-117.6" font-family="Helvetica,sans-Serif" font-size="8.00"> &#160;&#160;&#160;&#160;&#160;</text>
<text text-anchor="start" x="32" y="-117.6" font-family="Helvetica Bold" font-size="8.00">id</text>
<text text-anchor="start" x="40" y="-117.6" font-family="Helvetica,sans-Serif" font-size="8.00"> &#160;&#160;&#160;&#160;&#160;</text>
<text text-anchor="start" x="97" y="-117.6" font-family="Helvetica,sans-Serif" font-size="8.00"> &#160;&#160;&#160;&#160;&#160;</text>
<text text-anchor="start" x="111" y="-117.6" font-family="Helvetica Bold" font-size="8.00">AutoField</text>
<text text-anchor="start" x="151" y="-117.6" font-family="Helvetica,sans-Serif" font-size="8.00"> &#160;&#160;&#160;&#160;&#160;</text>
<text text-anchor="start" x="18" y="-104.6" font-family="Helvetica,sans-Serif" font-size="8.00"> &#160;&#160;&#160;&#160;&#160;</text>
<text text-anchor="start" x="32" y="-104.6" font-family="Helvetica Bold" font-size="8.00">component</text>
<text text-anchor="start" x="78" y="-104.6" font-family="Helvetica,sans-Serif" font-size="8.00"> &#160;&#160;&#160;&#160;&#160;</text>
<text text-anchor="start" x="97" y="-104.6" font-family="Helvetica,sans-Serif" font-size="8.00"> &#160;&#160;&#160;&#160;&#160;</text>
<text text-anchor="start" x="111" y="-104.6" font-family="Helvetica Bold" font-size="8.00">OneToOneField (id)</text>
<text text-anchor="start" x="189" y="-104.6" font-family="Helvetica,sans-Serif" font-size="8.00"> &#160;&#160;&#160;&#160;&#160;</text>
<text text-anchor="start" x="18" y="-91.6" font-family="Helvetica,sans-Serif" font-size="8.00"> &#160;&#160;&#160;&#160;&#160;</text>
<text text-anchor="start" x="32" y="-91.6" font-family="Helvetica " font-size="8.00" fill="#7b7b7b">autorebuild</text>
<text text-anchor="start" x="72" y="-91.6" font-family="Helvetica,sans-Serif" font-size="8.00"> &#160;&#160;&#160;&#160;&#160;</text>
<text text-anchor="start" x="97" y="-91.6" font-family="Helvetica,sans-Serif" font-size="8.00"> &#160;&#160;&#160;&#160;&#160;</text>
<text text-anchor="start" x="111" y="-91.6" font-family="Helvetica " font-size="8.00" fill="#7b7b7b">NullBooleanField</text>
<text text-anchor="start" x="172" y="-91.6" font-family="Helvetica,sans-Serif" font-size="8.00"> &#160;&#160;&#160;&#160;&#160;</text>
</g>
<!-- pdc_apps_component_models_ReleaseComponent -->
<g id="node2" class="node"><title>pdc_apps_component_models_ReleaseComponent</title>
<polygon fill="palegoldenrod" stroke="none" points="61.5,-9 61.5,-27 158.5,-27 158.5,-9 61.5,-9"/>
<polygon fill="#698b22" stroke="none" points="62,-9 62,-27 159,-27 159,-9 62,-9"/>
<text text-anchor="start" x="66.5" y="-17.1" font-family="Helvetica,sans-Serif" font-size="8.00"> &#160;</text>
<text text-anchor="start" x="71.5" y="-17.1" font-family="Helvetica Bold" font-size="8.00" fill="white">ReleaseComponent</text>
<text text-anchor="start" x="149.5" y="-17.1" font-family="Helvetica,sans-Serif" font-size="8.00"> &#160;</text>
</g>
<!-- pdc_apps_osbs_models_OSBSRecord&#45;&gt;pdc_apps_component_models_ReleaseComponent -->
<g id="edge1" class="edge"><title>pdc_apps_osbs_models_OSBSRecord&#45;&gt;pdc_apps_component_models_ReleaseComponent</title>
<path fill="none" stroke="black" d="M110,-82.366C110,-66.929 110,-48.966 110,-36.116"/>
<text text-anchor="middle" x="142.5" y="-57.1" font-family="Helvetica,sans-Serif" font-size="8.00">component (osbs)</text>
</g>
</g>
</svg>
