<?xml version="1.0" encoding="UTF-8" standalone="no"?>
<!DOCTYPE svg PUBLIC "-//W3C//DTD SVG 1.1//EN"
 "http://www.w3.org/Graphics/SVG/1.1/DTD/svg11.dtd">
<!-- Generated by graphviz version 2.26.3 (20100126.1600)
 -->
<!-- Title: model_graph Pages: 1 -->
<svg width="247pt" height="223pt"
 viewBox="0.00 0.00 247.00 223.00" xmlns="http://www.w3.org/2000/svg" xmlns:xlink="http://www.w3.org/1999/xlink">
<g id="graph1" class="graph" transform="scale(1 1) rotate(0) translate(4 219)">
<title>model_graph</title>
<polygon fill="white" stroke="white" points="-4,5 -4,-219 244,-219 244,5 -4,5"/>
<g id="graph2" class="cluster"><title>cluster_pdc_apps_usage</title>
<polyline fill="none" stroke="#698b22" points="20,-76 219,-76 "/>
<path fill="none" stroke="#698b22" d="M219,-76C225,-76 231,-82 231,-88"/>
<polyline fill="none" stroke="#698b22" points="231,-88 231,-195 "/>
<path fill="none" stroke="#698b22" d="M231,-195C231,-201 225,-207 219,-207"/>
<polyline fill="none" stroke="#698b22" points="219,-207 20,-207 "/>
<path fill="none" stroke="#698b22" d="M20,-207C14,-207 8,-201 8,-195"/>
<polyline fill="none" stroke="#698b22" points="8,-195 8,-88 "/>
<path fill="none" stroke="#698b22" d="M8,-88C8,-82 14,-76 20,-76"/>
<text text-anchor="start" x="21" y="-188.8" font-family="Helvetica,sans-Serif" font-size="8.00"> &#160;&#160;&#160;&#160;&#160;&#160;&#160;&#160;&#160;</text>
<text text-anchor="start" x="44" y="-189.2" font-family="Helvetica Bold" font-size="12.00"> &#160;&#160;&#160;&#160;&#160;&#160;&#160;&#160;&#160;pdc.apps.usage &#160;&#160;&#160;&#160;&#160;&#160;&#160;&#160;&#160;</text>
<text text-anchor="start" x="196" y="-188.8" font-family="Helvetica,sans-Serif" font-size="8.00"> &#160;&#160;&#160;&#160;&#160;&#160;&#160;&#160;&#160;</text>
</g>
<!-- pdc_apps_usage_models_ResourceUsage -->
<g id="node2" class="node"><title>pdc_apps_usage_models_ResourceUsage</title>
<polygon fill="palegoldenrod" stroke="palegoldenrod" points="39.5,-88.5 39.5,-165.5 198.5,-165.5 198.5,-88.5 39.5,-88.5"/>
<polygon fill="#698b22" stroke="#698b22" points="40,-148 40,-165 199,-165 199,-148 40,-148"/>
<text text-anchor="start" x="67.5" y="-154.633" font-family="Helvetica,sans-Serif" font-size="8.00"> &#160;&#160;&#160;&#160;&#160;</text>
<text text-anchor="start" x="81.5" y="-154.633" font-family="Helvetica Bold" font-size="8.00" fill="white"> &#160;&#160;&#160;&#160;&#160;ResourceUsage &#160;&#160;&#160;&#160;&#160;</text>
<text text-anchor="start" x="42" y="-140.133" font-family="Helvetica,sans-Serif" font-size="8.00"> &#160;&#160;&#160;&#160;&#160;</text>
<text text-anchor="start" x="56" y="-140.133" font-family="Helvetica Bold" font-size="8.00">id</text>
<text text-anchor="start" x="64" y="-140.133" font-family="Helvetica,sans-Serif" font-size="8.00"> &#160;&#160;&#160;&#160;&#160;</text>
<text text-anchor="start" x="107" y="-140.133" font-family="Helvetica,sans-Serif" font-size="8.00"> &#160;&#160;&#160;&#160;&#160;</text>
<text text-anchor="start" x="121" y="-140.133" font-family="Helvetica Bold" font-size="8.00">AutoField</text>
<text text-anchor="start" x="161" y="-140.133" font-family="Helvetica,sans-Serif" font-size="8.00"> &#160;&#160;&#160;&#160;&#160;</text>
<text text-anchor="start" x="42" y="-128.133" font-family="Helvetica,sans-Serif" font-size="8.00"> &#160;&#160;&#160;&#160;&#160;</text>
<text text-anchor="start" x="56" y="-128.133" font-family="Helvetica Bold" font-size="8.00" fill="#7b7b7b">user</text>
<text text-anchor="start" x="74" y="-128.133" font-family="Helvetica,sans-Serif" font-size="8.00"> &#160;&#160;&#160;&#160;&#160;</text>
<text text-anchor="start" x="107" y="-128.133" font-family="Helvetica,sans-Serif" font-size="8.00"> &#160;&#160;&#160;&#160;&#160;</text>
<text text-anchor="start" x="121" y="-128.133" font-family="Helvetica Bold" font-size="8.00" fill="#7b7b7b">ForeignKey (id)</text>
<text text-anchor="start" x="183" y="-128.133" font-family="Helvetica,sans-Serif" font-size="8.00"> &#160;&#160;&#160;&#160;&#160;</text>
<text text-anchor="start" x="42" y="-116.133" font-family="Helvetica,sans-Serif" font-size="8.00"> &#160;&#160;&#160;&#160;&#160;</text>
<text text-anchor="start" x="56" y="-116.133" font-family="Helvetica " font-size="8.00">method</text>
<text text-anchor="start" x="84" y="-116.133" font-family="Helvetica,sans-Serif" font-size="8.00"> &#160;&#160;&#160;&#160;&#160;</text>
<text text-anchor="start" x="107" y="-116.133" font-family="Helvetica,sans-Serif" font-size="8.00"> &#160;&#160;&#160;&#160;&#160;</text>
<text text-anchor="start" x="121" y="-116.133" font-family="Helvetica " font-size="8.00">CharField</text>
<text text-anchor="start" x="157" y="-116.133" font-family="Helvetica,sans-Serif" font-size="8.00"> &#160;&#160;&#160;&#160;&#160;</text>
<text text-anchor="start" x="42" y="-104.133" font-family="Helvetica,sans-Serif" font-size="8.00"> &#160;&#160;&#160;&#160;&#160;</text>
<text text-anchor="start" x="56" y="-104.133" font-family="Helvetica " font-size="8.00">resource</text>
<text text-anchor="start" x="88" y="-104.133" font-family="Helvetica,sans-Serif" font-size="8.00"> &#160;&#160;&#160;&#160;&#160;</text>
<text text-anchor="start" x="107" y="-104.133" font-family="Helvetica,sans-Serif" font-size="8.00"> &#160;&#160;&#160;&#160;&#160;</text>
<text text-anchor="start" x="121" y="-104.133" font-family="Helvetica " font-size="8.00">CharField</text>
<text text-anchor="start" x="157" y="-104.133" font-family="Helvetica,sans-Serif" font-size="8.00"> &#160;&#160;&#160;&#160;&#160;</text>
<text text-anchor="start" x="42" y="-92.1333" font-family="Helvetica,sans-Serif" font-size="8.00"> &#160;&#160;&#160;&#160;&#160;</text>
<text text-anchor="start" x="56" y="-92.1333" font-family="Helvetica " font-size="8.00">time</text>
<text text-anchor="start" x="72" y="-92.1333" font-family="Helvetica,sans-Serif" font-size="8.00"> &#160;&#160;&#160;&#160;&#160;</text>
<text text-anchor="start" x="107" y="-92.1333" font-family="Helvetica,sans-Serif" font-size="8.00"> &#160;&#160;&#160;&#160;&#160;</text>
<text text-anchor="start" x="121" y="-92.1333" font-family="Helvetica " font-size="8.00">DateTimeField</text>
<text text-anchor="start" x="174" y="-92.1333" font-family="Helvetica,sans-Serif" font-size="8.00"> &#160;&#160;&#160;&#160;&#160;</text>
</g>
<!-- pdc_apps_auth_models_User -->
<g id="node3" class="node"><title>pdc_apps_auth_models_User</title>
<polygon fill="palegoldenrod" stroke="palegoldenrod" points="99.5,-9.5 99.5,-26.5 138.5,-26.5 138.5,-9.5 99.5,-9.5"/>
<polygon fill="#698b22" stroke="#698b22" points="100,-9 100,-26 139,-26 139,-9 100,-9"/>
<text text-anchor="start" x="105" y="-15.6333" font-family="Helvetica,sans-Serif" font-size="8.00"> &#160;</text>
<text text-anchor="start" x="110" y="-15.6333" font-family="Helvetica Bold" font-size="8.00" fill="white">User</text>
<text text-anchor="start" x="129" y="-15.6333" font-family="Helvetica,sans-Serif" font-size="8.00"> &#160;</text>
</g>
<!-- pdc_apps_usage_models_ResourceUsage&#45;&gt;pdc_apps_auth_models_User -->
<g id="edge3" class="edge"><title>pdc_apps_usage_models_ResourceUsage&#45;&gt;pdc_apps_auth_models_User</title>
<path fill="none" stroke="black" d="M119,-75.919C119,-61.686 119,-47.141 119,-36.187"/>
<ellipse fill="black" stroke="black" cx="119" cy="-80.233" rx="4" ry="4"/>
<text text-anchor="middle" x="158" y="-58.8" font-family="Helvetica,sans-Serif" font-size="8.00">user (resourceusage)</text>
</g>
</g>
</svg>
