<?xml version="1.0" encoding="UTF-8" standalone="no"?>
<!DOCTYPE svg PUBLIC "-//W3C//DTD SVG 1.1//EN"
 "http://www.w3.org/Graphics/SVG/1.1/DTD/svg11.dtd">
<!-- Generated by graphviz version 2.36.0 (20140111.2315)
 -->
<!-- Title: model_graph Pages: 1 -->
<svg width="231pt" height="220pt"
 viewBox="0.00 0.00 231.00 220.00" xmlns="http://www.w3.org/2000/svg" xmlns:xlink="http://www.w3.org/1999/xlink">
<g id="graph0" class="graph" transform="scale(1 1) rotate(0) translate(4 216)">
<title>model_graph</title>
<polygon fill="white" stroke="none" points="-4,4 -4,-216 227,-216 227,4 -4,4"/>
<g id="clust1" class="cluster"><title>cluster_pdc_apps_usage</title>
<path fill="none" stroke="#698b22" d="M12,-74C12,-74 211,-74 211,-74 217,-74 223,-80 223,-86 223,-86 223,-200 223,-200 223,-206 217,-212 211,-212 211,-212 12,-212 12,-212 6,-212 0,-206 0,-200 0,-200 0,-86 0,-86 0,-80 6,-74 12,-74"/>
<text text-anchor="start" x="13" y="-194.9" font-family="Helvetica,sans-Serif" font-size="8.00"> &#160;&#160;&#160;&#160;&#160;&#160;&#160;&#160;&#160;</text>
<text text-anchor="start" x="36" y="-194.9" font-family="Helvetica Bold" font-size="12.00"> &#160;&#160;&#160;&#160;&#160;&#160;&#160;&#160;&#160;pdc.apps.usage &#160;&#160;&#160;&#160;&#160;&#160;&#160;&#160;&#160;</text>
<text text-anchor="start" x="188" y="-194.9" font-family="Helvetica,sans-Serif" font-size="8.00"> &#160;&#160;&#160;&#160;&#160;&#160;&#160;&#160;&#160;</text>
</g>
<!-- pdc_apps_usage_models_ResourceUsage -->
<g id="node1" class="node"><title>pdc_apps_usage_models_ResourceUsage</title>
<polygon fill="palegoldenrod" stroke="none" points="31.5,-86.5 31.5,-169.5 190.5,-169.5 190.5,-86.5 31.5,-86.5"/>
<polygon fill="#698b22" stroke="none" points="32,-151 32,-169 191,-169 191,-151 32,-151"/>
<text text-anchor="start" x="59.5" y="-159.1" font-family="Helvetica,sans-Serif" font-size="8.00"> &#160;&#160;&#160;&#160;&#160;</text>
<text text-anchor="start" x="73.5" y="-159.1" font-family="Helvetica Bold" font-size="8.00" fill="white"> &#160;&#160;&#160;&#160;&#160;ResourceUsage &#160;&#160;&#160;&#160;&#160;</text>
<text text-anchor="start" x="34" y="-143.6" font-family="Helvetica,sans-Serif" font-size="8.00"> &#160;&#160;&#160;&#160;&#160;</text>
<text text-anchor="start" x="48" y="-143.6" font-family="Helvetica Bold" font-size="8.00">id</text>
<text text-anchor="start" x="56" y="-143.6" font-family="Helvetica,sans-Serif" font-size="8.00"> &#160;&#160;&#160;&#160;&#160;</text>
<text text-anchor="start" x="99" y="-143.6" font-family="Helvetica,sans-Serif" font-size="8.00"> &#160;&#160;&#160;&#160;&#160;</text>
<text text-anchor="start" x="113" y="-143.6" font-family="Helvetica Bold" font-size="8.00">AutoField</text>
<text text-anchor="start" x="153" y="-143.6" font-family="Helvetica,sans-Serif" font-size="8.00"> &#160;&#160;&#160;&#160;&#160;</text>
<text text-anchor="start" x="34" y="-130.6" font-family="Helvetica,sans-Serif" font-size="8.00"> &#160;&#160;&#160;&#160;&#160;</text>
<text text-anchor="start" x="48" y="-130.6" font-family="Helvetica Bold" font-size="8.00" fill="#7b7b7b">user</text>
<text text-anchor="start" x="66" y="-130.6" font-family="Helvetica,sans-Serif" font-size="8.00"> &#160;&#160;&#160;&#160;&#160;</text>
<text text-anchor="start" x="99" y="-130.6" font-family="Helvetica,sans-Serif" font-size="8.00"> &#160;&#160;&#160;&#160;&#160;</text>
<text text-anchor="start" x="113" y="-130.6" font-family="Helvetica Bold" font-size="8.00" fill="#7b7b7b">ForeignKey (id)</text>
<text text-anchor="start" x="175" y="-130.6" font-family="Helvetica,sans-Serif" font-size="8.00"> &#160;&#160;&#160;&#160;&#160;</text>
<text text-anchor="start" x="34" y="-117.6" font-family="Helvetica,sans-Serif" font-size="8.00"> &#160;&#160;&#160;&#160;&#160;</text>
<text text-anchor="start" x="48" y="-117.6" font-family="Helvetica " font-size="8.00">method</text>
<text text-anchor="start" x="76" y="-117.6" font-family="Helvetica,sans-Serif" font-size="8.00"> &#160;&#160;&#160;&#160;&#160;</text>
<text text-anchor="start" x="99" y="-117.6" font-family="Helvetica,sans-Serif" font-size="8.00"> &#160;&#160;&#160;&#160;&#160;</text>
<text text-anchor="start" x="113" y="-117.6" font-family="Helvetica " font-size="8.00">CharField</text>
<text text-anchor="start" x="149" y="-117.6" font-family="Helvetica,sans-Serif" font-size="8.00"> &#160;&#160;&#160;&#160;&#160;</text>
<text text-anchor="start" x="34" y="-104.6" font-family="Helvetica,sans-Serif" font-size="8.00"> &#160;&#160;&#160;&#160;&#160;</text>
<text text-anchor="start" x="48" y="-104.6" font-family="Helvetica " font-size="8.00">resource</text>
<text text-anchor="start" x="80" y="-104.6" font-family="Helvetica,sans-Serif" font-size="8.00"> &#160;&#160;&#160;&#160;&#160;</text>
<text text-anchor="start" x="99" y="-104.6" font-family="Helvetica,sans-Serif" font-size="8.00"> &#160;&#160;&#160;&#160;&#160;</text>
<text text-anchor="start" x="113" y="-104.6" font-family="Helvetica " font-size="8.00">CharField</text>
<text text-anchor="start" x="149" y="-104.6" font-family="Helvetica,sans-Serif" font-size="8.00"> &#160;&#160;&#160;&#160;&#160;</text>
<text text-anchor="start" x="34" y="-91.6" font-family="Helvetica,sans-Serif" font-size="8.00"> &#160;&#160;&#160;&#160;&#160;</text>
<text text-anchor="start" x="48" y="-91.6" font-family="Helvetica " font-size="8.00">time</text>
<text text-anchor="start" x="64" y="-91.6" font-family="Helvetica,sans-Serif" font-size="8.00"> &#160;&#160;&#160;&#160;&#160;</text>
<text text-anchor="start" x="99" y="-91.6" font-family="Helvetica,sans-Serif" font-size="8.00"> &#160;&#160;&#160;&#160;&#160;</text>
<text text-anchor="start" x="113" y="-91.6" font-family="Helvetica " font-size="8.00">DateTimeField</text>
<text text-anchor="start" x="166" y="-91.6" font-family="Helvetica,sans-Serif" font-size="8.00"> &#160;&#160;&#160;&#160;&#160;</text>
</g>
<!-- pdc_apps_auth_models_User -->
<g id="node2" class="node"><title>pdc_apps_auth_models_User</title>
<polygon fill="palegoldenrod" stroke="none" points="91.5,-9 91.5,-27 130.5,-27 130.5,-9 91.5,-9"/>
<polygon fill="#698b22" stroke="none" points="92,-9 92,-27 131,-27 131,-9 92,-9"/>
<text text-anchor="start" x="97" y="-17.1" font-family="Helvetica,sans-Serif" font-size="8.00"> &#160;</text>
<text text-anchor="start" x="102" y="-17.1" font-family="Helvetica Bold" font-size="8.00" fill="white">User</text>
<text text-anchor="start" x="121" y="-17.1" font-family="Helvetica,sans-Serif" font-size="8.00"> &#160;</text>
</g>
<!-- pdc_apps_usage_models_ResourceUsage&#45;&gt;pdc_apps_auth_models_User -->
<g id="edge1" class="edge"><title>pdc_apps_usage_models_ResourceUsage&#45;&gt;pdc_apps_auth_models_User</title>
<path fill="none" stroke="black" d="M111,-74.373C111,-60.587 111,-46.682 111,-36.255"/>
<ellipse fill="black" stroke="black" cx="111" cy="-78.449" rx="4" ry="4"/>
<text text-anchor="middle" x="150" y="-57.1" font-family="Helvetica,sans-Serif" font-size="8.00">user (resourceusage)</text>
</g>
</g>
</svg>
